<svg width="59" height="44" viewBox="0 0 59 44" fill="none" xmlns="http://www.w3.org/2000/svg">
<path fill-rule="evenodd" clip-rule="evenodd" d="M58.0167 32.4497V40.3164C58.0134 41.4012 57.1348 42.2798 56.05 42.283H2.95006C1.86525 42.2798 0.986638 41.4012 0.983398 40.3164V32.4497H58.0167Z" fill="#A4C2F7"/>
<path fill-rule="evenodd" clip-rule="evenodd" d="M55.0666 32.4497V40.3164C55.0634 41.4012 54.1848 42.2798 53.0999 42.283H56.05C57.1348 42.2798 58.0134 41.4012 58.0166 40.3164V32.4497H55.0666Z" fill="#7FACFA"/>
<path fill-rule="evenodd" clip-rule="evenodd" d="M58.0167 29.657V32.4497H0.983398V29.657C0.985192 29.2708 1.04147 28.8868 1.15056 28.5164H57.8495C57.9586 28.8868 58.0149 29.2708 58.0167 29.657Z" fill="#E8EDFC"/>
<path fill-rule="evenodd" clip-rule="evenodd" d="M57.8494 28.5164H54.8994C55.0085 28.8868 55.0648 29.2708 55.0666 29.657V32.4497H58.0166V29.657C58.0148 29.2708 57.9585 28.8868 57.8494 28.5164Z" fill="#CAD9FC"/>
<path fill-rule="evenodd" clip-rule="evenodd" d="M57.8495 28.5166H1.15051C1.25105 28.1758 1.40007 27.8513 1.59301 27.5529L12.2032 10.7478C12.565 10.1795 13.1914 9.83481 13.865 9.83325H45.135C45.8086 9.83481 46.435 10.1795 46.7968 10.7478L57.407 27.5529C57.5999 27.8513 57.7489 28.1758 57.8495 28.5166Z" fill="#E8EDFC"/>
<path fill-rule="evenodd" clip-rule="evenodd" d="M57.407 27.5529L46.7968 10.7478C46.435 10.1795 45.8086 9.83481 45.135 9.83325H42.185C42.8586 9.83481 43.485 10.1795 43.8468 10.7478L54.457 27.5529C54.6499 27.8513 54.799 28.1758 54.8995 28.5166H57.8495C57.749 28.1758 57.5999 27.8513 57.407 27.5529Z" fill="#CAD9FC"/>
<path fill-rule="evenodd" clip-rule="evenodd" d="M2.95008 42.2832H5.90008C4.81526 42.28 3.93665 41.4014 3.93341 40.3165V29.6572C3.93133 28.9119 4.1429 28.1817 4.54308 27.5529L15.1532 10.7478C15.515 10.1795 16.1414 9.83481 16.8151 9.83325H13.8651C13.1914 9.83481 12.565 10.1795 12.2032 10.7478L1.59308 27.5529C1.19291 28.1817 0.981331 28.9119 0.983414 29.6572V40.3165C0.986654 41.4014 1.86526 42.28 2.95008 42.2832Z" fill="white"/>
<path fill-rule="evenodd" clip-rule="evenodd" d="M7.17914 16.8728L11.3799 10.2176L13.0437 11.2678L8.84294 17.923L7.17914 16.8728Z" fill="white"/>
<path fill-rule="evenodd" clip-rule="evenodd" d="M11.6751 11.5764C12.1314 11.8689 12.7383 11.7369 13.0321 11.2814C13.2128 10.9951 13.5264 10.82 13.865 10.8163H16.7166C17.2597 10.8163 17.7 10.376 17.7 9.83295C17.7 9.28987 17.2597 8.84961 16.7166 8.84961H13.865C12.8545 8.84804 11.914 9.36526 11.3742 10.2194C11.0828 10.6773 11.2175 11.2846 11.6751 11.5764Z" fill="#001F86"/>
<path d="M47.6258 10.2194C47.0859 9.36526 46.1454 8.84804 45.135 8.84961H42.2833C41.7402 8.84961 41.3 9.28987 41.3 9.83294C41.3 10.376 41.7402 10.8163 42.2833 10.8163H45.135C45.4709 10.8187 45.7829 10.9903 45.9649 11.2725L56.2319 27.5329H2.76811L8.83527 17.9238C9.0323 17.6266 9.053 17.246 8.88934 16.9292C8.72569 16.6124 8.40335 16.409 8.04693 16.3976C7.69052 16.3863 7.3559 16.5688 7.17245 16.8746L0.761126 27.0275C0.26112 27.8131 -0.00302701 28.7257 2.61714e-05 29.6569V40.3162C2.61714e-05 41.9455 1.32079 43.2662 2.95002 43.2662H56.05C57.6792 43.2662 59 41.9455 59 40.3162V29.6569C59.0028 28.7257 58.7387 27.8132 58.2389 27.0275L47.6258 10.2194ZM56.05 41.2996H2.95002C2.40694 41.2996 1.96669 40.8593 1.96669 40.3162V33.4329H6.88335C7.42643 33.4329 7.86669 32.9927 7.86669 32.4496C7.86669 31.9065 7.42643 31.4662 6.88335 31.4662H1.96669V29.6569C1.96669 29.6038 1.97456 29.5527 1.97751 29.4996H57.0225C57.0225 29.5527 57.0333 29.6038 57.0333 29.6569V31.4662H11.8C11.2569 31.4662 10.8167 31.9065 10.8167 32.4496C10.8167 32.9927 11.2569 33.4329 11.8 33.4329H57.0333V40.3162C57.0333 40.8593 56.5931 41.2996 56.05 41.2996Z" fill="#001F86"/>
<path d="M16.7167 14.7499C17.2598 14.7499 17.7001 14.3096 17.7001 13.7665C17.7001 13.2235 17.2598 12.7832 16.7167 12.7832C16.1737 12.7832 15.7334 13.2235 15.7334 13.7665C15.7334 14.3096 16.1737 14.7499 16.7167 14.7499Z" fill="#001F86"/>
<path d="M25.5667 14.7499C26.1098 14.7499 26.55 14.3096 26.55 13.7665C26.55 13.2235 26.1098 12.7832 25.5667 12.7832C25.0236 12.7832 24.5834 13.2235 24.5834 13.7665C24.5834 14.3096 25.0236 14.7499 25.5667 14.7499Z" fill="#001F86"/>
<path d="M24.5833 19.6664C25.1264 19.6664 25.5666 19.2261 25.5666 18.683C25.5666 18.14 25.1264 17.6997 24.5833 17.6997C24.0402 17.6997 23.6 18.14 23.6 18.683C23.6 19.2261 24.0402 19.6664 24.5833 19.6664Z" fill="#001F86"/>
<path d="M23.5999 24.5831C24.143 24.5831 24.5832 24.1429 24.5832 23.5998C24.5832 23.0567 24.143 22.6165 23.5999 22.6165C23.0568 22.6165 22.6166 23.0567 22.6166 23.5998C22.6166 24.1429 23.0568 24.5831 23.5999 24.5831Z" fill="#001F86"/>
<path d="M14.7499 19.6664C15.293 19.6664 15.7332 19.2261 15.7332 18.683C15.7332 18.14 15.293 17.6997 14.7499 17.6997C14.2068 17.6997 13.7665 18.14 13.7665 18.683C13.7665 19.2261 14.2068 19.6664 14.7499 19.6664Z" fill="#001F86"/>
<path d="M12.7833 24.5831C13.3264 24.5831 13.7666 24.1429 13.7666 23.5998C13.7666 23.0567 13.3264 22.6165 12.7833 22.6165C12.2402 22.6165 11.8 23.0567 11.8 23.5998C11.8 24.1429 12.2402 24.5831 12.7833 24.5831Z" fill="#001F86"/>
<path d="M42.2833 14.7499C42.8264 14.7499 43.2666 14.3096 43.2666 13.7665C43.2666 13.2235 42.8264 12.7832 42.2833 12.7832C41.7402 12.7832 41.3 13.2235 41.3 13.7665C41.3 14.3096 41.7402 14.7499 42.2833 14.7499Z" fill="#001F86"/>
<path d="M33.4333 14.7499C33.9763 14.7499 34.4166 14.3096 34.4166 13.7665C34.4166 13.2235 33.9763 12.7832 33.4333 12.7832C32.8902 12.7832 32.45 13.2235 32.45 13.7665C32.45 14.3096 32.8902 14.7499 33.4333 14.7499Z" fill="#001F86"/>
<path d="M34.4167 19.6664C34.9598 19.6664 35.4 19.2261 35.4 18.683C35.4 18.14 34.9598 17.6997 34.4167 17.6997C33.8736 17.6997 33.4334 18.14 33.4334 18.683C33.4334 19.2261 33.8736 19.6664 34.4167 19.6664Z" fill="#001F86"/>
<path d="M35.4001 24.5831C35.9431 24.5831 36.3834 24.1429 36.3834 23.5998C36.3834 23.0567 35.9431 22.6165 35.4001 22.6165C34.857 22.6165 34.4167 23.0567 34.4167 23.5998C34.4167 24.1429 34.857 24.5831 35.4001 24.5831Z" fill="#001F86"/>
<path d="M44.2499 19.6664C44.793 19.6664 45.2332 19.2261 45.2332 18.683C45.2332 18.14 44.793 17.6997 44.2499 17.6997C43.7068 17.6997 43.2666 18.14 43.2666 18.683C43.2666 19.2261 43.7068 19.6664 44.2499 19.6664Z" fill="#001F86"/>
<path d="M46.2167 24.5831C46.7598 24.5831 47.2 24.1429 47.2 23.5998C47.2 23.0567 46.7598 22.6165 46.2167 22.6165C45.6736 22.6165 45.2334 23.0567 45.2334 23.5998C45.2334 24.1429 45.6736 24.5831 46.2167 24.5831Z" fill="#001F86"/>
<path fill-rule="evenodd" clip-rule="evenodd" d="M40.6047 15.0382L39.3333 16.3096L39.3333 0.983404C39.3333 0.440325 38.893 7.21839e-05 38.3499 7.21364e-05C37.8069 7.2089e-05 37.3666 0.440324 37.3666 0.983404L37.3666 16.3096L36.0952 15.0382C35.7093 14.6655 35.096 14.6708 34.7167 15.0501C34.3374 15.4295 34.3321 16.0428 34.7047 16.4286L37.6547 19.3786C38.0387 19.7625 38.6612 19.7625 39.0451 19.3786L41.9951 16.4286C42.3678 16.0428 42.3625 15.4295 41.9832 15.0501C41.6039 14.6708 40.9906 14.6655 40.6047 15.0382Z" fill="#001F86"/>
<path fill-rule="evenodd" clip-rule="evenodd" d="M31.7547 15.0382L30.4833 16.3096L30.4833 0.983404C30.4833 0.440325 30.043 7.21839e-05 29.5 7.21364e-05C28.9569 7.2089e-05 28.5166 0.440324 28.5166 0.983404L28.5166 16.3096L27.2452 15.0382C26.8593 14.6655 26.246 14.6708 25.8667 15.0501C25.4874 15.4295 25.4821 16.0428 25.8547 16.4286L28.8047 19.3786C29.1887 19.7625 29.8112 19.7625 30.1952 19.3786L33.1452 16.4286C33.5178 16.0428 33.5125 15.4295 33.1332 15.0501C32.7539 14.6708 32.1406 14.6655 31.7547 15.0382Z" fill="#001F86"/>
<path fill-rule="evenodd" clip-rule="evenodd" d="M22.9047 15.0382L21.6333 16.3096L21.6333 0.983404C21.6333 0.440325 21.193 7.21839e-05 20.6499 7.21364e-05C20.1068 7.2089e-05 19.6666 0.440324 19.6666 0.983404L19.6666 16.3096L18.3951 15.0382C18.0093 14.6655 17.396 14.6708 17.0167 15.0501C16.6374 15.4295 16.6321 16.0428 17.0047 16.4286L19.9547 19.3786C20.3387 19.7625 20.9611 19.7625 21.3451 19.3786L24.2951 16.4286C24.6678 16.0428 24.6625 15.4295 24.2832 15.0501C23.9039 14.6708 23.2905 14.6655 22.9047 15.0382Z" fill="#001F86"/>
</svg>
