<svg width="22" height="21" viewBox="0 0 22 21" fill="none" xmlns="http://www.w3.org/2000/svg">
<path d="M20.7062 9.29525C20.5995 7.95633 20.155 6.71161 19.4795 5.55158C18.998 4.72578 18.3926 4.0012 17.7011 3.34176C16.8911 2.57671 15.9561 1.95592 14.9366 1.50625C13.3411 0.789691 11.6575 0.618818 9.94973 0.833286C7.3716 1.15649 5.23945 2.35761 3.58133 4.35697C2.53605 5.61722 1.89516 7.07741 1.61354 8.69344C1.55892 9.00662 1.56343 9.32431 1.51984 9.6375V9.86249C1.55041 9.99825 1.55041 10.1391 1.51984 10.2749V11.25C1.56042 11.4575 1.54188 11.6699 1.57245 11.8784C1.74032 13.0379 2.1442 14.1158 2.72497 15.127C3.31161 16.1473 4.07673 17.054 4.98389 17.8038C6.07395 18.7193 7.3523 19.3835 8.72806 19.7491C9.21637 19.8748 9.71554 19.9539 10.2188 19.9851H11.1934C11.3292 19.9545 11.4701 19.9545 11.6058 19.9851H11.7932C11.8058 19.9759 11.8201 19.9695 11.8353 19.9662C11.8505 19.9629 11.8662 19.9629 11.8814 19.966C12.4923 19.9715 13.0876 19.8623 13.6723 19.702C15.2737 19.2715 16.7314 18.4219 17.8951 17.2406C18.9669 16.1602 19.7301 14.899 20.2367 13.4699C20.7182 12.1129 20.8189 10.7113 20.7062 9.29525ZM16.5862 16.8658C15.4622 17.8389 14.0887 18.4786 12.6206 18.7128C10.7009 19.0335 8.85133 18.7945 7.13809 17.8659C4.81703 16.6092 3.34933 14.682 2.8347 12.0763C2.42381 9.99929 2.72146 8.01746 3.76123 6.16342C4.01473 5.7173 4.31219 5.29763 4.64916 4.91068C4.72884 4.81698 4.76792 4.827 4.8496 4.90768C6.02216 6.08525 7.19739 7.26031 8.37529 8.43287C8.44795 8.50553 8.46248 8.54361 8.37229 8.61477C8.13228 8.80552 7.92113 9.02999 7.74542 9.28122C7.67176 9.38595 7.60361 9.38645 7.49487 9.34135C7.03664 9.16139 6.66306 8.81536 6.44859 8.37224C6.39247 8.25849 6.34386 8.25398 6.24314 8.29757C5.98608 8.40932 5.72852 8.52056 5.46544 8.61527C5.34418 8.65936 5.35821 8.70847 5.40181 8.80067C5.71916 9.48799 6.27781 10.0349 6.97173 10.3375C7.0935 10.3921 7.13158 10.4337 7.07846 10.5665C7.0213 10.7114 6.9829 10.8629 6.96421 11.0175C6.94918 11.1383 6.89406 11.1548 6.79234 11.1528C6.51123 11.1478 6.23011 11.1528 5.949 11.1528C5.66789 11.1528 5.3978 11.1588 5.1242 11.1498C4.99742 11.1458 4.96736 11.1894 4.97087 11.3096C4.97938 11.5842 4.97988 11.8608 4.97087 12.1339C4.96686 12.2522 5.00494 12.2813 5.12119 12.2798C5.65185 12.2743 6.18301 12.2798 6.71417 12.2743C6.85347 12.2743 6.92964 12.2888 6.93515 12.4561C6.94407 12.6058 6.97532 12.7532 7.02785 12.8936C7.07445 13.0279 7.02785 13.071 6.9106 13.1251C6.24698 13.4319 5.71412 13.9648 5.40732 14.6284C5.35721 14.7331 5.36222 14.7787 5.48198 14.8228C5.74505 14.9185 6.00312 15.0288 6.26018 15.141C6.3604 15.1846 6.40149 15.1686 6.45109 15.0653C6.64832 14.657 6.98034 14.3293 7.39115 14.1373C7.49136 14.0872 7.54498 14.0917 7.61563 14.1954C9.18606 16.5005 12.5043 16.7009 14.3203 14.5998C14.3969 14.5116 14.4365 14.4891 14.5317 14.5853C15.2162 15.2795 15.9054 15.9686 16.5992 16.6528C16.6894 16.746 16.6739 16.7866 16.5862 16.8658ZM12.6175 7.86012C11.6528 7.51012 10.5958 7.51012 9.63103 7.86012C9.59896 7.49883 9.62502 7.15859 9.82345 6.85342C10.0079 6.5688 10.2644 6.39943 10.6122 6.39592C10.9484 6.39242 11.2856 6.3864 11.6219 6.39592C12.1636 6.41246 12.5709 6.8434 12.616 7.4397C12.6241 7.57399 12.615 7.71129 12.615 7.86012H12.6175ZM13.1417 9.48166C14.0782 10.304 14.4019 11.3457 14.1579 12.5428L10.4137 8.79967C11.4094 8.57117 12.3429 8.78263 13.1392 9.48166H13.1417ZM13.5055 13.5611C13.6057 13.6588 13.6057 13.7114 13.518 13.8166C13.2268 14.1648 12.8634 14.4455 12.4529 14.6392C12.0424 14.8329 11.5947 14.9351 11.1408 14.9386C9.79439 14.9466 8.6534 14.1368 8.19841 12.857C7.75494 11.6043 8.13727 10.2358 9.14748 9.42503C9.2477 9.34386 9.29781 9.35237 9.38399 9.44057C10.7533 10.8172 12.1263 12.1907 13.503 13.5611H13.5055ZM18.4818 14.6078C18.2288 15.0529 17.9316 15.4714 17.5949 15.8571C17.5207 15.9433 17.4827 15.9573 17.3945 15.8681C16.6338 15.0997 15.8695 14.3356 15.1015 13.5756C15.0298 13.5049 15.0288 13.4483 15.0639 13.3661C15.1896 13.0795 15.2705 12.7753 15.3039 12.4642C15.3214 12.2893 15.3916 12.2712 15.5374 12.2732C16.0555 12.2808 16.5747 12.2732 17.0908 12.2798C17.2296 12.2823 17.2742 12.2497 17.2672 12.1059C17.2529 11.85 17.2529 11.5936 17.2672 11.3377C17.2767 11.1728 17.2171 11.1458 17.0668 11.1483C16.5356 11.1573 16.0044 11.1483 15.4738 11.1543C15.3495 11.1543 15.2819 11.1388 15.2668 10.9915C15.2474 10.8367 15.2081 10.6852 15.1501 10.5405C15.1085 10.4307 15.1385 10.3931 15.2378 10.3496C15.9391 10.0487 16.5059 9.50124 16.8307 8.81069C16.8909 8.68742 16.8678 8.64684 16.7476 8.60324C16.502 8.51455 16.258 8.41834 16.0205 8.3096C15.8972 8.25348 15.8396 8.25949 15.7739 8.39328C15.5499 8.84928 15.1887 9.16096 14.7176 9.35037C14.6174 9.38996 14.5623 9.37693 14.4997 9.28924C14.3154 9.02957 14.0962 8.79654 13.8482 8.59673C13.8119 8.56922 13.783 8.53311 13.7641 8.49165C13.7452 8.45018 13.7369 8.40467 13.74 8.35921C13.734 7.93478 13.7806 7.50735 13.6989 7.08743C13.6149 6.61705 13.3847 6.18516 13.041 5.85324C12.9663 5.78158 12.9568 5.744 13.0375 5.66834C13.2379 5.48093 13.4263 5.27999 13.6237 5.08907C13.6859 5.02944 13.6909 4.99236 13.6237 4.92922C13.4078 4.72127 13.1948 4.51031 12.9884 4.29283C12.9122 4.21316 12.8721 4.24273 12.8115 4.30486C12.5223 4.5985 12.2287 4.88813 11.9386 5.18127C11.9133 5.21193 11.8814 5.23647 11.8453 5.25304C11.8092 5.26962 11.7698 5.2778 11.7301 5.27698C11.3182 5.26997 10.9061 5.26997 10.4939 5.27698C10.4571 5.27701 10.4209 5.26868 10.3878 5.25262C10.3547 5.23656 10.3257 5.21319 10.303 5.18428C10.0164 4.89665 9.72624 4.61203 9.44362 4.3209C9.36445 4.23972 9.31635 4.21466 9.22615 4.31288C9.03623 4.51933 8.8363 4.71776 8.63035 4.90918C8.54266 4.99036 8.55268 5.03395 8.63336 5.10962C8.82477 5.28901 9.00366 5.48143 9.19358 5.66082C9.26273 5.72696 9.28778 5.76455 9.2021 5.84572C8.87087 6.1579 8.66643 6.54725 8.55067 7.01077C8.50057 6.96416 8.46198 6.93259 8.42741 6.89802C7.50406 5.97501 6.57988 5.05266 5.65486 4.13098C5.55464 4.03076 5.55464 3.98516 5.66237 3.89146C6.79019 2.92194 8.16651 2.28689 9.63604 2.05796C11.6785 1.72273 13.6257 2.01687 15.4096 3.07768C17.5643 4.35798 18.9263 6.23457 19.4069 8.71098C19.8087 10.7835 19.5126 12.7563 18.4793 14.6078H18.4818Z" fill="#040F47"/>
<path d="M1.51984 9.86304C1.59149 10.0003 1.56995 10.1376 1.51984 10.2754V9.86304Z" fill="#040F47"/>
<path d="M11.1934 19.9851C11.3307 19.935 11.4685 19.9144 11.6058 19.9851H11.1934Z" fill="#040F47"/>
</svg>
