<svg width="36" height="40" viewBox="0 0 36 40" fill="none" xmlns="http://www.w3.org/2000/svg">
<path d="M23.06 1.45792C22.8284 1.62501 22.548 1.71232 22.2616 1.70652C15.8858 1.69248 9.50855 1.69248 3.12988 1.70652C2.73839 1.69667 2.34761 1.74496 1.97051 1.84978C0.717707 2.23744 0 3.32877 0 4.77404V32.6978C0 32.8537 0 33.0138 0 33.1655C0.0521133 33.8886 0.382164 34.5642 0.921965 35.0527C1.46177 35.5412 2.17007 35.8054 2.90055 35.7906C3.58429 35.7906 4.26377 35.7906 4.9475 35.7906C5.07066 35.7906 5.19807 35.7906 5.37218 35.7906C5.37218 36.2119 5.37218 36.6333 5.37218 37.0041C5.35363 37.4029 5.41978 37.8011 5.56633 38.1729C5.71288 38.5447 5.93656 38.8818 6.22287 39.1623C6.50918 39.4428 6.85172 39.6604 7.22827 39.8011C7.60482 39.9418 8.00697 40.0024 8.40863 39.9789H28.6361C29.0448 40.005 29.4544 39.9442 29.8376 39.8007C30.2207 39.6572 30.5686 39.4342 30.858 39.1466C31.1474 38.8591 31.3717 38.5136 31.5158 38.1333C31.6599 37.7529 31.7206 37.3464 31.6938 36.9409C31.6938 33.4773 31.6938 30.0137 31.6938 26.5501C31.6975 26.3691 31.6731 26.1886 31.6216 26.015C31.56 25.8566 31.4471 25.7229 31.3007 25.635C31.1544 25.5471 30.9827 25.5098 30.8127 25.5291C30.6427 25.5484 30.4839 25.6231 30.3613 25.7415C30.2387 25.8599 30.1592 26.0154 30.1352 26.1835C30.1246 26.3392 30.1246 26.4955 30.1352 26.6512C30.1352 30.0474 30.1352 33.445 30.1352 36.844C30.1352 37.948 29.6638 38.4157 28.5596 38.4157H8.49357C8.37466 38.4157 8.25575 38.4157 8.13684 38.4157C7.87452 38.4056 7.62269 38.3108 7.41958 38.1458C7.21647 37.9807 7.07318 37.7545 7.01144 37.5013C6.97732 36.9274 6.97732 36.3519 7.01144 35.7779H7.47434C12.7234 35.7779 17.9724 35.7779 23.2214 35.7779C23.6001 35.7833 23.9776 35.7351 24.3426 35.6347C25.6166 35.2512 26.3301 34.1683 26.3301 32.7273V16.2941C27.5943 16.4902 28.8863 16.414 30.1182 16.0708V16.5343C30.1182 17.4444 30.1182 18.3546 30.1182 19.2647C30.1146 19.4561 30.1862 19.6413 30.3177 19.7812C30.4493 19.9212 30.6305 20.0049 30.8232 20.0147C31.0231 20.0398 31.2248 19.9851 31.3841 19.8626C31.5434 19.7401 31.6471 19.56 31.6725 19.3616C31.6853 19.2327 31.6853 19.1029 31.6725 18.974C31.6725 17.9079 31.6725 16.8377 31.6725 15.7716C31.6632 15.659 31.6882 15.5461 31.7442 15.4477C31.8002 15.3493 31.8847 15.2699 31.9868 15.2196C34.9595 13.3109 36.3652 10.5846 35.8938 7.12104C35.4224 3.65743 33.3415 1.35258 29.9313 0.303381C29.5067 0.164332 29.0183 0.101127 28.5596 0H26.9076C26.8381 0.0300877 26.7655 0.0526895 26.691 0.0674181C25.3835 0.22629 24.1361 0.704014 23.06 1.45792ZM24.7588 32.5756C24.7588 32.7188 24.7588 32.8621 24.7588 32.9969C24.7533 33.1633 24.7147 33.327 24.6453 33.4786C24.5759 33.6302 24.477 33.7667 24.3543 33.8802C24.2316 33.9937 24.0874 34.0821 23.9302 34.1402C23.773 34.1984 23.6057 34.2251 23.438 34.2189H2.91754C2.74495 34.2275 2.57241 34.2011 2.4104 34.1414C2.2484 34.0818 2.10033 33.99 1.97519 33.8718C1.85006 33.7535 1.75047 33.6112 1.6825 33.4536C1.61453 33.296 1.57959 33.1263 1.5798 32.9548C1.5798 32.8537 1.5798 32.7483 1.5798 32.643C1.5798 23.373 1.5798 14.0918 1.5798 4.79933C1.57485 4.55894 1.60488 4.3191 1.66899 4.08722C1.84735 3.54366 2.33998 3.2445 3.0407 3.2445H21.1363C20.1367 4.58149 19.5603 6.18305 19.48 7.84578H6.41265C5.49959 7.84578 5.27875 8.0691 5.27875 8.97925C5.27875 9.88939 5.27875 10.8037 5.27875 11.7139C5.27875 12.426 5.56754 12.7125 6.281 12.7125H20.0576C20.2967 12.7035 20.535 12.6795 20.771 12.6409C21.5521 13.8906 22.6802 14.8899 24.0198 15.5188C24.2698 15.5997 24.4827 15.7662 24.6204 15.9885C24.7581 16.2108 24.8117 16.4745 24.7715 16.7323C24.7418 22.0162 24.7715 27.3043 24.7715 32.5882M19.4503 11.1451H6.87979V9.4596H19.4503V11.1451ZM27.723 1.56326C29.0488 1.55742 30.3466 1.94217 31.4518 2.66876C32.5571 3.39535 33.4201 4.43109 33.9316 5.64476C34.443 6.85843 34.5799 8.19541 34.3248 9.48633C34.0698 10.7773 33.4343 11.964 32.4989 12.8963C31.5635 13.8285 30.3702 14.4643 29.0703 14.7231C27.7703 14.9819 26.4222 14.8521 25.1968 14.35C23.9713 13.8479 22.9236 12.9963 22.1863 11.9029C21.4491 10.8095 21.0556 9.52364 21.0556 8.20815C21.0589 6.45193 21.7615 4.76815 23.0103 3.52355C24.2591 2.27896 25.953 1.57437 27.723 1.56326Z" fill="white"/>
<path d="M30.9166 22.0035C30.8146 21.9995 30.7129 22.016 30.6175 22.0519C30.5221 22.0877 30.435 22.1423 30.3613 22.2123C30.2876 22.2822 30.2288 22.3662 30.1885 22.4592C30.1482 22.5522 30.1272 22.6523 30.1267 22.7535C30.1221 22.8546 30.1378 22.9556 30.1727 23.0506C30.2077 23.1457 30.2612 23.2329 30.3303 23.3073C30.3994 23.3817 30.4826 23.4419 30.5752 23.4842C30.6678 23.5266 30.768 23.5503 30.8699 23.5541C30.9749 23.5575 31.0795 23.5402 31.1777 23.5031C31.2759 23.4661 31.3657 23.4101 31.4419 23.3384C31.5182 23.2666 31.5793 23.1806 31.6218 23.0853C31.6643 22.99 31.6873 22.8872 31.6895 22.783C31.6884 22.5792 31.6069 22.3839 31.4624 22.239C31.318 22.094 31.122 22.011 30.9166 22.0077" fill="white"/>
<path d="M20.4228 22.8799C20.2557 22.8539 20.0866 22.8426 19.9175 22.8462H6.41692C6.23332 22.8412 6.04971 22.8553 5.86908 22.8883C5.701 22.9325 5.55285 23.0317 5.44856 23.1697C5.34428 23.3078 5.28996 23.4767 5.29438 23.6491C5.2988 23.8216 5.3617 23.9875 5.47292 24.1202C5.58414 24.2528 5.73718 24.3443 5.9073 24.38C6.06171 24.4046 6.21814 24.4145 6.37445 24.4095H19.9132C20.0702 24.42 20.2276 24.42 20.3846 24.4095C20.5634 24.3817 20.7267 24.2927 20.8461 24.1577C20.9655 24.0228 21.0334 23.8505 21.038 23.671C21.0425 23.4915 20.9834 23.3161 20.871 23.1754C20.7586 23.0347 20.6 22.9376 20.4228 22.901" fill="white"/>
<path d="M5.88602 16.9685C6.04146 16.9966 6.19951 17.0079 6.35741 17.0022H19.9599C20.1164 17.0081 20.273 16.9968 20.427 16.9685C20.6042 16.9315 20.7626 16.8339 20.8747 16.6929C20.9867 16.5518 21.0454 16.3762 21.0403 16.1967C21.0353 16.0171 20.9668 15.8451 20.847 15.7104C20.7272 15.5758 20.5635 15.4872 20.3845 15.46C20.2276 15.4495 20.0701 15.4495 19.9132 15.46H6.43385C6.2769 15.4495 6.11941 15.4495 5.96246 15.46C5.78219 15.4824 5.61564 15.5671 5.49203 15.6992C5.36843 15.8313 5.29568 16.0024 5.28656 16.1825C5.27744 16.3625 5.33252 16.54 5.44215 16.6837C5.55177 16.8275 5.70892 16.9283 5.88602 16.9685Z" fill="white"/>
<path d="M20.1298 26.5458H10.8803C9.29199 26.5458 7.70369 26.5458 6.11539 26.5458C6.00876 26.5371 5.90147 26.5502 5.8001 26.5841C5.69873 26.6181 5.60542 26.6723 5.5259 26.7433C5.44637 26.8143 5.3823 26.9007 5.33762 26.9971C5.29293 27.0936 5.26857 27.1981 5.26604 27.3042C5.26491 27.4087 5.28476 27.5125 5.32443 27.6093C5.3641 27.7062 5.4228 27.7942 5.4971 27.8683C5.57141 27.9424 5.65984 28.0012 5.75724 28.041C5.85464 28.0809 5.95907 28.1011 6.06443 28.1006C6.15361 28.1006 6.24704 28.1006 6.34047 28.1006H19.9599C20.0913 28.1112 20.2234 28.1112 20.3549 28.1006C20.4821 28.0817 20.6028 28.0321 20.7062 27.9562C20.8097 27.8802 20.8927 27.7802 20.9481 27.665C21.0034 27.5497 21.0294 27.4227 21.0237 27.2951C21.018 27.1676 20.9808 27.0434 20.9154 26.9334C20.8325 26.804 20.7154 26.6994 20.577 26.6311C20.4385 26.5628 20.2839 26.5333 20.1298 26.5458Z" fill="white"/>
<path d="M20.3251 19.151C20.2077 19.1446 20.09 19.1446 19.9726 19.151H6.37016C6.24007 19.1426 6.10955 19.1426 5.97946 19.151C5.7874 19.1755 5.61135 19.2699 5.48546 19.4159C5.35957 19.5619 5.29279 19.7491 5.29808 19.9411C5.30337 20.1332 5.38035 20.3165 5.51409 20.4554C5.64783 20.5944 5.8288 20.6791 6.02193 20.6932C6.13933 20.6996 6.257 20.6996 6.37441 20.6932H19.9641C20.083 20.6932 20.2019 20.6932 20.3209 20.6932C20.5281 20.6977 20.7286 20.6203 20.8784 20.478C21.0281 20.3358 21.1147 20.1404 21.1192 19.9347C21.1238 19.7291 21.0457 19.5301 20.9024 19.3816C20.759 19.233 20.5621 19.147 20.3548 19.1426" fill="white"/>
<path d="M26.9671 9.84295C26.9671 10.6857 26.9671 11.5284 26.9671 12.3711C26.9669 12.5751 27.0164 12.776 27.1115 12.9568C27.1973 13.0955 27.3284 13.2008 27.4829 13.2552C27.6374 13.3096 27.8061 13.3099 27.9608 13.256C28.138 13.2015 28.2907 13.0877 28.3929 12.934C28.4951 12.7804 28.5405 12.5964 28.5214 12.4133C28.5214 10.711 28.5214 9.00865 28.5214 7.30635C28.5214 6.74172 28.1901 6.39199 27.7102 6.40463C27.2304 6.41727 26.9543 6.74593 26.9501 7.30213C26.9501 8.14486 26.9501 8.98758 26.9501 9.83031" fill="white"/>
<path d="M27.7485 5.45259C27.9547 5.44823 28.1511 5.36444 28.2961 5.21895C28.4412 5.07347 28.5235 4.8777 28.5257 4.67307C28.5257 4.46962 28.4451 4.27431 28.3013 4.12927C28.1575 3.98423 27.962 3.90108 27.757 3.89776C27.5538 3.89208 27.3567 3.96648 27.2086 4.10467C27.0606 4.24286 26.9737 4.43359 26.9671 4.63515C26.9637 4.73927 26.9813 4.84301 27.019 4.94025C27.0567 5.03748 27.1137 5.12624 27.1865 5.20126C27.2594 5.27629 27.3466 5.33607 27.4432 5.37706C27.5397 5.41806 27.6435 5.43944 27.7485 5.43995" fill="white"/>
</svg>
