<svg width="44" height="52" viewBox="0 0 44 52" fill="none" xmlns="http://www.w3.org/2000/svg">
<path d="M39 32C39 42.4934 30.4934 51 20 51C9.50659 51 1 42.4934 1 32C1 21.5066 9.50659 13 20 13C30.4934 13 39 21.5066 39 32Z" fill="#A4C2F7" stroke="#001F86" stroke-width="2"/>
<path d="M23.6549 31.2998L17.6474 29.1972C17.0466 28.9969 16.9214 28.9468 16.9214 28.0707C16.9214 27.4199 17.372 26.8943 17.9477 26.8943H21.7024C22.5034 26.8943 23.1542 27.6202 23.1542 28.5213C23.1542 29.5476 24.0053 30.3987 25.0316 30.3987C26.0579 30.3987 26.9089 29.5476 26.9089 28.5213C26.9089 25.6427 24.6811 23.2898 21.9027 23.1646V23.0395C21.9027 22.0132 21.0516 21.1621 20.0253 21.1621C18.999 21.1621 18.148 21.9881 18.148 23.0395V23.1646H17.9227C15.2944 23.1646 13.1417 25.3674 13.1417 28.0958C13.1417 30.4737 14.193 32.0007 16.3708 32.7516L22.4033 34.8542C23.004 35.0545 23.1292 35.1045 23.1292 35.9806C23.1292 36.6314 22.6786 37.1571 22.1029 37.1571H18.3482C17.5472 37.1571 16.8964 36.4312 16.8964 35.5301C16.8964 34.5038 16.0454 33.6527 15.0191 33.6527C13.9928 33.6527 13.1417 34.5038 13.1417 35.5301C13.1417 38.4087 15.3695 40.7616 18.148 40.8868V41.037C18.148 42.0632 18.999 42.9143 20.0253 42.9143C21.0516 42.9143 21.9027 42.0632 21.9027 41.037V40.9118H22.128C24.7562 40.9118 26.9089 38.709 26.9089 35.9806C26.9089 33.6027 25.8326 32.0758 23.6549 31.2998Z" fill="white"/>
<path d="M28.0851 2.95212L27.0979 2.70533C26.6827 2.60149 26.3036 2.38679 26.0009 2.08417C25.6983 1.78154 25.4836 1.40238 25.3798 0.98719L25.133 0H23.9521L23.7041 0.98719C23.6004 1.40223 23.3859 1.7813 23.0835 2.08391C22.7811 2.38652 22.4022 2.6013 21.9872 2.70533L21 2.95212V4.13297L21.9872 4.37977C22.4024 4.48361 22.7815 4.69831 23.0842 5.00093C23.3868 5.30356 23.6015 5.68272 23.7053 6.09791L23.9521 7.0851H25.133L25.3798 6.09791C25.4836 5.68272 25.6983 5.30356 26.0009 5.00093C26.3036 4.69831 26.6827 4.48361 27.0979 4.37977L28.0851 4.13297V2.95212Z" fill="#153388"/>
<path d="M43.5661 12.9333L42.5789 12.6865C42.1637 12.5826 41.7845 12.3679 41.4819 12.0653C41.1793 11.7627 40.9646 11.3835 40.8607 10.9683L40.6139 9.98114H39.4331L39.1863 10.9683C39.0824 11.3835 38.8677 11.7627 38.5651 12.0653C38.2625 12.3679 37.8833 12.5826 37.4681 12.6865L36.481 12.9333V14.1141L37.4681 14.3609C37.8833 14.4648 38.2625 14.6795 38.5651 14.9821C38.8677 15.2847 39.0824 15.6639 39.1863 16.0791L39.4331 17.0662H40.6139L40.8607 16.0791C40.9646 15.6639 41.1793 15.2847 41.4819 14.9821C41.7845 14.6795 42.1637 14.4648 42.5789 14.3609L43.5661 14.1141V12.9333Z" fill="#153388"/>
</svg>
