<svg width="37" height="35" viewBox="0 0 37 35" fill="none" xmlns="http://www.w3.org/2000/svg">
<path d="M3.50085 20.9719C3.6285 20.6882 3.72936 20.3935 3.97363 20.173C4.28101 19.8919 4.6853 19.7414 5.10119 19.7535H9.49325C10.2734 19.7541 11.0341 19.9976 11.6704 20.4504C13.2085 21.5039 14.7521 22.5516 16.3012 23.5936C17.9795 24.725 19.9258 24.2209 20.8532 22.4202C21.456 21.2532 22.6237 20.896 23.7875 21.5107C24.3604 21.8134 24.9435 22.097 25.6148 22.0994C26.4619 22.0994 27.1702 21.7833 27.7021 21.1267C28.4696 20.1786 29.4498 19.7314 30.6577 19.7519C31.1305 19.7606 31.6033 19.7519 32.0721 19.7519C33.0704 19.7645 33.6866 20.384 33.6866 21.382C33.6866 24.0036 33.6866 26.6248 33.6866 29.2454C33.6866 30.2062 33.0602 30.8462 32.1107 30.8462C23.1002 30.8462 14.0912 30.8462 5.08386 30.8462C4.36682 30.8462 3.87435 30.5136 3.59699 29.8522C3.5765 29.8033 3.58359 29.7298 3.50637 29.7156L3.50085 20.9719Z" fill="#001F86"/>
<path d="M9.18127 2.10254C10.048 2.1302 10.6532 2.55055 11.0424 3.32252C11.9832 5.18883 12.9288 7.05303 13.8791 8.91512C14.4361 10.0087 15.0082 11.0943 15.5621 12.1887C15.7394 12.5387 16.0018 12.7718 16.3745 12.8563C19.0536 13.4624 21.4324 14.7305 23.7553 16.137C24.7205 16.7209 25.7039 17.2756 26.629 17.9235C27.2412 18.3525 27.4697 18.9507 27.3176 19.6752C27.1656 20.3998 26.7267 20.8818 25.9923 21.0604C25.6251 21.1488 25.2729 21.0801 24.9317 20.9308C23.838 20.4504 22.7861 19.8799 21.6861 19.4105C20.3797 18.8574 19.0859 18.2712 17.785 17.6991L17.6502 17.6406C17.4383 17.5513 17.2499 17.5948 17.1404 17.7923C17.0309 17.9899 17.1908 18.1084 17.3295 18.2008C17.9039 18.5959 18.4776 18.991 19.063 19.3734C19.5066 19.6642 19.8376 20.0371 20.003 20.5452C20.1351 20.9402 20.1412 21.3667 20.0206 21.7654C19.9001 22.1641 19.6587 22.5153 19.3301 22.7702C18.6352 23.302 17.7314 23.3336 16.9663 22.8232C15.6756 21.9635 14.3936 21.0896 13.11 20.2157C12.6632 19.9123 12.2078 19.6215 11.7863 19.2825C11.0771 18.7128 10.6611 17.9733 10.6532 17.0701C10.6437 16.043 10.2687 15.1793 9.71945 14.356C8.69511 12.816 7.51317 11.3922 6.42737 9.8941C5.75446 8.96174 5.08312 8.0278 4.42912 7.08121C3.65377 5.9679 3.96422 4.67998 5.14931 4.02969C6.15395 3.4766 7.16253 2.9235 8.16875 2.37593C8.47599 2.19608 8.82552 2.10171 9.18127 2.10254Z" fill="#001F86"/>
<path d="M18.5642 29.8443H5.24777C4.64341 29.8443 4.50946 29.7092 4.50946 29.0969V21.4728C4.50946 20.9197 4.65917 20.7696 5.20522 20.7688C6.61015 20.7688 8.01507 20.7751 9.41921 20.7688C10.0308 20.7611 10.6291 20.9478 11.1283 21.3021C12.6811 22.3694 14.2404 23.4276 15.8064 24.4769C17.9055 25.8889 20.5554 25.2007 21.7223 22.9472C22.1124 22.1942 22.6119 22.0457 23.366 22.4368C24.1201 22.8279 24.912 23.1574 25.8008 23.1131C26.8795 23.0594 27.7801 22.6296 28.4617 21.7968C29.0401 21.0856 29.7555 20.7427 30.664 20.7696C31.1368 20.783 31.6096 20.7696 32.0784 20.7696C32.5086 20.7743 32.6859 20.9537 32.6859 21.3835C32.6859 23.9942 32.6859 26.6048 32.6859 29.2154C32.6859 29.6737 32.5086 29.8475 32.0351 29.8475L18.5642 29.8443Z" fill="#A4C2F7"/>
<path d="M16.1034 17.9204C16.1121 18.4008 16.328 18.7595 16.7267 19.0265C17.3405 19.4327 17.9472 19.8491 18.5595 20.2584C18.8148 20.429 19.0062 20.6463 19.0646 20.9537C19.1433 21.3748 19.0441 21.7438 18.6761 21.9919C18.5181 22.1115 18.3266 22.1784 18.1287 22.1831C17.9308 22.1877 17.7364 22.13 17.573 22.018C17.1325 21.7415 16.7062 21.4396 16.2776 21.1489C15.2101 20.4261 14.1443 19.704 13.08 18.9823C12.861 18.8338 12.6482 18.6749 12.4379 18.5137C11.9296 18.1258 11.6499 17.6027 11.6499 16.969C11.6499 15.8518 11.2559 14.8767 10.6626 13.9665C9.67292 12.4486 8.52171 11.0517 7.45088 9.59466C6.70311 8.57696 5.96086 7.56163 5.25722 6.51865C4.82936 5.88654 4.96883 5.27576 5.63307 4.91071C6.61171 4.37289 7.5914 3.83665 8.57214 3.30199C9.24821 2.93221 9.80057 3.10525 10.1544 3.80215C11.646 6.74226 13.1257 9.68868 14.6457 12.6138C14.9751 13.2459 15.4526 13.6773 16.1428 13.8377C18.628 14.4153 20.8571 15.5689 23.0201 16.8789C24.0176 17.4834 25.0372 18.0539 26.0041 18.7097C26.3263 18.9286 26.4233 19.2067 26.3193 19.5488C26.1814 19.9976 25.774 20.1999 25.3485 20.0063C24.109 19.4445 22.898 18.8211 21.6451 18.2878C20.4632 17.7852 19.2962 17.2606 18.1229 16.7383C17.5493 16.4855 17.0127 16.5313 16.5336 16.954C16.3941 17.0723 16.283 17.2206 16.2085 17.3879C16.134 17.5552 16.0981 17.7372 16.1034 17.9204Z" fill="#E7EEFF"/>
<path d="M10.5491 23.8006C10.6154 23.8005 10.6811 23.8136 10.7422 23.8393C10.8034 23.865 10.8588 23.9027 10.9052 23.9502C10.9516 23.9977 10.988 24.054 11.0124 24.1158C11.0368 24.1777 11.0486 24.2438 11.0471 24.3102C11.041 24.4393 10.9872 24.5615 10.8961 24.6529C10.8051 24.7443 10.6833 24.7985 10.5546 24.8048C10.4209 24.8047 10.2926 24.7518 10.1974 24.6576C10.1022 24.5635 10.0477 24.4356 10.0456 24.3015C10.0444 24.2351 10.0567 24.1691 10.0816 24.1075C10.1065 24.0459 10.1436 23.99 10.1907 23.9432C10.2377 23.8964 10.2937 23.8596 10.3553 23.8351C10.4169 23.8106 10.4829 23.7989 10.5491 23.8006Z" fill="#001F86"/>
<path d="M22.6293 27.8303C22.697 27.8297 22.7642 27.8429 22.8267 27.8691C22.8892 27.8953 22.9458 27.9339 22.9931 27.9826C23.0403 28.0312 23.0772 28.089 23.1016 28.1524C23.126 28.2158 23.1373 28.2835 23.135 28.3514C23.1326 28.4193 23.1165 28.486 23.0877 28.5475C23.0589 28.609 23.018 28.664 22.9674 28.7092C22.9169 28.7544 22.8577 28.7889 22.7935 28.8106C22.7293 28.8323 22.6613 28.8407 22.5938 28.8353C22.4649 28.8251 22.3448 28.7654 22.2587 28.6686C22.1727 28.5718 22.1271 28.4454 22.1317 28.3158C22.1363 28.1862 22.1906 28.0633 22.2833 27.9729C22.376 27.8824 22.4999 27.8313 22.6293 27.8303Z" fill="#001F86"/>
<path d="M15.0649 28.3407C15.0653 28.4072 15.0522 28.4731 15.0265 28.5345C15.0007 28.5958 14.9628 28.6513 14.9151 28.6975C14.8674 28.7437 14.8108 28.7798 14.7488 28.8035C14.6868 28.8271 14.6206 28.838 14.5543 28.8353C14.4214 28.8334 14.2947 28.7787 14.2021 28.6831C14.1094 28.5875 14.0584 28.4589 14.0603 28.3257C14.0622 28.1924 14.1168 28.0653 14.2121 27.9724C14.3074 27.8795 14.4356 27.8284 14.5685 27.8303C14.6348 27.8301 14.7005 27.8433 14.7616 27.8691C14.8227 27.8949 14.878 27.9327 14.9243 27.9803C14.9706 28.0278 15.0069 28.0843 15.0311 28.1462C15.0552 28.2081 15.0667 28.2742 15.0649 28.3407Z" fill="#001F86"/>
<path d="M26.6329 24.8048C26.4992 24.7979 26.3735 24.739 26.2824 24.6406C26.1913 24.5422 26.1421 24.412 26.1452 24.2778C26.1479 24.2115 26.164 24.1464 26.1923 24.0864C26.2206 24.0264 26.2606 23.9728 26.31 23.9286C26.3594 23.8844 26.4171 23.8505 26.4797 23.8291C26.5423 23.8077 26.6086 23.799 26.6747 23.8037C26.8035 23.8083 26.9255 23.8636 27.014 23.9577C27.1025 24.0517 27.1504 24.177 27.1474 24.3063C27.1437 24.4403 27.0878 24.5676 26.9916 24.6608C26.8954 24.754 26.7666 24.8057 26.6329 24.8048Z" fill="#001F86"/>
<path d="M25.1358 26.3275C25.1299 26.4615 25.0721 26.588 24.9747 26.6801C24.8773 26.7721 24.748 26.8225 24.6142 26.8205C24.5479 26.8177 24.4829 26.8017 24.4228 26.7735C24.3628 26.7453 24.3089 26.7054 24.2644 26.6561C24.2198 26.6069 24.1854 26.5493 24.1632 26.4866C24.141 26.424 24.1315 26.3575 24.1351 26.2911C24.1402 26.1622 24.1954 26.0404 24.2889 25.9518C24.3824 25.8633 24.5068 25.8149 24.6354 25.817C24.7693 25.8183 24.8971 25.8727 24.9909 25.9684C25.0847 26.0641 25.1368 26.1933 25.1358 26.3275Z" fill="#001F86"/>
<path d="M12.5514 26.8213C12.4178 26.8167 12.2913 26.7601 12.1987 26.6635C12.1061 26.5668 12.0548 26.4377 12.0557 26.3037C12.0579 26.2373 12.0731 26.172 12.1006 26.1115C12.1281 26.051 12.1672 25.9966 12.2158 25.9514C12.2644 25.9062 12.3214 25.8711 12.3836 25.8482C12.4458 25.8253 12.5119 25.8149 12.5782 25.8178C12.707 25.8209 12.8295 25.8748 12.919 25.9678C13.0086 26.0609 13.0579 26.1855 13.0564 26.3148C13.0566 26.3814 13.0437 26.4473 13.0184 26.5089C12.9931 26.5704 12.9559 26.6263 12.909 26.6734C12.862 26.7205 12.8063 26.7578 12.7449 26.7831C12.6835 26.8085 12.6177 26.8215 12.5514 26.8213Z" fill="#001F86"/>
<path d="M29.1543 26.3211C29.1539 26.3876 29.1404 26.4534 29.1145 26.5146C29.0886 26.5758 29.0508 26.6313 29.0034 26.6778C28.956 26.7243 28.8999 26.7609 28.8383 26.7855C28.7767 26.8102 28.7108 26.8223 28.6445 26.8213C28.5107 26.8151 28.3846 26.757 28.2928 26.6592C28.2011 26.5614 28.1508 26.4317 28.1528 26.2974C28.1596 26.1684 28.2153 26.0468 28.3084 25.9576C28.4015 25.8683 28.5251 25.818 28.654 25.817C28.7202 25.8157 28.7861 25.8279 28.8475 25.8528C28.909 25.8777 28.9647 25.9148 29.0115 25.9619C29.0583 26.009 29.095 26.0651 29.1196 26.1268C29.1441 26.1886 29.1559 26.2547 29.1543 26.3211Z" fill="#001F86"/>
<path d="M7.02541 28.3288C7.02417 28.4632 6.97023 28.5917 6.87527 28.6864C6.78031 28.7812 6.65195 28.8347 6.51797 28.8353C6.38841 28.8318 6.26525 28.7781 6.17434 28.6855C6.08343 28.5928 6.03185 28.4685 6.03043 28.3385C6.029 28.2086 6.07784 28.0831 6.16668 27.9885C6.25553 27.8939 6.37748 27.8374 6.50693 27.8311C6.64082 27.8305 6.76968 27.8821 6.86639 27.975C6.9631 28.0678 7.0201 28.1947 7.02541 28.3288Z" fill="#001F86"/>
<path d="M11.0471 22.293C11.0412 22.4271 10.9833 22.5536 10.8857 22.6456C10.7881 22.7375 10.6586 22.7876 10.5247 22.7852C10.3911 22.7777 10.2659 22.7176 10.1762 22.618C10.0865 22.5185 10.0396 22.3875 10.0456 22.2535C10.0512 22.1245 10.1071 22.0029 10.2013 21.9149C10.2955 21.827 10.4204 21.7797 10.5491 21.7833C10.6154 21.7833 10.681 21.7966 10.7421 21.8223C10.8032 21.848 10.8585 21.8857 10.9049 21.9332C10.9513 21.9807 10.9878 22.0369 11.0122 22.0987C11.0366 22.1605 11.0485 22.2265 11.0471 22.293Z" fill="#001F86"/>
<path d="M9.03707 28.3241C9.03668 28.4582 8.98392 28.5868 8.8901 28.6824C8.79628 28.7779 8.66886 28.8328 8.53515 28.8353C8.40668 28.8375 8.28248 28.789 8.18923 28.7004C8.09598 28.6118 8.0411 28.49 8.03637 28.3612C8.03222 28.2949 8.0414 28.2283 8.06336 28.1656C8.08532 28.1028 8.11962 28.0451 8.16422 27.9959C8.20882 27.9467 8.26282 27.907 8.32301 27.8791C8.38321 27.8511 8.44838 27.8356 8.51466 27.8334C8.64816 27.8314 8.77724 27.8814 8.87469 27.973C8.97213 28.0645 9.03035 28.1904 9.03707 28.3241Z" fill="#001F86"/>
<path d="M21.1101 28.3478C21.1044 28.4819 21.0461 28.6083 20.948 28.6995C20.8499 28.7908 20.7199 28.8396 20.5861 28.8353C20.4559 28.828 20.3338 28.7701 20.2455 28.6739C20.1572 28.5777 20.1097 28.4508 20.1132 28.3201C20.1167 28.1895 20.1708 28.0653 20.2641 27.974C20.3574 27.8827 20.4825 27.8314 20.6129 27.8311C20.7467 27.8348 20.8738 27.891 20.9668 27.9876C21.0597 28.0842 21.1112 28.2135 21.1101 28.3478Z" fill="#001F86"/>
<path d="M16.5762 28.8353C16.5091 28.8358 16.4425 28.8227 16.3805 28.7969C16.3185 28.7711 16.2623 28.733 16.2153 28.685C16.1682 28.637 16.1313 28.58 16.1066 28.5174C16.082 28.4548 16.0701 28.3878 16.0717 28.3205C16.0734 28.2532 16.0885 28.187 16.1162 28.1256C16.1438 28.0643 16.1835 28.0092 16.2328 27.9635C16.2822 27.9179 16.3401 27.8826 16.4033 27.8598C16.4665 27.8371 16.5336 27.8273 16.6006 27.831C16.7293 27.8365 16.8509 27.8918 16.9399 27.9852C17.0289 28.0785 17.0784 28.2028 17.0781 28.332C17.0794 28.3984 17.0673 28.4645 17.0425 28.5261C17.0178 28.5878 16.9808 28.6438 16.934 28.6908C16.8871 28.7378 16.8313 28.7748 16.7698 28.7996C16.7083 28.8245 16.6425 28.8366 16.5762 28.8353Z" fill="#001F86"/>
<path d="M12.5498 23.8006C12.616 23.7985 12.6819 23.81 12.7436 23.8342C12.8053 23.8585 12.8614 23.895 12.9086 23.9416C12.9558 23.9882 12.9931 24.0439 13.0183 24.1054C13.0434 24.1668 13.0558 24.2327 13.0548 24.2992C13.0536 24.4334 12.9998 24.5617 12.905 24.6565C12.8102 24.7512 12.682 24.8048 12.5482 24.8056C12.4199 24.799 12.2985 24.7449 12.2076 24.6539C12.1167 24.5628 12.0626 24.4413 12.0557 24.3126C12.0539 24.2463 12.0654 24.1802 12.0894 24.1184C12.1134 24.0566 12.1494 24.0001 12.1954 23.9525C12.2414 23.9048 12.2965 23.8668 12.3573 23.8407C12.4182 23.8146 12.4836 23.801 12.5498 23.8006Z" fill="#001F86"/>
<path d="M31.1644 28.3257C31.1666 28.3922 31.1554 28.4584 31.1315 28.5204C31.1075 28.5824 31.0713 28.639 31.025 28.6866C30.9787 28.7342 30.9233 28.7719 30.8621 28.7975C30.8008 28.823 30.7351 28.8359 30.6688 28.8354C30.5349 28.8343 30.4069 28.7806 30.3122 28.6856C30.2176 28.5907 30.1639 28.4623 30.1629 28.3281C30.168 28.1989 30.221 28.0763 30.3115 27.9842C30.402 27.8922 30.5235 27.8373 30.6522 27.8303C30.7185 27.8283 30.7845 27.8396 30.8464 27.8636C30.9082 27.8875 30.9647 27.9237 31.0124 27.9698C31.0601 28.016 31.0981 28.0712 31.1242 28.1324C31.1504 28.1935 31.164 28.2592 31.1644 28.3257Z" fill="#001F86"/>
<path d="M24.6315 23.8006C24.6978 23.8 24.7635 23.8127 24.8248 23.8379C24.8861 23.8631 24.9418 23.9003 24.9887 23.9473C25.0355 23.9943 25.0726 24.0501 25.0977 24.1116C25.1228 24.1731 25.1355 24.239 25.135 24.3055C25.1297 24.4346 25.0769 24.5572 24.9866 24.6495C24.8963 24.7417 24.7751 24.7971 24.6465 24.8048C24.5127 24.8061 24.3839 24.7545 24.2879 24.6612C24.1919 24.5678 24.1364 24.4403 24.1335 24.3063C24.1313 24.2398 24.1427 24.1736 24.1669 24.1117C24.1911 24.0498 24.2276 23.9935 24.2742 23.9461C24.3208 23.8988 24.3765 23.8615 24.4379 23.8365C24.4993 23.8115 24.5652 23.7993 24.6315 23.8006Z" fill="#001F86"/>
<path d="M29.1543 28.3486C29.1534 28.4151 29.139 28.4806 29.1122 28.5414C29.0854 28.6021 29.0466 28.6568 28.9982 28.7022C28.9498 28.7476 28.8927 28.7827 28.8305 28.8054C28.7682 28.8282 28.702 28.8381 28.6358 28.8345C28.5031 28.8308 28.3774 28.7743 28.2862 28.6775C28.195 28.5808 28.1459 28.4517 28.1497 28.3186C28.1534 28.1855 28.2098 28.0594 28.3063 27.968C28.4027 27.8765 28.5315 27.8273 28.6642 27.8311C28.7305 27.832 28.796 27.8462 28.8568 27.8728C28.9175 27.8995 28.9723 27.9381 29.018 27.9863C29.0637 28.0345 29.0993 28.0914 29.1227 28.1536C29.1461 28.2159 29.1568 28.2822 29.1543 28.3486Z" fill="#001F86"/>
<path d="M22.6143 26.8213C22.548 26.8202 22.4826 26.8058 22.422 26.779C22.3613 26.7522 22.3066 26.7136 22.261 26.6653C22.2154 26.617 22.1799 26.5601 22.1565 26.4979C22.1332 26.4357 22.1225 26.3694 22.125 26.303C22.1253 26.2365 22.1391 26.1708 22.1656 26.1099C22.1922 26.049 22.2308 25.9941 22.2792 25.9487C22.3276 25.9033 22.3847 25.8682 22.4471 25.8457C22.5094 25.8232 22.5757 25.8137 22.6419 25.8178C22.7705 25.8238 22.8919 25.8785 22.9818 25.971C23.0716 26.0634 23.123 26.1866 23.1257 26.3156C23.122 26.4498 23.0668 26.5774 22.9715 26.6716C22.8761 26.7659 22.7482 26.8195 22.6143 26.8213Z" fill="#001F86"/>
<path d="M14.0658 26.276C14.079 26.1423 14.1444 26.0192 14.2477 25.9337C14.351 25.8481 14.4839 25.807 14.6174 25.8193C14.6835 25.8248 14.7478 25.8436 14.8064 25.8747C14.865 25.9058 14.9167 25.9485 14.9584 26.0002C15.0001 26.0519 15.0309 26.1115 15.049 26.1755C15.067 26.2395 15.0719 26.3065 15.0634 26.3724C15.0504 26.501 14.9882 26.6195 14.8899 26.7031C14.7916 26.7866 14.6648 26.8287 14.5362 26.8205C14.4026 26.8088 14.2789 26.7454 14.1911 26.6438C14.1033 26.5422 14.0583 26.4103 14.0658 26.276Z" fill="#001F86"/>
<path d="M6.52429 23.8014C6.59055 23.8018 6.65607 23.8153 6.7171 23.8412C6.77814 23.867 6.83348 23.9047 6.87996 23.952C6.92645 23.9994 6.96315 24.0555 6.98798 24.1171C7.01281 24.1787 7.02527 24.2446 7.02464 24.311C7.01698 24.4449 6.95835 24.5708 6.86086 24.6627C6.76337 24.7546 6.63444 24.8055 6.50065 24.8048C6.37265 24.7974 6.25235 24.7411 6.16444 24.6475C6.07652 24.5539 6.02766 24.4301 6.02788 24.3015C6.02559 24.2354 6.03684 24.1696 6.06095 24.108C6.08505 24.0464 6.12149 23.9905 6.16802 23.9436C6.21455 23.8967 6.27017 23.8599 6.33145 23.8354C6.39273 23.811 6.45836 23.7994 6.52429 23.8014Z" fill="#001F86"/>
<path d="M9.03625 24.307C9.03035 24.4413 8.97294 24.568 8.87603 24.6608C8.77911 24.7536 8.65018 24.8052 8.5162 24.8048C8.38248 24.7981 8.25686 24.7385 8.1668 24.6392C8.07673 24.5398 8.02954 24.4088 8.03554 24.2746C8.03697 24.2107 8.05101 24.1476 8.07685 24.0891C8.1027 24.0305 8.13983 23.9777 8.18612 23.9337C8.23241 23.8896 8.28694 23.8551 8.34657 23.8323C8.40619 23.8095 8.46973 23.7987 8.53353 23.8006C8.59987 23.8001 8.66562 23.813 8.72696 23.8383C8.7883 23.8636 8.84399 23.901 8.89079 23.9481C8.93758 23.9953 8.97455 24.0513 8.99952 24.1129C9.0245 24.1745 9.03698 24.2405 9.03625 24.307Z" fill="#001F86"/>
<path d="M23.1241 24.2944C23.1211 24.4286 23.0667 24.5564 22.9722 24.6515C22.8778 24.7465 22.7504 24.8014 22.6167 24.8048C22.5504 24.8036 22.485 24.7892 22.4242 24.7626C22.3635 24.7359 22.3086 24.6974 22.2628 24.6494C22.2169 24.6014 22.181 24.5447 22.1571 24.4827C22.1332 24.4207 22.1217 24.3545 22.1234 24.2881C22.1228 24.2241 22.1348 24.1607 22.1589 24.1014C22.183 24.0422 22.2186 23.9884 22.2636 23.9431C22.3086 23.8978 22.3622 23.8619 22.4212 23.8376C22.4802 23.8132 22.5434 23.8009 22.6072 23.8014C22.6735 23.7995 22.7395 23.8107 22.8014 23.8345C22.8633 23.8583 22.9199 23.8942 22.968 23.94C23.016 23.9858 23.0545 24.0407 23.0813 24.1016C23.1081 24.1624 23.1227 24.2279 23.1241 24.2944Z" fill="#001F86"/>
<path d="M30.6814 26.8205C30.5475 26.821 30.4186 26.7694 30.3219 26.6765C30.2252 26.5837 30.1682 26.4568 30.1629 26.3227C30.1641 26.1936 30.214 26.0697 30.3026 25.976C30.3912 25.8823 30.5119 25.8258 30.6404 25.8178C30.7065 25.8127 30.7729 25.8212 30.8356 25.8429C30.8983 25.8645 30.9559 25.8987 31.0049 25.9435C31.0539 25.9883 31.0933 26.0426 31.1206 26.1032C31.1479 26.1638 31.1625 26.2293 31.1636 26.2958C31.1671 26.3622 31.1573 26.4286 31.1348 26.4912C31.1124 26.5537 31.0776 26.6111 31.0327 26.66C30.9878 26.7089 30.9335 26.7482 30.8732 26.7758C30.8129 26.8034 30.7476 26.8185 30.6814 26.8205Z" fill="#001F86"/>
<path d="M18.5855 26.8212C18.4517 26.8171 18.3251 26.76 18.2332 26.6624C18.1413 26.5648 18.0918 26.4347 18.0954 26.3005C18.1023 26.171 18.159 26.0491 18.2537 25.9606C18.3483 25.8722 18.4735 25.824 18.6029 25.8262C18.7323 25.8285 18.8558 25.881 18.9473 25.9727C19.0389 26.0644 19.0914 26.1882 19.0937 26.3179C19.0923 26.4521 19.0381 26.5802 18.9429 26.6744C18.8477 26.7687 18.7193 26.8215 18.5855 26.8212Z" fill="#001F86"/>
<path d="M20.6113 26.8213C20.5451 26.8216 20.4794 26.8086 20.4182 26.7832C20.357 26.7577 20.3015 26.7203 20.2549 26.6731C20.2083 26.6258 20.1715 26.5697 20.1468 26.5081C20.1221 26.4464 20.1099 26.3804 20.111 26.314C20.1086 26.1854 20.157 26.0611 20.2455 25.968C20.334 25.875 20.4556 25.8207 20.5838 25.817C20.65 25.8146 20.7161 25.8252 20.7782 25.8484C20.8403 25.8716 20.8972 25.9069 20.9457 25.9522C20.9943 25.9974 21.0334 26.0519 21.0609 26.1123C21.0885 26.1728 21.1038 26.2381 21.1062 26.3045C21.1065 26.4381 21.0551 26.5667 20.9628 26.663C20.8705 26.7594 20.7445 26.8161 20.6113 26.8213Z" fill="#001F86"/>
<path d="M28.6437 23.8006C28.7099 23.7975 28.7761 23.8079 28.8381 23.8314C28.9001 23.8548 28.9567 23.8907 29.0044 23.9369C29.0521 23.9831 29.0898 24.0386 29.1153 24.0999C29.1408 24.1612 29.1536 24.2272 29.1528 24.2936C29.1536 24.4278 29.1016 24.5568 29.008 24.6527C28.9145 24.7486 28.787 24.8036 28.6532 24.8056C28.5244 24.801 28.4018 24.7486 28.3094 24.6585C28.2169 24.5684 28.1612 24.4471 28.1528 24.3181C28.1507 24.2517 28.1618 24.1855 28.1854 24.1235C28.209 24.0614 28.2447 24.0046 28.2904 23.9565C28.3361 23.9083 28.3908 23.8697 28.4515 23.843C28.5121 23.8162 28.5775 23.8018 28.6437 23.8006Z" fill="#001F86"/>
<path d="M8.53667 26.8213C8.47036 26.8212 8.40474 26.8078 8.3436 26.7821C8.28247 26.7563 8.22705 26.7187 8.18057 26.6712C8.13409 26.6238 8.09747 26.5676 8.07284 26.5059C8.04821 26.4441 8.03607 26.3781 8.03711 26.3116C8.03542 26.1826 8.08466 26.0581 8.1741 25.9653C8.26354 25.8725 8.38594 25.8189 8.51461 25.8162C8.64833 25.8113 8.77852 25.8598 8.87662 25.951C8.97471 26.0423 9.03268 26.1688 9.03781 26.3029C9.03807 26.4378 8.98585 26.5674 8.89225 26.6642C8.79866 26.761 8.67108 26.8173 8.53667 26.8213Z" fill="#001F86"/>
<path d="M18.5957 27.8311C18.6946 27.8317 18.791 27.8616 18.873 27.9171C18.9549 27.9725 19.0186 28.051 19.0562 28.1427C19.0937 28.2344 19.1034 28.3352 19.0839 28.4324C19.0645 28.5296 19.0168 28.6188 18.9469 28.6889C18.877 28.759 18.788 28.8068 18.6911 28.8263C18.5942 28.8458 18.4937 28.8361 18.4023 28.7985C18.3108 28.7608 18.2325 28.6969 18.1772 28.6147C18.1219 28.5326 18.0921 28.4359 18.0914 28.3368C18.091 28.2702 18.1038 28.2043 18.129 28.1427C18.1542 28.0812 18.1913 28.0253 18.2382 27.9782C18.2851 27.9312 18.3409 27.894 18.4023 27.8687C18.4636 27.8434 18.5294 27.8306 18.5957 27.8311Z" fill="#001F86"/>
<path d="M16.5801 26.8205C16.4464 26.8182 16.3188 26.7639 16.2244 26.6689C16.1299 26.5739 16.0761 26.4458 16.0743 26.3116C16.0784 26.1774 16.1355 26.0504 16.233 25.9584C16.3305 25.8663 16.4605 25.8169 16.5943 25.821C16.7231 25.8231 16.8459 25.8761 16.9358 25.9687C17.0257 26.0612 17.0755 26.1856 17.0742 26.3148C17.0751 26.3806 17.0631 26.446 17.0387 26.5071C17.0143 26.5682 16.9781 26.6238 16.9322 26.6708C16.8863 26.7179 16.8315 26.7553 16.7711 26.781C16.7107 26.8066 16.6458 26.8201 16.5801 26.8205Z" fill="#001F86"/>
<path d="M31.1636 22.2985C31.1616 22.3648 31.1465 22.4301 31.1191 22.4905C31.0918 22.5509 31.0528 22.6053 31.0043 22.6505C30.9559 22.6957 30.899 22.7308 30.8369 22.7538C30.7749 22.7768 30.7089 22.7872 30.6428 22.7844C30.5145 22.7747 30.3944 22.7174 30.3059 22.6238C30.2173 22.5302 30.1667 22.4069 30.1637 22.278C30.1647 22.2116 30.1789 22.1461 30.2053 22.0852C30.2317 22.0244 30.27 21.9694 30.3177 21.9235C30.3655 21.8775 30.4219 21.8416 30.4837 21.8176C30.5454 21.7937 30.6113 21.7823 30.6774 21.7841C30.7438 21.7834 30.8095 21.7965 30.8706 21.8225C30.9317 21.8484 30.9867 21.8867 31.0324 21.935C31.078 21.9833 31.1132 22.0405 31.1358 22.103C31.1584 22.1656 31.1678 22.2321 31.1636 22.2985Z" fill="#001F86"/>
<path d="M31.1636 24.2841C31.1659 24.3506 31.1551 24.4168 31.1317 24.479C31.1084 24.5412 31.073 24.5982 31.0276 24.6466C30.9821 24.695 30.9276 24.7339 30.8671 24.7611C30.8066 24.7882 30.7413 24.8031 30.6751 24.8048C30.5412 24.8027 30.4133 24.7488 30.3181 24.6544C30.2228 24.5601 30.1675 24.4326 30.1637 24.2984C30.1654 24.1695 30.2164 24.0461 30.3061 23.9538C30.3958 23.8615 30.5175 23.8072 30.6459 23.8022C30.712 23.7973 30.7784 23.8061 30.841 23.8281C30.9036 23.8501 30.9609 23.8848 31.0095 23.93C31.0581 23.9753 31.0968 24.0301 31.1234 24.091C31.1499 24.1519 31.1636 24.2177 31.1636 24.2841Z" fill="#001F86"/>
<path d="M10.5365 26.8213C10.4028 26.8173 10.276 26.7604 10.184 26.663C10.092 26.5655 10.0422 26.4355 10.0456 26.3013C10.047 26.2349 10.0617 26.1693 10.0889 26.1087C10.1161 26.048 10.1553 25.9935 10.2039 25.9484C10.2526 25.9032 10.3099 25.8684 10.3723 25.846C10.4348 25.8235 10.5011 25.8139 10.5673 25.8178C10.6959 25.8233 10.8175 25.8782 10.9069 25.9712C10.9962 26.0641 11.0464 26.188 11.0471 26.3171C11.0443 26.4513 10.9893 26.5791 10.8939 26.6732C10.7986 26.7673 10.6703 26.8205 10.5365 26.8213Z" fill="#001F86"/>
<path d="M27.1434 26.3116C27.1458 26.3793 27.1346 26.4467 27.1104 26.5098C27.0862 26.573 27.0495 26.6306 27.0025 26.6792C26.9556 26.7278 26.8993 26.7664 26.8371 26.7926C26.775 26.8189 26.7081 26.8323 26.6406 26.832C26.5732 26.8318 26.5064 26.8178 26.4445 26.7911C26.3825 26.7643 26.3265 26.7253 26.28 26.6763C26.2334 26.6274 26.1972 26.5695 26.1735 26.5061C26.1497 26.4428 26.139 26.3753 26.142 26.3077C26.1476 26.178 26.203 26.0555 26.2967 25.9658C26.3904 25.8762 26.5151 25.8265 26.6446 25.827C26.7741 25.8275 26.8983 25.8782 26.9913 25.9686C27.0843 26.0589 27.1388 26.1819 27.1434 26.3116Z" fill="#001F86"/>
<path d="M7.02542 26.3116C7.02217 26.4459 6.96716 26.5737 6.87195 26.6681C6.77674 26.7626 6.64873 26.8163 6.51482 26.8181C6.44858 26.8174 6.38315 26.8034 6.32239 26.7769C6.26164 26.7505 6.20679 26.712 6.1611 26.6639C6.11541 26.6158 6.0798 26.559 6.05638 26.4969C6.03295 26.4348 6.02218 26.3685 6.02471 26.3022C6.02451 26.2382 6.03692 26.1748 6.06124 26.1157C6.08556 26.0565 6.1213 26.0028 6.16642 25.9575C6.21153 25.9123 6.26512 25.8764 6.3241 25.8521C6.38309 25.8277 6.4463 25.8152 6.5101 25.8154C6.64388 25.8133 6.77309 25.8643 6.8696 25.9572C6.96611 26.0501 7.02211 26.1775 7.02542 26.3116Z" fill="#001F86"/>
<path d="M25.1358 28.321C25.1373 28.4551 25.0859 28.5844 24.9927 28.6808C24.8996 28.7771 24.7723 28.8326 24.6386 28.8353C24.5096 28.8377 24.3848 28.7895 24.2907 28.701C24.1967 28.6124 24.1408 28.4905 24.1351 28.3613C24.1309 28.2951 24.1399 28.2288 24.1615 28.1662C24.183 28.1036 24.2168 28.0459 24.2608 27.9964C24.3047 27.947 24.3581 27.9067 24.4176 27.8781C24.4772 27.8494 24.5419 27.8329 24.6079 27.8295C24.7425 27.8256 24.8734 27.875 24.9721 27.9669C25.0709 28.0588 25.1296 28.186 25.1358 28.321Z" fill="#001F86"/>
<path d="M7.02463 22.2654C7.02457 22.3995 6.97294 22.5285 6.88049 22.6255C6.78804 22.7224 6.66187 22.78 6.52822 22.7861C6.39987 22.7865 6.27623 22.7376 6.18273 22.6494C6.08922 22.5612 6.03296 22.4405 6.02551 22.312C6.01965 22.2458 6.02747 22.1791 6.04847 22.116C6.06947 22.053 6.10321 21.995 6.14757 21.9456C6.19194 21.8962 6.24598 21.8565 6.30632 21.829C6.36666 21.8015 6.43201 21.7868 6.49828 21.7857C6.56425 21.7826 6.6302 21.7924 6.69236 21.8148C6.75453 21.8372 6.81168 21.8716 6.86056 21.9162C6.90945 21.9607 6.94909 22.0145 6.97725 22.0744C7.0054 22.1343 7.0215 22.1992 7.02463 22.2654Z" fill="#001F86"/>
<path d="M9.03628 22.2646C9.03645 22.3988 8.98519 22.5279 8.89309 22.6252C8.80098 22.7226 8.67509 22.7807 8.54144 22.7876C8.41306 22.7873 8.28957 22.7383 8.19585 22.6503C8.10212 22.5623 8.04513 22.442 8.03636 22.3136C8.03062 22.2474 8.03852 22.1807 8.05957 22.1177C8.08062 22.0547 8.11436 21.9968 8.1587 21.9474C8.20304 21.8981 8.25703 21.8584 8.31732 21.8308C8.37761 21.8033 8.4429 21.7885 8.50913 21.7873C8.57512 21.7834 8.64124 21.7927 8.70361 21.8146C8.76599 21.8365 8.82339 21.8707 8.87245 21.9152C8.92152 21.9596 8.96128 22.0134 8.9894 22.0733C9.01753 22.1333 9.03346 22.1983 9.03628 22.2646Z" fill="#001F86"/>
<path d="M13.0549 28.3407C13.0546 28.4072 13.041 28.4729 13.0149 28.5341C12.9888 28.5952 12.9508 28.6505 12.903 28.6966C12.8553 28.7427 12.7988 28.7787 12.7369 28.8026C12.675 28.8264 12.6089 28.8375 12.5427 28.8353C12.4144 28.83 12.2929 28.7762 12.2026 28.6847C12.1123 28.5933 12.0598 28.4709 12.0557 28.3423C12.0565 28.2081 12.1095 28.0795 12.2034 27.9839C12.2973 27.8883 12.4247 27.8331 12.5584 27.8303C12.6246 27.8308 12.6899 27.8444 12.7507 27.8704C12.8115 27.8964 12.8666 27.9342 12.9128 27.9817C12.9589 28.0291 12.9953 28.0853 13.0197 28.1469C13.044 28.2085 13.056 28.2744 13.0549 28.3407Z" fill="#001F86"/>
<path d="M26.6565 27.8311C26.7228 27.8333 26.788 27.8486 26.8483 27.8762C26.9087 27.9038 26.963 27.943 27.0081 27.9917C27.0533 28.0404 27.0885 28.0975 27.1115 28.1599C27.1346 28.2222 27.1452 28.2885 27.1427 28.3549C27.1402 28.4213 27.1245 28.4865 27.0966 28.5467C27.0686 28.6069 27.029 28.6609 26.98 28.7056C26.9309 28.7502 26.8735 28.7846 26.8111 28.8068C26.7487 28.8289 26.6825 28.8384 26.6163 28.8345C26.4872 28.8242 26.3671 28.7642 26.2812 28.6671C26.1952 28.5699 26.1501 28.4432 26.1553 28.3134C26.1605 28.1837 26.2156 28.0609 26.309 27.971C26.4025 27.8811 26.527 27.8309 26.6565 27.8311Z" fill="#001F86"/>
<path d="M11.0471 28.3304C11.0465 28.4647 10.9928 28.5932 10.8979 28.6879C10.8029 28.7825 10.6744 28.8355 10.5405 28.8353C10.4743 28.835 10.4087 28.8215 10.3478 28.7954C10.2869 28.7694 10.2317 28.7314 10.1856 28.6837C10.1395 28.636 10.1034 28.5796 10.0794 28.5177C10.0553 28.4558 10.0439 28.3897 10.0457 28.3233C10.0486 28.1942 10.1009 28.0712 10.1916 27.9796C10.2824 27.8881 10.4047 27.8349 10.5334 27.8311C10.6671 27.8304 10.7958 27.8823 10.8919 27.9756C10.9879 28.069 11.0436 28.1964 11.0471 28.3304Z" fill="#001F86"/>
</svg>
