<svg width="63" height="55" viewBox="0 0 63 55" fill="none" xmlns="http://www.w3.org/2000/svg">
<path d="M53.7766 20.5568C53.569 19.3066 52.8815 18.187 51.8604 17.4364C50.8394 16.6858 49.5655 16.3636 48.3104 16.5385C46.843 16.7662 45.3821 17.0591 43.931 17.3194C40.4723 17.9375 37.0332 18.6631 33.5192 18.8225C30.6123 18.9764 27.6973 18.8577 24.8124 18.4679C21.2301 17.9603 17.7032 17.2445 14.1599 16.5938C11.1373 16.0407 8.28054 18.1718 8.2415 21.1489C8.18944 25.4546 8.18944 29.7614 8.2415 34.0692C8.27078 36.8869 10.9648 39.1157 13.7435 38.6894C15.0189 38.4942 16.2781 38.2209 17.547 37.9899C20.8234 37.3782 24.0771 36.6429 27.4219 36.3956C30.874 36.1256 34.3456 36.2424 37.7718 36.7437C41.1719 37.2546 44.5329 37.9801 47.9102 38.6309C49.1056 38.8811 50.3512 38.6802 51.4073 38.0669C52.4634 37.4535 53.2551 36.4711 53.6302 35.3089C53.6656 35.0482 53.7413 34.7947 53.8547 34.5573V20.7455C53.7668 20.7064 53.7863 20.6251 53.7766 20.5568ZM52.3254 34.092L52.2962 34.1864C52.2517 34.3325 52.217 34.4814 52.192 34.6321L52.1595 34.7623C51.9381 35.42 51.5134 35.9904 50.9467 36.391C50.38 36.7916 49.7006 37.0018 49.0067 36.991C48.7752 36.9918 48.5442 36.97 48.3169 36.926C47.4775 36.7665 46.6413 36.6006 45.8051 36.4314L45.6554 36.4021C43.1891 35.9141 40.648 35.426 38.1102 35.0291C34.5654 34.5116 30.9741 34.3894 27.4023 34.6647C24.7457 34.9105 22.1058 35.3114 19.4959 35.8653C18.7769 36.0052 18.0676 36.1418 17.3518 36.272C16.9093 36.3533 16.4668 36.4379 16.0275 36.5258C15.1913 36.6852 14.4007 36.8511 13.5938 36.965C13.4484 36.9873 13.3016 36.9982 13.1545 36.9975C12.3332 36.9871 11.5466 36.6645 10.9544 36.0953C10.3623 35.5261 10.0088 34.7529 9.96594 33.9326C9.91714 29.3124 9.91714 25.0989 9.96594 21.0513C9.98546 19.3464 11.4496 18.0124 13.2977 18.0124C13.5159 18.0131 13.7336 18.0327 13.9484 18.0709L16.7238 18.5915C19.3267 19.0861 21.9817 19.5904 24.653 19.9711C27.6376 20.3794 30.6543 20.5036 33.6624 20.342C36.7436 20.2021 39.7565 19.6457 42.6686 19.1121L44.2954 18.8128C44.7769 18.7282 45.2715 18.6371 45.74 18.546C46.6966 18.3703 47.6922 18.1881 48.6358 18.0384C48.7865 18.0153 48.9388 18.0033 49.0913 18.0026C49.8352 18.0144 50.5527 18.2808 51.124 18.7574C51.6954 19.234 52.0861 19.8921 52.2311 20.6218V20.6739C52.241 20.7636 52.2562 20.8527 52.2766 20.9407L52.2962 21.0188L52.3254 34.092Z" fill="#001F86"/>
<path d="M17.0818 24.5978C17.0818 26.5999 17.0818 28.602 17.0818 30.6041C17.0818 31.4598 16.6425 32.065 16.0374 32.0617C15.4322 32.0585 15.0059 31.4565 15.0027 30.5846C15.0027 29.5759 15.0027 28.5673 15.0027 27.5587C15.0027 26.55 15.0027 25.5707 15.0027 24.5783C15.0027 23.7486 15.4354 23.1532 16.0276 23.1434C16.6198 23.1337 17.0785 23.7519 17.0818 24.5978Z" fill="#001F86"/>
<path d="M47.8061 24.5978C47.8061 26.5999 47.8061 28.602 47.8061 30.6041C47.8061 31.4598 47.3669 32.065 46.7617 32.0617C46.1565 32.0585 45.7271 31.4566 45.7271 30.5943C45.7271 29.5857 45.7271 28.5771 45.7271 27.5684C45.7271 26.5598 45.7271 25.5804 45.7271 24.5881C45.7271 23.7584 46.1598 23.163 46.752 23.1532C47.3441 23.1434 47.8029 23.7519 47.8061 24.5978Z" fill="#001F86"/>
<path d="M42.6003 29.7841C42.6003 30.5942 42.1968 31.1897 41.6957 31.1701C41.1947 31.1506 40.8433 30.5747 40.84 29.7678C40.84 29.0422 40.84 28.3134 40.84 27.5879C40.84 26.8623 40.84 26.166 40.84 25.4534C40.84 24.627 41.2175 24.0381 41.7218 24.0446C42.2261 24.0511 42.597 24.6335 42.6003 25.4242C42.6154 26.8796 42.6154 28.3329 42.6003 29.7841Z" fill="#001F86"/>
<path d="M21.5946 29.7841C21.5946 30.5942 21.1912 31.1897 20.6901 31.1701C20.189 31.1506 19.8474 30.5845 19.8474 29.7678C19.8474 29.0422 19.8474 28.3134 19.8474 27.5879C19.8474 26.8623 19.8474 26.166 19.8474 25.4534C19.8474 24.627 20.2248 24.0381 20.7292 24.0446C21.2335 24.0511 21.6044 24.6335 21.6076 25.4242C21.6098 26.8796 21.6055 28.3329 21.5946 29.7841Z" fill="#001F86"/>
<path d="M26.5597 29.3936C26.5597 30.1485 26.1627 30.7244 25.691 30.7276C25.2192 30.7309 24.8287 30.1419 24.819 29.3578C24.819 28.7656 24.819 28.1702 24.819 27.5781C24.819 26.9859 24.819 26.4198 24.819 25.8439C24.819 25.0825 25.1964 24.5033 25.6714 24.4903C26.1465 24.4773 26.5532 25.0597 26.5597 25.8373C26.5694 27.0217 26.5694 28.2093 26.5597 29.3936Z" fill="#001F86"/>
<path d="M37.1732 29.3936C37.1732 30.1485 36.7763 30.7244 36.3045 30.7276C35.8327 30.7309 35.4423 30.1419 35.4325 29.3578C35.4325 28.7656 35.4325 28.1702 35.4325 27.5781C35.4325 26.9859 35.4325 26.4198 35.4325 25.8439C35.4325 25.0825 35.8099 24.5033 36.285 24.4903C36.76 24.4773 37.1667 25.0597 37.1732 25.8373C37.183 27.0217 37.183 28.2093 37.1732 29.3936Z" fill="#001F86"/>
<path d="M31.9412 29.013C31.9217 29.7581 31.4825 30.3145 30.9911 30.2787C30.4998 30.2429 30.1354 29.68 30.1257 28.9382C30.1257 28.4924 30.1257 28.0499 30.1257 27.6042C30.1257 27.1584 30.1257 26.7127 30.1257 26.2702C30.1257 25.5316 30.5129 24.9687 30.9977 24.9362C31.4825 24.9036 31.925 25.4633 31.9412 26.2116C31.9607 27.1454 31.964 28.0792 31.9412 29.013Z" fill="#001F86"/>
<path d="M38.0159 49.7486V44.7379C38.0159 43.2836 37.439 41.8886 36.4119 40.8589C35.3847 39.8293 33.9911 39.2492 32.5367 39.2457V39.2457C31.3286 39.2457 30.17 39.7256 29.3157 40.5799C28.4615 41.4341 27.9816 42.5928 27.9816 43.8009V49.6347" stroke="#001F86" stroke-width="1.9522" stroke-miterlimit="10" stroke-linecap="round"/>
<path d="M29.3253 46.0784L30.4316 45.509C30.5378 45.451 30.6566 45.4197 30.7776 45.4176C30.8986 45.4156 31.0183 45.4429 31.1265 45.4973C31.2346 45.5517 31.3279 45.6315 31.3984 45.7299C31.469 45.8283 31.5146 45.9423 31.5313 46.0622C31.546 46.2233 31.5095 46.3849 31.4272 46.5242L30.0379 48.9319L29.6475 49.6087C29.475 49.9015 29.2291 50.1442 28.9341 50.3128C28.6391 50.4815 28.3051 50.5702 27.9653 50.5702C27.6255 50.5702 27.2916 50.4815 26.9965 50.3128C26.7015 50.1442 26.4556 49.9015 26.2832 49.6087L25.896 48.9319L24.318 46.2021C24.2494 46.0842 24.2263 45.9454 24.2529 45.8116C24.2726 45.7292 24.311 45.6525 24.3652 45.5873C24.4193 45.5221 24.4876 45.4702 24.565 45.4356C24.6423 45.401 24.7266 45.3847 24.8112 45.3878C24.8959 45.391 24.9787 45.4135 25.0533 45.4537L26.4426 46.1207C26.894 46.3356 27.389 46.4436 27.8889 46.4363C28.3889 46.429 28.8804 46.3065 29.3253 46.0784Z" fill="#001F86"/>
<path d="M26.1107 5.49548V10.5029C26.1107 11.2245 26.2529 11.9392 26.529 12.6059C26.8052 13.2726 27.21 13.8784 27.7203 14.3887C28.2306 14.899 28.8364 15.3038 29.5031 15.58C30.1699 15.8562 30.8845 15.9983 31.6062 15.9983V15.9983C32.8143 15.9983 33.9729 15.5184 34.8271 14.6642C35.6814 13.8099 36.1613 12.6513 36.1613 11.4432V5.62238" stroke="#001F86" stroke-width="1.9522" stroke-miterlimit="10" stroke-linecap="round"/>
<path d="M34.8142 9.16231L33.708 9.7317C33.6017 9.78958 33.4831 9.82095 33.3621 9.82314C33.2411 9.82534 33.1214 9.79829 33.0131 9.74431C32.9048 9.69033 32.8112 9.61101 32.7401 9.51308C32.6691 9.41515 32.6227 9.30152 32.605 9.18183C32.5903 9.02072 32.6268 8.85909 32.7091 8.71981L34.0984 6.30885L34.4888 5.63534C34.6613 5.34253 34.9072 5.0998 35.2022 4.93117C35.4972 4.76253 35.8312 4.67383 36.171 4.67383C36.5108 4.67383 36.8447 4.76253 37.1398 4.93117C37.4348 5.0998 37.6807 5.34253 37.8531 5.63534L38.2436 6.30885L39.8183 9.04193C39.8877 9.15948 39.912 9.29824 39.8867 9.43237C39.8661 9.51311 39.8276 9.58817 39.774 9.65194C39.7204 9.71571 39.653 9.76655 39.577 9.80065C39.501 9.83475 39.4182 9.85123 39.335 9.84887C39.2517 9.84651 39.17 9.82537 39.096 9.78702L37.7067 9.13628C37.2552 8.91727 36.7592 8.80567 36.2574 8.81018C35.7556 8.8147 35.2617 8.93521 34.8142 9.16231Z" fill="#001F86"/>
</svg>
