<svg width="44" height="44" viewBox="0 0 44 44" fill="none" xmlns="http://www.w3.org/2000/svg">
<g clip-path="url(#clip0_85_416)">
<path d="M41.5928 19.2347C41.4907 19.1854 41.4045 19.1074 41.3443 19.0096C41.2841 18.9119 41.2525 18.7986 41.253 18.6831C41.1657 17.7887 41.0929 16.8943 40.9279 16.0148C40.0323 11.2896 37.4815 7.06217 33.7551 4.12748C30.0287 1.1928 25.3835 -0.246931 20.693 0.0790405C16.0024 0.405012 11.5898 2.47422 8.28497 5.89755C4.98009 9.32088 3.01064 13.8625 2.74699 18.6682C2.75103 18.7908 2.71894 18.9118 2.65489 19.0155C2.59083 19.1192 2.49778 19.2008 2.38784 19.2496C1.68313 19.6245 1.09158 20.189 0.676831 20.8824C0.262085 21.5758 0.0398374 22.3719 0.033995 23.185C2.19606e-05 24.9937 2.19606e-05 26.8024 0.0291417 28.6111C0.0522911 29.6952 0.446316 30.7367 1.14254 31.5539C1.83876 32.3712 2.79302 32.9123 3.83898 33.0831C5.7803 33.421 7.44013 32.1639 7.46439 30.2558C7.50807 27.344 7.49837 24.4272 7.46439 21.5104C7.44948 20.8609 7.22172 20.2353 6.8177 19.7342C6.41368 19.2332 5.85687 18.8857 5.23673 18.7477L4.87273 18.6483C5.145 14.1775 7.07536 9.98205 10.269 6.92015C13.4626 3.85825 17.6781 2.16127 22.0534 2.17628C31.6241 2.17628 38.7682 10.0918 39.1225 18.6533C39.0877 18.6763 39.0502 18.6947 39.0108 18.708C37.22 19.2049 36.5259 20.1639 36.5211 22.0769C36.5211 24.6806 36.5211 27.2827 36.5211 29.8831C36.5109 30.1933 36.5369 30.5035 36.5987 30.8073C36.9288 32.1639 37.8315 32.8893 39.1807 33.1477C39.1807 33.9527 39.1807 34.7278 39.1807 35.503C39.1448 36.5064 38.7638 37.4646 38.1049 38.2084C37.4459 38.9521 36.5515 39.4335 35.5795 39.5676C34.3716 39.6588 33.1599 39.6853 31.9493 39.6471C31.8474 39.6471 31.7018 39.4831 31.6387 39.3589C31.4057 38.8137 31.0249 38.3484 30.5415 38.0181C30.058 37.6879 29.4922 37.5065 28.9111 37.4955C27.7172 37.4508 26.5136 37.4359 25.3197 37.4955C24.9095 37.5128 24.5067 37.6126 24.1343 37.7893C23.7618 37.9659 23.427 38.216 23.1489 38.5251C22.8708 38.8343 22.655 39.1965 22.5136 39.591C22.3723 39.9856 22.3083 40.4048 22.3252 40.8247C22.343 41.6792 22.6905 42.4917 23.2915 43.0848C23.8926 43.6779 24.6985 44.0033 25.5332 43.9899C26.5815 43.9899 27.6347 43.9899 28.6879 43.9899C29.306 44.0108 29.9161 43.8422 30.4401 43.5058C30.9641 43.1694 31.378 42.6805 31.629 42.1017C31.6639 42.003 31.7317 41.92 31.8205 41.8673C31.9092 41.8146 32.0132 41.7956 32.1143 41.8135C33.0849 41.8135 34.0556 41.8135 35.0263 41.8135C36.5201 41.7976 37.9599 41.2396 39.0894 40.2387C40.219 39.2378 40.9651 37.859 41.1948 36.3477C41.2952 35.2927 41.3277 34.232 41.2919 33.1726C41.278 33.0572 41.3002 32.9403 41.3551 32.8386C41.41 32.7369 41.4949 32.6555 41.5976 32.6061C42.3353 32.2138 42.9506 31.6175 43.3736 30.8849C43.7966 30.1523 44.0103 29.3128 43.9903 28.462C43.9903 26.7576 44.0146 25.0483 43.9903 23.349C44.0053 22.5056 43.7897 21.6748 43.3677 20.9504C42.9458 20.226 42.3343 19.6369 41.6025 19.2496M5.38233 21.7639V27.9502C5.38233 28.621 5.38233 29.2968 5.38233 29.9676C5.38233 30.7477 5.0523 31.0508 4.29034 30.9614C3.71341 30.9027 3.17691 30.6316 2.78056 30.1984C2.38421 29.7652 2.15498 29.1993 2.13547 28.6061C2.09988 26.814 2.09988 25.0202 2.13547 23.2247C2.15616 22.6064 2.40143 22.0182 2.82331 21.5753C3.24518 21.1323 3.8133 20.8665 4.41652 20.8297C4.54378 20.8074 4.67436 20.8157 4.79798 20.8538C4.9216 20.8919 5.03491 20.9589 5.12898 21.0494C5.22305 21.1399 5.29533 21.2516 5.34013 21.3755C5.38493 21.4995 5.40104 21.6324 5.38718 21.7639M28.7218 41.8384H25.5235C25.3801 41.8445 25.237 41.8206 25.1029 41.7683C24.9688 41.7159 24.8465 41.6362 24.7435 41.534C24.6404 41.4317 24.5587 41.309 24.5034 41.1734C24.4481 41.0378 24.4204 40.8922 24.4218 40.7452C24.4177 40.599 24.443 40.4535 24.4961 40.3178C24.5491 40.182 24.6289 40.0588 24.7303 39.9558C24.8318 39.8529 24.9528 39.7724 25.0859 39.7193C25.219 39.6662 25.3614 39.6416 25.5041 39.6471C26.588 39.6272 27.6687 39.6272 28.7461 39.6471C28.8888 39.6408 29.0313 39.6649 29.1644 39.7178C29.2976 39.7707 29.4186 39.8512 29.5199 39.9544C29.6211 40.0576 29.7004 40.1811 29.7526 40.3173C29.8049 40.4534 29.829 40.5991 29.8235 40.7452C29.8243 40.8915 29.7961 41.0365 29.7404 41.1712C29.6848 41.306 29.6029 41.4277 29.4999 41.529C29.3968 41.6304 29.2747 41.7092 29.1409 41.7607C29.0072 41.8121 28.8646 41.8352 28.7218 41.8285M41.8888 27.8906C41.8888 28.1042 41.8888 28.3229 41.8888 28.5415C41.8816 29.1825 41.6326 29.7959 41.1939 30.2534C40.7553 30.7108 40.1609 30.977 39.535 30.9962C39.4178 31.0122 39.2986 31.0011 39.1861 30.9637C39.0737 30.9263 38.9709 30.8636 38.8852 30.7802C38.7995 30.6968 38.7332 30.5948 38.6911 30.4817C38.649 30.3686 38.6322 30.2472 38.642 30.1266C38.642 27.3142 38.642 24.4984 38.642 21.6794C38.6329 21.5587 38.6503 21.4374 38.693 21.3245C38.7357 21.2116 38.8026 21.11 38.8887 21.027C38.9749 20.9441 39.0781 20.8819 39.1907 20.8452C39.3034 20.8085 39.4227 20.7981 39.5398 20.8148C40.1699 20.8354 40.7673 21.1063 41.2058 21.57C41.6442 22.0337 41.8892 22.6539 41.8888 23.2993C41.8888 23.5179 41.8888 23.7415 41.8888 23.9601C41.8888 24.621 41.8888 25.2819 41.8888 25.9477C41.8888 26.6136 41.8888 27.2496 41.8888 27.9005" fill="white"/>
<path d="M23.359 28.8941C25.0964 28.8941 26.8339 28.8941 28.5714 28.8941C31.3475 28.8941 33.2548 26.9512 33.2694 24.109C33.2694 21.1276 33.2694 18.186 33.2694 15.2295C33.2694 12.4022 31.3572 10.4692 28.6005 10.4692H15.419C12.6623 10.4692 10.7549 12.3972 10.7404 15.2146C10.7404 18.1959 10.7404 21.1773 10.7404 24.1587C10.7148 24.9267 10.8794 25.689 11.2188 26.3744C11.5582 27.0599 12.0614 27.6463 12.6817 28.0792C13.4504 28.6236 14.363 28.9148 15.2976 28.914C15.2976 29.6692 15.2976 30.4046 15.2976 31.1003C15.299 31.4874 15.3681 31.871 15.5015 32.2332C15.6399 32.5603 15.8542 32.8479 16.1257 33.071C16.3973 33.2942 16.7179 33.4461 17.0598 33.5137C17.4017 33.5812 17.7545 33.5624 18.0876 33.4587C18.4208 33.3551 18.7242 33.1698 18.9716 32.9189C20.2043 31.7015 21.3982 30.4643 22.6067 29.2171C22.7042 29.1104 22.8234 29.027 22.956 28.9729C23.0885 28.9188 23.2311 28.8953 23.3735 28.904M17.8213 31.0407C17.7146 31.15 17.5981 31.2543 17.4816 31.3636L17.3748 31.304V28.0891C17.3748 27.0953 17.0254 26.7525 16.0547 26.7425C15.6316 26.755 15.2082 26.7351 14.788 26.6829C14.2867 26.6022 13.826 26.3527 13.4788 25.9738C13.1316 25.5949 12.9177 25.1083 12.871 24.591C12.8491 24.398 12.8393 24.2038 12.8419 24.0096V15.3587C12.8419 13.5699 13.7737 12.6258 15.5209 12.6258H28.5277C30.2167 12.6258 31.1679 13.5848 31.1679 15.309C31.1679 18.2208 31.1679 21.1342 31.1679 24.0494C31.1679 25.7686 30.1973 26.7425 28.5277 26.7425C26.6155 26.7425 24.7033 26.7425 22.7911 26.7425C22.5529 26.7307 22.3151 26.7726 22.0946 26.8653C21.874 26.9581 21.676 27.0994 21.5147 27.2792C20.2965 28.5463 19.0541 29.7935 17.8213 31.0456" fill="white"/>
<path d="M23.5579 19.8409C23.556 19.5257 23.4629 19.2181 23.2903 18.957C23.1178 18.6959 22.8735 18.493 22.5884 18.374C22.3033 18.2549 21.9901 18.225 21.6884 18.2881C21.3867 18.3512 21.11 18.5044 20.8933 18.7283C20.6766 18.9523 20.5296 19.2369 20.4708 19.5464C20.412 19.8559 20.4441 20.1762 20.5631 20.467C20.682 20.7578 20.8824 21.006 21.139 21.1802C21.3957 21.3544 21.697 21.4469 22.0049 21.4459C22.4173 21.4394 22.8109 21.2678 23.1012 20.9678C23.3915 20.6678 23.5554 20.2633 23.5579 19.8409Z" fill="white"/>
<path d="M16.8846 18.2607C16.5773 18.2608 16.2769 18.3538 16.0212 18.5282C15.7654 18.7026 15.5657 18.9506 15.4473 19.2409C15.3288 19.5312 15.2968 19.8509 15.3554 20.1597C15.4139 20.4686 15.5604 20.7528 15.7763 20.9766C15.9923 21.2005 16.2681 21.3539 16.569 21.4177C16.8699 21.4815 17.1825 21.4527 17.4675 21.335C17.7525 21.2173 17.9971 21.016 18.1706 20.7563C18.3441 20.4966 18.4387 20.1902 18.4425 19.8756C18.4432 19.6667 18.4034 19.4596 18.3256 19.2664C18.2478 19.0732 18.1334 18.8976 17.9891 18.7498C17.8447 18.6021 17.6733 18.485 17.4846 18.4053C17.2959 18.3256 17.0936 18.2849 16.8895 18.2856" fill="white"/>
<path d="M27.1154 21.4459C27.5129 21.4231 27.8869 21.2454 28.1604 20.9493C28.434 20.6531 28.5864 20.261 28.5864 19.8533C28.5864 19.4457 28.434 19.0536 28.1604 18.7574C27.8869 18.4612 27.5129 18.2835 27.1154 18.2608C26.9038 18.2487 26.6921 18.2809 26.4931 18.3555C26.2941 18.43 26.112 18.5454 25.9581 18.6944C25.8041 18.8435 25.6814 19.0232 25.5976 19.2224C25.5138 19.4217 25.4706 19.6364 25.4706 19.8533C25.4706 20.0703 25.5138 20.285 25.5976 20.4842C25.6814 20.6835 25.8041 20.8632 25.9581 21.0122C26.112 21.1613 26.2941 21.2766 26.4931 21.3512C26.6921 21.4258 26.9038 21.458 27.1154 21.4459Z" fill="white"/>
</g>
<defs>
<clipPath id="clip0_85_416">
<rect width="44" height="44" fill="white"/>
</clipPath>
</defs>
</svg>
