<svg width="40" height="34" viewBox="0 0 40 34" fill="none" xmlns="http://www.w3.org/2000/svg">
<path d="M9 31.5L4.5 31C4.66667 29.6667 5.1 26.9 5.5 26.5C6 26 7.5 23 8 22C8.4 21.2 10.1667 19.3333 11 18.5L12.5 16.5L14 16L17.5 15.5L20 11L22.5 9L25 8L26.5 9L29 11L31 13C31.5 13.8333 32.6 15.6 33 16C33.5 16.5 35.5 21.5 36 22C36.4 22.4 36.8333 24.5 37 25.5L35 26.5L31 28C29.8333 28.1667 27.3 28.4 26.5 28C25.7 27.6 25.8333 28.1667 26 28.5L25 30L23.5 31L21 31.5L14 32L9 31.5Z" fill="#A4C2F7"/>
<path d="M2.17963 28.5038C2.69952 27.1445 3.29306 25.8148 3.95757 24.5207C4.71414 23.0517 5.5782 21.6411 6.54264 20.3006C6.733 20.0406 6.70349 19.8867 6.496 19.6831C6.22545 19.4144 5.93942 19.162 5.63939 18.927C4.64477 18.1623 4.64286 16.9455 5.63939 16.1827C6.13834 15.7975 6.58194 15.3449 6.95762 14.8378C7.33072 14.3427 7.84279 14.141 8.45574 14.1993C8.86882 14.2385 9.11438 14.4975 9.09154 14.8684C9.06869 15.2393 8.81552 15.4419 8.40339 15.4171C8.29219 15.4024 8.17915 15.4204 8.07785 15.4687C7.97655 15.517 7.89129 15.5937 7.83232 15.6895C7.43623 16.243 6.95419 16.729 6.40463 17.129C6.01154 17.4215 6.00583 17.6892 6.3913 17.975C6.9349 18.3797 7.41599 18.8628 7.81899 19.4087C8.12452 19.8226 8.37103 19.8188 8.68322 19.3992C9.07875 18.8619 9.5523 18.3873 10.0881 17.9912C10.4859 17.6987 10.4859 17.4473 10.1081 17.1414C9.67499 16.7897 9.64738 16.4647 10.0367 16.0604C10.3907 15.6914 10.7486 15.3244 11.1265 14.9802C12.0354 14.1495 13.2249 13.6971 14.4537 13.7149C15.6825 13.7326 16.8586 14.2192 17.7433 15.0758C20.3847 17.6015 22.6266 20.5173 24.3916 23.7226C24.6486 24.19 24.5972 24.5503 24.246 24.7396C23.8948 24.9289 23.5797 24.7788 23.3342 24.3247C21.6533 21.266 19.5355 18.5533 17.0656 16.0996C15.5885 14.6323 13.1633 14.3608 11.3682 16.4322C11.273 16.5431 11.3083 16.6052 11.3606 16.7065C11.8041 17.5744 11.6319 18.342 10.8504 18.9385C10.3903 19.2888 9.98206 19.703 9.63787 20.1687C9.18672 20.7814 8.5909 21.0509 7.83612 20.854C7.67622 20.812 7.60484 20.8789 7.52108 20.9974C5.8787 23.3173 4.52803 25.8321 3.49976 28.4847C3.17996 29.3048 3.61683 30.1096 4.49058 30.317C6.13176 30.6929 7.79409 30.9687 9.46845 31.1429C11.7817 31.3913 14.1104 31.4642 16.4346 31.3608C19.0653 31.2468 21.6812 30.9033 24.2526 30.3342C25.1835 30.1278 25.5947 29.3249 25.2691 28.4225C25.035 27.7773 25.2749 27.4256 25.9544 27.4294C29.4085 27.4485 32.8197 27.1034 36.1662 26.2145C36.3392 26.1748 36.5096 26.1243 36.6764 26.0635C36.9461 25.9617 37.1682 25.7626 37.2994 25.505C37.4305 25.2474 37.4612 24.9499 37.3855 24.6708C36.2287 20.4481 34.5193 16.3981 32.3019 12.6269C32.2125 12.4759 32.1163 12.451 31.9574 12.4749C31.0675 12.6097 30.3926 12.2675 29.8806 11.5382C29.4238 10.897 28.8656 10.3352 28.2283 9.87498C27.1261 9.07015 26.9357 7.95944 27.7362 6.84586C27.8732 6.65469 27.7486 6.62983 27.641 6.57248C26.733 6.09137 25.8278 6.09806 24.9255 6.59256C24.4818 6.84862 24.0935 7.19115 23.7834 7.60003C22.602 9.07547 21.5175 10.6266 20.5368 12.2436C20.4816 12.3392 20.4293 12.429 20.3665 12.5151C20.281 12.6451 20.1497 12.7378 19.9989 12.7747C19.8482 12.8116 19.6891 12.7899 19.5536 12.7139C19.4834 12.6744 19.422 12.6209 19.3731 12.5568C19.3241 12.4926 19.2887 12.4191 19.2689 12.3408C19.2491 12.2625 19.2455 12.1809 19.2581 12.1011C19.2707 12.0213 19.2994 11.9449 19.3423 11.8766C19.5784 11.4646 19.8335 11.0622 20.0895 10.6626C20.9408 9.32949 21.8642 8.04417 22.8554 6.8124C23.6711 5.80206 24.6781 5.1234 26.0058 5.01443C26.9245 4.93536 27.8409 5.19121 28.5871 5.73515C28.7974 5.88331 28.9069 5.86897 29.0763 5.68735C29.3942 5.34707 29.6883 4.99244 29.971 4.62252C30.8571 3.46211 32.4 3.46784 33.2699 4.64451C33.7861 5.34358 34.4022 5.96231 35.0983 6.48072C36.3014 7.38019 36.2633 9.0128 35.026 9.85969C34.6757 10.1006 34.3283 10.0709 34.1113 9.78227C33.8943 9.49359 33.9742 9.13897 34.3016 8.88184C34.9365 8.38002 34.9279 7.86385 34.2731 7.38114C33.544 6.84651 32.9019 6.20161 32.3695 5.46942C31.8936 4.81083 31.3416 4.81465 30.8562 5.47611C30.3223 6.20698 29.6803 6.85166 28.9526 7.38783C28.2968 7.8715 28.3015 8.41634 28.964 8.90574C29.7013 9.44988 30.3499 10.1058 30.8866 10.85C31.2331 11.3279 31.5529 11.4053 32.0811 11.1501C32.4913 10.9513 32.7578 11.0421 33.0234 11.477C35.0802 14.8565 36.7283 18.4704 37.9327 22.2419C38.1488 22.911 38.3534 23.5801 38.5409 24.254C38.9159 25.5989 38.2088 26.9046 36.8858 27.285C34.8537 27.8561 32.7745 28.2416 30.6734 28.4369C29.3971 28.564 28.1188 28.6405 26.8367 28.6443C26.654 28.6443 26.6055 28.6883 26.6045 28.8823C26.5959 30.2702 25.8317 31.2299 24.483 31.5291C20.2049 32.4765 15.8152 32.8137 11.4434 32.5308C9.10117 32.3747 6.77255 32.0553 4.4744 31.575C3.35223 31.3455 2.58985 30.7319 2.26624 29.6107C2.25291 29.5629 2.24435 29.5151 2.18914 29.5065L2.17963 28.5038Z" fill="#001F86"/>
<path d="M12.0535 6.72355C12.0449 6.47209 12.0979 6.22235 12.2078 5.99622C12.3176 5.77008 12.481 5.57445 12.6836 5.42644C13.2238 5.01777 13.7043 4.53515 14.1113 3.99265C14.2409 3.81769 14.4046 3.67093 14.5923 3.56122C14.7799 3.45151 14.9878 3.38114 15.2034 3.35434C15.4189 3.32754 15.6376 3.34487 15.8463 3.40529C16.0549 3.46572 16.2492 3.56797 16.4175 3.70589C16.7373 3.96684 16.8077 4.33103 16.5936 4.613C16.3794 4.89498 16.0434 4.92844 15.7093 4.69521C15.4238 4.49735 15.202 4.5394 15.0098 4.80896C14.5936 5.38989 14.0894 5.90175 13.5155 6.32591C13.1814 6.57443 13.1766 6.86501 13.505 7.10685C14.0798 7.53019 14.5871 8.03878 15.0098 8.6152C15.2629 8.96026 15.5494 8.95357 15.8102 8.60086C16.2218 8.0311 16.7222 7.53177 17.2922 7.12214C17.3895 7.06499 17.4643 6.97593 17.504 6.86993C17.5437 6.76393 17.5459 6.64743 17.5101 6.54002C17.415 6.13665 17.5901 5.83651 17.9223 5.75335C18.2935 5.65776 18.5961 5.86423 18.7018 6.28959C18.8731 6.98259 18.6808 7.57426 18.1259 8.01014C17.5928 8.42693 17.1133 8.90854 16.6983 9.44393C16.0092 10.3281 14.7804 10.3176 14.098 9.42768C13.6967 8.89595 13.2235 8.42302 12.6922 8.02256C12.4883 7.87474 12.3236 7.6791 12.2122 7.45269C12.1009 7.22627 12.0464 6.97596 12.0535 6.72355Z" fill="#001F86"/>
<path d="M32.2829 20.9946C32.0925 20.9946 31.9022 21.0032 31.7118 20.9946C31.5564 20.9919 31.408 20.9289 31.2978 20.8187C31.1876 20.7086 31.1242 20.5599 31.1207 20.4038C31.1142 20.2532 31.1656 20.1057 31.2643 19.9921C31.363 19.8784 31.5014 19.8071 31.6509 19.793C32.0524 19.7672 32.4552 19.7672 32.8568 19.793C33.0079 19.8094 33.1471 19.8826 33.2466 19.998C33.346 20.1133 33.3982 20.2623 33.3926 20.4148C33.3871 20.5672 33.3242 20.7119 33.2166 20.8197C33.1091 20.9275 32.9649 20.9903 32.813 20.9955C32.6388 21.0032 32.4609 20.9936 32.2829 20.9946Z" fill="#001F86"/>
<path d="M24.1346 11.9138C23.9442 11.9138 23.7539 11.9253 23.5635 11.9138C23.4102 11.9083 23.2647 11.8439 23.1572 11.7339C23.0497 11.6239 22.9883 11.4767 22.9856 11.3226C22.9829 11.1685 23.0392 11.0192 23.1428 10.9055C23.2464 10.7918 23.3895 10.7223 23.5426 10.7114C23.9325 10.6884 24.3234 10.6884 24.7133 10.7114C24.864 10.7251 25.0041 10.7954 25.1055 10.9083C25.2069 11.0211 25.2622 11.1682 25.2604 11.3202C25.2586 11.4722 25.1998 11.6179 25.0957 11.7283C24.9917 11.8387 24.85 11.9056 24.699 11.9157C24.5144 11.9253 24.324 11.9148 24.1346 11.9138Z" fill="#001F86"/>
<path d="M17.6671 23.1318C17.4768 23.1318 17.2864 23.1452 17.0961 23.1318C16.9406 23.1225 16.7951 23.0516 16.6915 22.9349C16.5878 22.8181 16.5345 22.6648 16.5431 22.5086C16.541 22.3581 16.5979 22.2129 16.7016 22.1041C16.8052 21.9954 16.9472 21.932 17.097 21.9274C17.4777 21.9093 17.8584 21.9102 18.2325 21.9274C18.3883 21.9319 18.5361 21.9975 18.6445 22.11C18.7528 22.2225 18.813 22.3731 18.8121 22.5296C18.8109 22.686 18.75 22.836 18.642 22.9487C18.534 23.0614 18.3871 23.1283 18.2316 23.1357C18.0469 23.1462 17.8565 23.1318 17.6671 23.1318Z" fill="#001F86"/>
<path d="M13.1833 26.7163C13.0053 26.7163 12.8273 26.7249 12.6502 26.7163C12.496 26.7123 12.3493 26.6489 12.2403 26.5393C12.1313 26.4296 12.0684 26.2821 12.0646 26.1273C12.0608 25.9724 12.1164 25.822 12.2199 25.7071C12.3234 25.5922 12.4669 25.5217 12.6207 25.51C13.0107 25.488 13.4015 25.488 13.7914 25.51C13.9411 25.5233 14.0804 25.5927 14.1813 25.7045C14.2822 25.8163 14.3374 25.9623 14.3359 26.1132C14.3338 26.2694 14.2719 26.4189 14.1632 26.5306C14.0544 26.6424 13.907 26.7078 13.7515 26.7134C13.5621 26.7259 13.3727 26.7163 13.1833 26.7163Z" fill="#001F86"/>
<path d="M19.1995 28.4694C18.9989 28.4813 18.7977 28.4813 18.5971 28.4694C18.4475 28.4572 18.3084 28.3876 18.2086 28.2751C18.1089 28.1626 18.0561 28.0158 18.0612 27.8653C18.0573 27.7149 18.1124 27.569 18.2146 27.4591C18.3168 27.3491 18.4579 27.2839 18.6075 27.2774C18.9974 27.2545 19.3883 27.2545 19.7782 27.2774C19.928 27.2831 20.0698 27.347 20.1737 27.4555C20.2775 27.5641 20.3354 27.709 20.335 27.8595C20.3392 28.0098 20.2865 28.1562 20.1876 28.2691C20.0888 28.3821 19.951 28.4533 19.802 28.4684C19.6015 28.4829 19.4003 28.4845 19.1995 28.4732V28.4694Z" fill="#001F86"/>
<path d="M28.371 15.4238C28.194 15.4238 28.0151 15.4334 27.838 15.4238C27.6826 15.4221 27.534 15.3593 27.424 15.2489C27.3141 15.1385 27.2516 14.9892 27.2498 14.8331C27.2441 14.6821 27.2961 14.5347 27.3952 14.4211C27.4944 14.3075 27.6331 14.2363 27.7828 14.2223C28.1847 14.1955 28.5878 14.1955 28.9897 14.2223C29.1395 14.2354 29.2785 14.3056 29.3784 14.4185C29.4782 14.5314 29.5312 14.6784 29.5265 14.8293C29.5253 14.9857 29.4632 15.1355 29.3534 15.2466C29.2437 15.3577 29.0951 15.4213 28.9393 15.4238C28.7508 15.4334 28.5604 15.4238 28.371 15.4238Z" fill="#001F86"/>
<path d="M14.3264 18.7808C14.1493 18.7808 13.9714 18.7875 13.7943 18.7808C13.6449 18.7832 13.5003 18.7276 13.3907 18.6256C13.281 18.5235 13.2149 18.3829 13.2061 18.2331C13.1814 17.8985 13.386 17.6051 13.721 17.5802C14.1329 17.5493 14.5465 17.5493 14.9584 17.5802C15.1077 17.5991 15.244 17.675 15.3391 17.7921C15.4342 17.9091 15.4809 18.0585 15.4695 18.2092C15.461 18.3591 15.3971 18.5005 15.2902 18.6055C15.1833 18.7106 15.0412 18.7717 14.8917 18.7769C14.7014 18.7884 14.511 18.7769 14.3207 18.7769L14.3264 18.7808Z" fill="#001F86"/>
<path d="M7.39638 28.5564C7.23077 28.5564 7.06516 28.566 6.89954 28.5564C6.5293 28.5306 6.29325 28.2888 6.2923 27.9466C6.29135 27.6044 6.51883 27.3597 6.89669 27.3444C7.25075 27.3291 7.60672 27.33 7.96079 27.3444C8.11627 27.3431 8.26605 27.4031 8.37785 27.5117C8.48965 27.6202 8.55453 27.7685 8.55852 27.9246C8.56067 28.0051 8.54698 28.0853 8.51823 28.1605C8.48949 28.2358 8.44625 28.3046 8.39099 28.363C8.33574 28.4214 8.26955 28.4683 8.19622 28.501C8.12289 28.5337 8.04386 28.5515 7.96365 28.5535C7.77329 28.5688 7.58293 28.5535 7.39257 28.5535L7.39638 28.5564Z" fill="#001F86"/>
<path d="M25.508 19.9259C25.331 19.9259 25.153 19.9316 24.976 19.9259C24.6276 19.9106 24.3887 19.6793 24.3725 19.3524C24.3664 19.2749 24.3757 19.1969 24.3999 19.1231C24.424 19.0492 24.4626 18.9809 24.5132 18.9221C24.5639 18.8634 24.6256 18.8153 24.6949 18.7807C24.7643 18.746 24.8397 18.7256 24.917 18.7205C25.3068 18.6952 25.6978 18.6952 26.0877 18.7205C26.1649 18.7246 26.2405 18.7442 26.3101 18.7781C26.3797 18.8119 26.4419 18.8594 26.4929 18.9177C26.544 18.9761 26.583 19.0441 26.6075 19.1177C26.6321 19.1913 26.6417 19.2692 26.6359 19.3466C26.6245 19.6774 26.3903 19.9096 26.041 19.9259C25.8592 19.9326 25.6813 19.9259 25.508 19.9259Z" fill="#001F86"/>
<path d="M10.089 23.1319C9.89862 23.1319 9.70826 23.1433 9.51791 23.1319C9.36297 23.1247 9.21685 23.0574 9.11032 22.9442C9.0038 22.831 8.94519 22.6807 8.94683 22.5249C8.94494 22.4474 8.95838 22.3703 8.98637 22.298C9.01437 22.2258 9.05636 22.1598 9.10992 22.104C9.16348 22.0481 9.22754 22.0035 9.29839 21.9728C9.36924 21.942 9.44547 21.9256 9.52267 21.9246C9.88911 21.9084 10.2574 21.9093 10.6239 21.9246C10.7798 21.9253 10.9294 21.987 11.0408 22.0965C11.1522 22.2061 11.2167 22.355 11.2207 22.5115C11.2235 22.6741 11.1619 22.8312 11.0495 22.9482C10.937 23.0652 10.7829 23.1327 10.621 23.1357C10.443 23.1452 10.2651 23.1319 10.089 23.1319Z" fill="#001F86"/>
<path d="M28.8783 24.8036C28.7013 24.8036 28.5233 24.8151 28.3472 24.8036C28.0179 24.7778 27.8304 24.5857 27.7914 24.2617C27.7797 24.188 27.7828 24.1127 27.8005 24.0403C27.8182 23.9678 27.8502 23.8996 27.8945 23.8398C27.9389 23.7799 27.9947 23.7296 28.0587 23.6917C28.1227 23.6539 28.1936 23.6292 28.2673 23.6193C28.7 23.5524 29.1404 23.5524 29.5731 23.6193C29.7143 23.65 29.8395 23.7311 29.9256 23.8475C30.0116 23.964 30.0526 24.1078 30.041 24.2524C30.0294 24.3969 29.9659 24.5323 29.8623 24.6333C29.7587 24.7344 29.6222 24.7942 29.478 24.8017C29.2771 24.8151 29.0753 24.8017 28.8745 24.8017L28.8783 24.8036Z" fill="#001F86"/>
</svg>
