<svg width="42" height="47" viewBox="0 0 42 47" fill="none" xmlns="http://www.w3.org/2000/svg">
<path d="M12.9408 22.7392L24.1399 11.5401C24.2887 11.3908 24.4864 11.3003 24.6967 11.2852C24.907 11.2701 25.1156 11.3314 25.2843 11.4579L26.7769 12.5778C27.1914 12.889 27.5046 13.316 27.6768 13.8049C27.849 14.2938 27.8726 14.8227 27.7446 15.325L25.727 23.2519H36.926C37.8542 23.2519 38.7444 23.6206 39.4007 24.2769C40.057 24.9332 40.4257 25.8234 40.4257 26.7516V30.4333C40.4262 30.8906 40.337 31.3436 40.1633 31.7667L34.7475 44.9168C34.6154 45.2374 34.391 45.5115 34.1028 45.7044C33.8146 45.8972 33.4756 46.0001 33.1289 46H14.178C13.7139 46 13.2688 45.8156 12.9406 45.4874C12.6125 45.1593 12.4281 44.7142 12.4281 44.2501V23.9763C12.4282 23.5123 12.6126 23.0673 12.9408 22.7392Z" fill="#E8EDFC" stroke="#001F86" stroke-width="2"/>
<path d="M8.92849 25.002H3.67893C3.21484 25.002 2.76976 25.1863 2.4416 25.5145C2.11344 25.8426 1.92908 26.2877 1.92908 26.7518V44.2503C1.92908 44.7144 2.11344 45.1595 2.4416 45.4877C2.76976 45.8158 3.21484 46.0002 3.67893 46.0002H8.92849V25.002Z" fill="#A4C2F7" stroke="#001F86" stroke-width="2"/>
<path d="M24.2029 2.95212L23.2157 2.70533C22.8005 2.60149 22.4214 2.38679 22.1187 2.08417C21.8161 1.78154 21.6014 1.40238 21.4976 0.98719L21.2508 0H20.0699L19.8219 0.98719C19.7182 1.40223 19.5037 1.7813 19.2013 2.08391C18.8989 2.38652 18.52 2.6013 18.105 2.70533L17.1178 2.95212V4.13297L18.105 4.37977C18.5202 4.48361 18.8993 4.69831 19.202 5.00093C19.5046 5.30356 19.7193 5.68272 19.8231 6.09791L20.0699 7.0851H21.2508L21.4976 6.09791C21.6014 5.68272 21.8161 5.30356 22.1187 5.00093C22.4214 4.69831 22.8005 4.48361 23.2157 4.37977L24.2029 4.13297V2.95212Z" fill="#153388"/>
<path d="M39.6839 12.9333L38.6967 12.6865C38.2815 12.5826 37.9023 12.3679 37.5997 12.0653C37.2971 11.7627 37.0824 11.3835 36.9785 10.9683L36.7317 9.98114H35.5509L35.3041 10.9683C35.2002 11.3835 34.9855 11.7627 34.6829 12.0653C34.3803 12.3679 34.0011 12.5826 33.5859 12.6865L32.5988 12.9333V14.1141L33.5859 14.3609C34.0011 14.4648 34.3803 14.6795 34.6829 14.9821C34.9855 15.2847 35.2002 15.6639 35.3041 16.0791L35.5509 17.0662H36.7317L36.9785 16.0791C37.0824 15.6639 37.2971 15.2847 37.5997 14.9821C37.9023 14.6795 38.2815 14.4648 38.6967 14.3609L39.6839 14.1141V12.9333Z" fill="#153388"/>
</svg>
