<svg width="32" height="39" viewBox="0 0 32 39" fill="none" xmlns="http://www.w3.org/2000/svg">
<path d="M26.9212 11.1264L26.9238 11.1279L27.1722 11.2699C29.0343 12.5224 29.7788 13.118 30.1556 13.7732C30.5172 14.4021 30.6 15.1948 30.6 17.1797V26.3997C30.6 28.3853 30.5174 29.18 30.1632 29.8029C29.7967 30.4474 29.0737 31.0275 27.2504 32.2508L18.399 37.3742L18.399 37.3742L18.3913 37.3788C17.7035 37.7852 16.7712 37.9997 15.8 37.9997C14.8104 37.9997 13.8976 37.7858 13.2087 37.3788L13.2087 37.3787L13.1999 37.3736L4.42959 32.3107C2.56621 31.0574 1.82127 30.4616 1.44441 29.8062C1.08278 29.1773 1 28.3846 1 26.3997V17.1797C1 15.1941 1.08259 14.3994 1.43679 13.7765C1.80281 13.1328 2.52432 12.5534 4.34225 11.3335L4.66564 11.1539L4.67461 11.1489L4.68348 11.1437L7.46068 9.52534L7.46348 9.52371L13.2007 6.20534L13.2014 6.20491C13.9007 5.79966 14.8301 5.57471 15.8 5.57471C16.7699 5.57471 17.6993 5.79966 18.3986 6.20491L18.3993 6.20534L24.1393 9.52534L24.1412 9.52641L26.9212 11.1264Z" fill="#A4C2F7" stroke="#001F86" stroke-width="2"/>
<path d="M5 10.1936V7.42553C5 5.19033 5.56796 3.61146 6.50759 2.59713C7.43596 1.59496 8.86086 1 10.8881 1H20.0921C22.1195 1 23.5503 1.59512 24.4839 2.59868C25.4281 3.61359 26 5.19231 26 7.42553V10.1842L24.7756 9.42664L24.7748 9.42618L19.3647 6.07271L19.1197 5.91065L19.1083 5.90312L19.0967 5.89591C17.0313 4.60917 13.9688 4.60916 11.9033 5.89591L11.8917 5.90312L11.8803 5.91065L11.6353 6.0727L6.22444 9.42664L6.22444 9.42663L6.22044 9.42913L5 10.1936Z" fill="#E8EDFC" stroke="#001F86" stroke-width="2"/>
<path d="M20.7175 21.0326L20.7114 21.0399L20.7054 21.0472L19.4786 22.551C19.2646 22.7957 19.1287 23.0909 19.0477 23.3372C18.9632 23.5946 18.902 23.9104 18.9223 24.2227C18.9223 24.2238 18.9224 24.2248 18.9225 24.2258L19.0421 26.1804L19.0421 26.1804L19.0425 26.1858C19.0543 26.3632 19.0284 26.4753 19.0045 26.5358C18.9821 26.5927 18.9599 26.6099 18.9535 26.6146C18.9468 26.6194 18.922 26.636 18.8577 26.6401C18.7899 26.6444 18.673 26.6341 18.5067 26.5689C18.5064 26.5688 18.5062 26.5687 18.5059 26.5686L16.6881 25.8494L16.6725 25.8432L16.6566 25.8376C16.3721 25.736 16.0583 25.7043 15.8003 25.7043C15.5423 25.7043 15.2285 25.736 14.9439 25.8376L14.9281 25.8432L14.9124 25.8494L13.0946 26.5686C13.0944 26.5687 13.0941 26.5688 13.0939 26.5689C12.9275 26.6341 12.8106 26.6444 12.7428 26.6401C12.6786 26.636 12.6537 26.6194 12.647 26.6146C12.6406 26.6099 12.6185 26.5927 12.596 26.5358C12.5721 26.4753 12.5462 26.3632 12.5581 26.1858L12.5584 26.1804L12.6781 24.2258C12.6781 24.2248 12.6782 24.2237 12.6783 24.2226C12.6985 23.9103 12.6374 23.5945 12.5528 23.3372C12.4719 23.0909 12.3359 22.7957 12.1219 22.551L10.8951 21.0472L10.8892 21.0399L10.883 21.0326C10.7692 20.8983 10.7245 20.7938 10.7084 20.7319C10.6933 20.6735 10.7007 20.6456 10.7038 20.636C10.707 20.6261 10.7186 20.5966 10.7685 20.5551C10.8207 20.5116 10.9197 20.452 11.0883 20.4081L12.9852 19.9289L12.9852 19.9289L12.9979 19.9256C13.312 19.8418 13.5941 19.676 13.8092 19.5119C14.0226 19.3492 14.2446 19.1313 14.405 18.8746L15.4598 17.2426C15.4599 17.2425 15.4599 17.2424 15.46 17.2423C15.46 17.2423 15.4601 17.2422 15.4601 17.2422C15.5611 17.0861 15.6525 17.0068 15.711 16.9696C15.766 16.9346 15.7945 16.9343 15.8003 16.9343C15.8061 16.9343 15.8345 16.9346 15.8895 16.9696C15.9481 17.0068 16.0394 17.0861 16.1404 17.2422C16.1405 17.2422 16.1405 17.2423 16.1405 17.2423C16.1406 17.2424 16.1406 17.2425 16.1407 17.2426L17.1955 18.8746C17.356 19.1313 17.578 19.3492 17.7913 19.5119C18.0064 19.676 18.2886 19.8418 18.6026 19.9256L18.6026 19.9256L18.6153 19.9289L20.5122 20.4081C20.6808 20.452 20.7799 20.5116 20.832 20.5551C20.8819 20.5966 20.8935 20.6261 20.8968 20.636C20.8999 20.6456 20.9073 20.6735 20.8921 20.7319C20.876 20.7938 20.8314 20.8983 20.7175 21.0326Z" fill="white" stroke="#001F86" stroke-width="2"/>
</svg>
