<svg width="73" height="51" viewBox="0 0 73 51" fill="none" xmlns="http://www.w3.org/2000/svg">
<path d="M6.67236 28.2556C6.85918 28.1695 6.83738 27.9658 6.90899 27.817C7.44608 26.7062 8.31009 26.0248 9.54773 26.0201C15.6223 26.0044 21.6973 26.0044 27.7729 26.0201C28.9633 26.0395 30.1236 26.3992 31.1184 27.0572C33.2465 28.406 35.5537 29.0045 38.0694 28.9951C46.3375 28.9637 54.6055 28.9825 62.8736 28.9825C65.1465 28.9825 66.3125 30.1559 66.3125 32.4385C66.3125 35.5446 66.3125 38.6502 66.3125 41.7553C66.3125 43.7543 65.0671 45.0029 63.0775 45.0029C45.3583 45.0029 27.6385 45.0029 9.91824 45.0029C8.24938 45.0029 7.39315 44.3512 6.67236 42.5495V28.2556Z" fill="#001F86"/>
<path d="M50.5283 26.9866C46.297 26.9866 42.0641 26.9693 37.8328 26.9866C35.0306 27.0022 32.6425 26.056 30.6483 24.0805C29.711 23.168 28.5638 22.5033 27.309 22.1457C27.2157 22.1021 27.1109 22.0901 27.0102 22.1112C26.9095 22.1324 26.8183 22.1857 26.7501 22.2632C25.6962 23.294 24.429 23.9128 22.9594 23.9551C20.2443 24.0335 17.52 24.1447 14.8128 23.9175C10.6219 23.5635 7.51614 19.9117 7.67805 15.6927C7.75153 13.6324 8.61355 11.6805 10.0839 10.2449C11.5543 8.80931 13.5192 8.00125 15.5678 7.98964C18.5257 7.96614 21.4695 7.97711 24.4196 7.98964C26.789 7.98964 28.489 9.66907 28.5389 12.0629C28.5466 12.4326 28.6712 12.5783 28.9919 12.7444C30.0318 13.2864 30.9986 13.147 31.9731 12.5877C32.6115 12.2182 33.2238 11.8047 33.8054 11.3501C34.9603 10.4439 36.3889 9.96344 37.853 9.98866C40.7066 9.98866 43.5602 9.98866 46.4153 9.98866C49.5038 9.99561 52.567 10.5492 55.4649 11.6242C58.1473 12.6166 60.9948 13.0788 63.8512 12.9856C65.5637 12.9292 66.3639 14.0196 66.3296 15.4828C66.258 18.5675 66.3094 21.6553 66.3078 24.7416C66.3078 26.2048 65.5388 26.9897 64.091 26.9897C59.5722 26.9897 55.0513 26.9887 50.5283 26.9866Z" fill="#001F86"/>
<path d="M36.4986 43.0101H10.1751C8.92969 43.0101 8.6557 42.7437 8.6557 41.5139V29.382C8.6557 28.301 8.9546 28.0065 10.0443 28.0065C15.7525 28.0065 21.4607 28.0065 27.1689 28.0065C28.2597 27.9875 29.3326 28.2874 30.2575 28.8697C32.6238 30.3611 35.205 31.0128 37.9916 31.005C46.2612 30.9815 54.5323 30.9972 62.8019 30.9972C64.0785 30.9972 64.3323 31.2525 64.3323 32.5403C64.3323 35.5879 64.3323 38.6355 64.3323 41.6831C64.3323 42.6811 63.9991 43.0163 63.0012 43.0163L36.4986 43.0101Z" fill="#A4C2F7"/>
<path d="M50.3711 24.9877C46.1974 24.9877 42.0237 24.9673 37.85 24.9955C35.5553 25.0112 33.6124 24.2373 31.984 22.6158C31.0272 21.6418 29.8529 20.9118 28.5591 20.4868C28.1621 20.3583 28.1061 20.1938 28.2649 19.8335C28.3695 19.5843 28.4336 19.3198 28.4548 19.0502C28.479 18.8145 28.4138 18.5784 28.2724 18.389C28.1309 18.1996 27.9236 18.0709 27.692 18.0287C27.1907 17.9206 26.8249 18.118 26.5882 18.5692C26.5612 18.6195 26.5383 18.6719 26.5197 18.7259C25.6588 21.1777 24.5053 22.0158 21.9428 22.0033C19.6917 22.0033 17.4359 22.0675 15.1911 21.9469C12.283 21.7902 9.93539 19.4497 9.70343 16.6705C9.43567 13.5215 11.2711 10.9006 14.257 10.1596C14.7667 10.0364 15.2896 9.97699 15.8138 9.98253C18.6471 9.98253 21.481 9.98253 24.3153 9.98253C25.746 9.98253 26.5649 10.7909 26.5571 12.2275C26.5493 14.0103 26.5727 13.7941 28.0812 14.5305C30.1828 15.5535 32.1288 15.1414 33.7837 13.7706C35.6004 12.2698 37.5682 11.8421 39.8317 11.9565C42.5032 12.0912 45.187 11.9095 47.8631 12.0426C50.1881 12.1751 52.4801 12.6572 54.6631 13.473C57.5879 14.5345 60.6803 15.051 63.789 14.9973C64.1984 14.9973 64.3743 15.0537 64.3416 15.5237C64.2934 16.224 64.3167 16.9337 64.3338 17.6324C64.3416 17.9065 64.2731 18.0052 63.982 18.0021C59.9453 17.9645 55.907 18.082 51.8718 17.9316C50.6264 17.8846 49.4308 17.5243 48.271 17.0621C46.6674 16.4113 44.9604 16.0562 43.2317 16.014C41.6983 15.9827 40.1649 15.989 38.6315 15.9968C37.9231 15.9968 37.509 16.3853 37.5012 16.9838C37.5012 17.6104 37.9107 17.9864 38.661 17.9943C39.9231 18.0037 41.1851 18.0037 42.4471 17.9943C44.1768 17.9625 45.8958 18.2728 47.5066 18.9076C49.4438 19.6683 51.5099 20.0408 53.589 20.0042C56.9859 19.9902 60.3827 20.0042 63.7796 19.9886C64.2467 19.9886 64.3494 20.1264 64.3385 20.5698C64.3105 21.8785 64.3105 23.1871 64.3385 24.4958C64.3478 24.9188 64.2155 25.0002 63.8201 24.9987C59.3381 24.983 54.8546 24.9877 50.3711 24.9877Z" fill="#E7EEFF"/>
<path d="M53.3834 40.0134C53.3777 40.2795 53.2682 40.5326 53.0786 40.7182C52.889 40.9037 52.6344 41.0068 52.37 41.0051C52.106 40.9905 51.8579 40.8735 51.6778 40.6786C51.4978 40.4837 51.3999 40.2261 51.4048 39.9601C51.4192 39.7013 51.5333 39.4584 51.7228 39.2828C51.9123 39.1073 52.1623 39.013 52.4198 39.0199C52.6773 39.0268 52.9219 39.1345 53.1019 39.3199C53.2818 39.5054 53.3828 39.7542 53.3834 40.0134Z" fill="#001F86"/>
<path d="M17.6088 39.9803C17.6065 40.2467 17.5024 40.502 17.318 40.6931C17.1336 40.8842 16.8832 40.9964 16.6187 41.0065C16.3641 41.0036 16.1203 40.9031 15.9369 40.7255C15.7535 40.548 15.6443 40.3066 15.6317 40.0508C15.6216 39.9193 15.6386 39.7871 15.6815 39.6625C15.7245 39.5379 15.7925 39.4235 15.8813 39.3265C15.9701 39.2295 16.0778 39.1519 16.1977 39.0987C16.3176 39.0454 16.4471 39.0175 16.5782 39.0169C16.709 39.011 16.8396 39.0314 16.9625 39.0768C17.0854 39.1222 17.198 39.1918 17.2939 39.2814C17.3899 39.3711 17.4671 39.4791 17.5211 39.599C17.5752 39.719 17.605 39.8486 17.6088 39.9803Z" fill="#001F86"/>
<path d="M20.6148 32.9854C20.484 32.9907 20.3535 32.9694 20.231 32.9227C20.1086 32.8761 19.9967 32.8051 19.9021 32.714C19.8075 32.6229 19.7322 32.5136 19.6805 32.3925C19.6288 32.2715 19.6019 32.1412 19.6014 32.0094C19.5942 31.7456 19.6914 31.4897 19.8717 31.298C20.0519 31.1062 20.3005 30.9945 20.5627 30.9872C20.8249 30.9799 21.0792 31.0778 21.2697 31.2592C21.4602 31.4406 21.5713 31.6907 21.5785 31.9546C21.5839 32.0863 21.5631 32.2178 21.5174 32.3413C21.4716 32.4648 21.4018 32.5779 21.3121 32.6739C21.2223 32.7699 21.1144 32.847 20.9947 32.9004C20.875 32.9539 20.7458 32.9828 20.6148 32.9854Z" fill="#001F86"/>
<path d="M52.4214 36.9991C52.1571 37.0017 51.9025 36.8997 51.7123 36.715C51.5222 36.5304 51.4117 36.278 51.4048 36.0122C51.4054 35.753 51.5064 35.5042 51.6864 35.3187C51.8663 35.1332 52.1109 35.0256 52.3684 35.0187C52.6259 35.0117 52.8759 35.106 53.0654 35.2816C53.2549 35.4571 53.369 35.7001 53.3834 35.9589C53.3927 36.2252 53.2966 36.4842 53.1162 36.6793C52.9358 36.8743 52.6859 36.9893 52.4214 36.9991Z" fill="#001F86"/>
<path d="M21.58 40.0007C21.5832 40.1346 21.5595 40.2679 21.5104 40.3924C21.4612 40.5169 21.3877 40.6301 21.294 40.7254C21.2004 40.8206 21.0886 40.8959 20.9654 40.9466C20.8422 40.9974 20.7101 41.0227 20.577 41.0209C20.4438 41.0191 20.3124 40.9903 20.1906 40.9362C20.0688 40.8821 19.9591 40.8039 19.868 40.7062C19.7769 40.6085 19.7064 40.4933 19.6606 40.3675C19.6148 40.2417 19.5946 40.1079 19.6014 39.9741C19.6051 39.7177 19.7092 39.4731 19.8911 39.2936C20.073 39.114 20.318 39.014 20.5728 39.0153C20.7037 39.0115 20.8341 39.0342 20.9561 39.0821C21.0782 39.1299 21.1895 39.2019 21.2834 39.2938C21.3773 39.3856 21.452 39.4955 21.5029 39.617C21.5539 39.7384 21.5801 39.8689 21.58 40.0007Z" fill="#001F86"/>
<path d="M57.3532 39.9882C57.3565 40.2544 57.2548 40.5111 57.0704 40.702C56.886 40.8929 56.6339 41.0024 56.3693 41.0065C56.1047 40.9984 55.8534 40.8875 55.6683 40.6971C55.4831 40.5067 55.3784 40.2515 55.3761 39.9851C55.3821 39.7289 55.4862 39.4851 55.6666 39.3044C55.847 39.1236 56.0899 39.0201 56.3444 39.0153C56.4752 39.0082 56.606 39.0282 56.7288 39.0741C56.8516 39.1199 56.9637 39.1906 57.0583 39.2818C57.1528 39.373 57.2278 39.4827 57.2785 39.6042C57.3293 39.7257 57.3547 39.8564 57.3532 39.9882Z" fill="#001F86"/>
<path d="M12.6099 41.0049C12.4793 40.9989 12.3511 40.9669 12.2328 40.911C12.1145 40.855 12.0083 40.776 11.9204 40.6787C11.8324 40.5813 11.7645 40.4674 11.7204 40.3435C11.6763 40.2196 11.6569 40.0882 11.6634 39.9568C11.6654 39.8249 11.6945 39.6948 11.7488 39.5747C11.8031 39.4547 11.8814 39.3471 11.9788 39.2589C12.0763 39.1707 12.1908 39.1036 12.3152 39.062C12.4396 39.0203 12.5712 39.005 12.7018 39.0168C12.9553 39.0313 13.1937 39.1433 13.3675 39.3296C13.5414 39.5159 13.6374 39.7623 13.6358 40.0179C13.6231 40.2834 13.5095 40.5338 13.3186 40.7174C13.1277 40.9011 12.874 41.004 12.6099 41.0049Z" fill="#001F86"/>
<path d="M25.5467 39.9819C25.5509 40.2482 25.4503 40.5053 25.2669 40.6972C25.0835 40.8892 24.8321 41.0003 24.5675 41.0065C24.303 41 24.0513 40.8907 23.8652 40.7014C23.6791 40.5121 23.5732 40.2576 23.5696 39.9913C23.5724 39.7354 23.6741 39.4905 23.853 39.3087C24.032 39.1268 24.2743 39.0222 24.5286 39.0169C24.6594 39.009 24.7904 39.0281 24.9135 39.073C25.0367 39.1179 25.1494 39.1877 25.2448 39.2781C25.3402 39.3685 25.4161 39.4776 25.4681 39.5986C25.52 39.7196 25.5468 39.8501 25.5467 39.9819Z" fill="#001F86"/>
<path d="M24.5551 30.9973C24.686 30.9973 24.8156 31.0234 24.9364 31.074C25.0572 31.1247 25.1669 31.1989 25.2591 31.2924C25.3513 31.3859 25.4241 31.4968 25.4735 31.6188C25.5229 31.7408 25.5478 31.8714 25.5468 32.0031C25.5501 32.2593 25.4523 32.5065 25.2749 32.6903C25.0975 32.8741 24.8549 32.9797 24.6002 32.9838C24.4695 32.9895 24.339 32.9689 24.2162 32.9234C24.0934 32.8779 23.9808 32.8084 23.8849 32.7187C23.789 32.6291 23.7118 32.5212 23.6577 32.4013C23.6036 32.2815 23.5737 32.1519 23.5697 32.0203C23.5683 31.754 23.6708 31.4977 23.855 31.3065C24.0392 31.1153 24.2905 31.0043 24.5551 30.9973Z" fill="#001F86"/>
<path d="M28.5218 41.0065C28.2578 40.9921 28.0094 40.8766 27.8273 40.6838C27.6452 40.491 27.5433 40.2353 27.5425 39.9694C27.5481 39.8377 27.5796 39.7085 27.6352 39.5892C27.6908 39.4699 27.7694 39.3629 27.8665 39.2744C27.9635 39.1859 28.0771 39.1178 28.2005 39.0738C28.324 39.0299 28.4548 39.011 28.5856 39.0184C28.7117 39.0202 28.8362 39.0473 28.9518 39.0981C29.0674 39.149 29.1717 39.2225 29.2587 39.3144C29.3457 39.4063 29.4136 39.5148 29.4584 39.6334C29.5032 39.7521 29.524 39.8785 29.5196 40.0054C29.5194 40.1371 29.4935 40.2674 29.4432 40.389C29.393 40.5105 29.3194 40.6209 29.2267 40.7139C29.1341 40.8069 29.0241 40.8805 28.9032 40.9307C28.7822 40.9809 28.6526 41.0067 28.5218 41.0065Z" fill="#001F86"/>
<path d="M20.5604 35.0126C20.6912 35.0078 20.8218 35.0293 20.9443 35.076C21.0668 35.1226 21.1788 35.1933 21.2738 35.2841C21.3688 35.3749 21.4448 35.4838 21.4974 35.6045C21.5499 35.7252 21.5781 35.8553 21.58 35.9871C21.5802 36.2465 21.4797 36.4958 21.3001 36.6819C21.1204 36.868 20.8757 36.9762 20.618 36.9836C20.3602 36.9909 20.1098 36.8968 19.92 36.7213C19.7301 36.5457 19.6158 36.3025 19.6014 36.0435C19.5947 35.9118 19.6144 35.7802 19.6594 35.6564C19.7044 35.5326 19.7737 35.4192 19.8632 35.323C19.9527 35.2268 20.0606 35.1497 20.1804 35.0964C20.3002 35.043 20.4294 35.0146 20.5604 35.0126Z" fill="#001F86"/>
<path d="M25.5482 36.0011C25.548 36.1329 25.5219 36.2634 25.4715 36.385C25.421 36.5065 25.3471 36.6169 25.254 36.7096C25.161 36.8024 25.0507 36.8757 24.9294 36.9254C24.8081 36.9751 24.6782 37.0001 24.5472 36.9991C24.283 36.9901 24.0327 36.8773 23.8499 36.685C23.6672 36.4926 23.5666 36.2359 23.5696 35.9698C23.5807 35.7141 23.6883 35.4723 23.8706 35.2938C24.0529 35.1153 24.296 35.0136 24.5504 35.0094C24.6814 35.0056 24.8118 35.0286 24.9338 35.0769C25.0558 35.1252 25.1667 35.1979 25.26 35.2906C25.3533 35.3833 25.4269 35.494 25.4764 35.6161C25.526 35.7383 25.5504 35.8692 25.5482 36.0011Z" fill="#001F86"/>
<path d="M60.3251 39.017C60.4559 39.01 60.5867 39.0303 60.7093 39.0766C60.8319 39.1229 60.9437 39.1941 61.0376 39.2859C61.1316 39.3777 61.2057 39.488 61.2554 39.6099C61.305 39.7319 61.3291 39.8628 61.3261 39.9945C61.3278 40.1262 61.3035 40.257 61.2547 40.3792C61.2059 40.5014 61.1335 40.6127 61.0418 40.7066C60.95 40.8006 60.8407 40.8753 60.7201 40.9265C60.5995 40.9777 60.47 41.0044 60.3391 41.005C60.0852 40.9944 59.8441 40.8899 59.662 40.7116C59.4799 40.5332 59.3696 40.2935 59.3521 40.0384C59.3484 39.9068 59.3707 39.7757 59.4178 39.6529C59.4648 39.53 59.5357 39.4178 59.6262 39.3228C59.7168 39.2277 59.8252 39.1517 59.9452 39.0992C60.0652 39.0467 60.1943 39.0188 60.3251 39.017Z" fill="#001F86"/>
<path d="M48.3987 35.0127C48.5295 35.0087 48.6598 35.031 48.782 35.0783C48.9042 35.1255 49.0158 35.1968 49.1103 35.288C49.2047 35.3791 49.2802 35.4883 49.3323 35.6092C49.3844 35.73 49.4121 35.8601 49.4137 35.9918C49.4121 36.2581 49.3066 36.513 49.1199 36.7017C48.9332 36.8905 48.6804 36.9978 48.4158 37.0007C48.1615 36.9961 47.9185 36.894 47.7365 36.7153C47.5546 36.5365 47.4473 36.2945 47.4366 36.0388C47.4299 35.9071 47.4497 35.7754 47.4949 35.6517C47.5402 35.528 47.6098 35.4147 47.6997 35.3188C47.7896 35.2229 47.8979 35.1464 48.0181 35.0938C48.1382 35.0411 48.2677 35.0135 48.3987 35.0127Z" fill="#001F86"/>
<path d="M45.4423 40.0085C45.4323 40.2744 45.321 40.5262 45.1314 40.7118C44.9419 40.8973 44.6886 41.0022 44.4242 41.0049C44.1601 40.9951 43.9108 40.8802 43.731 40.6854C43.5511 40.4906 43.4555 40.2319 43.4652 39.9662C43.4662 39.8394 43.4922 39.7141 43.5417 39.5975C43.5913 39.481 43.6633 39.3755 43.7537 39.2871C43.8441 39.1988 43.951 39.1294 44.0682 39.083C44.1855 39.0366 44.3107 39.0141 44.4366 39.0168C44.5676 39.0145 44.6978 39.0385 44.8195 39.0872C44.9412 39.136 45.0521 39.2087 45.1456 39.3009C45.2392 39.3932 45.3136 39.5033 45.3646 39.6247C45.4155 39.7462 45.4419 39.8767 45.4423 40.0085Z" fill="#001F86"/>
<path d="M49.4137 39.9928C49.4105 40.2591 49.3046 40.5136 49.1184 40.7027C48.9322 40.8919 48.6803 41.0008 48.4158 41.0064C48.1512 40.9995 47.9001 40.8878 47.7168 40.6957C47.5335 40.5037 47.4328 40.2466 47.4366 39.9803C47.4364 39.8535 47.4611 39.7278 47.5093 39.6106C47.5576 39.4934 47.6284 39.387 47.7176 39.2975C47.8069 39.2079 47.9129 39.137 48.0295 39.0888C48.1461 39.0407 48.271 39.0162 48.3971 39.0168C48.528 39.0118 48.6586 39.0332 48.7811 39.0799C48.9037 39.1266 49.0156 39.1975 49.1104 39.2885C49.2052 39.3796 49.2809 39.4888 49.333 39.6098C49.3851 39.7307 49.4125 39.861 49.4137 39.9928Z" fill="#001F86"/>
<path d="M12.6239 32.9838C12.493 32.9853 12.3632 32.9597 12.2425 32.9087C12.1219 32.8576 12.0129 32.7822 11.9224 32.687C11.8319 32.5918 11.7618 32.4789 11.7165 32.3554C11.6711 32.2318 11.6514 32.1002 11.6587 31.9687C11.6631 31.713 11.7661 31.4691 11.9459 31.2884C12.1257 31.1078 12.3683 31.0045 12.6223 31.0005C12.8866 31.0012 13.1401 31.1058 13.3288 31.2919C13.5176 31.4781 13.6266 31.731 13.6327 31.9969C13.6313 32.1285 13.604 32.2585 13.5525 32.3794C13.5009 32.5003 13.4261 32.6098 13.3324 32.7016C13.2386 32.7933 13.1277 32.8655 13.0061 32.9139C12.8846 32.9624 12.7546 32.9861 12.6239 32.9838Z" fill="#001F86"/>
<path d="M16.589 32.9837C16.4582 32.9833 16.3288 32.956 16.2089 32.9036C16.0889 32.8512 15.9808 32.7747 15.8912 32.6788C15.8015 32.5829 15.7323 32.4696 15.6877 32.3459C15.643 32.2221 15.624 32.0905 15.6316 31.9591C15.6396 31.7032 15.7457 31.4603 15.9276 31.2813C16.1096 31.1023 16.3532 31.0011 16.6077 30.9988C16.8716 31.0032 17.1235 31.1108 17.3101 31.2988C17.4966 31.4868 17.6031 31.7405 17.6071 32.0061C17.6047 32.1378 17.5764 32.2677 17.5238 32.3882C17.4712 32.5088 17.3954 32.6177 17.3007 32.7086C17.206 32.7995 17.0944 32.8706 16.9722 32.9178C16.85 32.9651 16.7198 32.9874 16.589 32.9837Z" fill="#001F86"/>
<path d="M29.5181 31.9686C29.5251 32.1001 29.5053 32.2317 29.4599 32.3552C29.4144 32.4788 29.3443 32.5917 29.2539 32.6869C29.1635 32.7822 29.0546 32.8578 28.9341 32.9091C28.8135 32.9604 28.6838 32.9864 28.5529 32.9853C28.422 32.9874 28.292 32.9634 28.1703 32.9148C28.0486 32.8662 27.9377 32.7939 27.8438 32.7021C27.7499 32.6103 27.675 32.5007 27.6233 32.3797C27.5716 32.2586 27.5442 32.1285 27.5425 31.9968C27.5483 31.7409 27.6495 31.4966 27.826 31.3123C28.0025 31.128 28.2414 31.0172 28.4953 31.002C28.6259 30.9961 28.7564 31.0166 28.8791 31.0623C29.0017 31.108 29.114 31.178 29.2094 31.2681C29.3047 31.3582 29.3811 31.4666 29.4342 31.5869C29.4872 31.7072 29.5157 31.837 29.5181 31.9686Z" fill="#001F86"/>
<path d="M57.3532 35.9713C57.3576 36.103 57.3359 36.2342 57.2894 36.3574C57.243 36.4806 57.1726 36.5933 57.0826 36.6889C56.9925 36.7845 56.8844 36.8611 56.7646 36.9144C56.6449 36.9676 56.5158 36.9964 56.3849 36.999C56.1205 36.9966 55.8674 36.8909 55.6791 36.704C55.4908 36.5172 55.3822 36.264 55.3761 35.9979C55.3791 35.7422 55.4797 35.4975 55.6571 35.3144C55.8344 35.1312 56.0749 35.0237 56.3288 35.0141C56.4595 35.0053 56.5905 35.0235 56.7139 35.0676C56.8372 35.1116 56.9504 35.1806 57.0463 35.2702C57.1422 35.3599 57.2189 35.4683 57.2717 35.5889C57.3245 35.7094 57.3522 35.8396 57.3532 35.9713Z" fill="#001F86"/>
<path d="M61.3261 35.9855C61.329 36.1168 61.3059 36.2474 61.2582 36.3697C61.2104 36.4919 61.139 36.6034 61.048 36.6976C60.957 36.7918 60.8483 36.8668 60.7282 36.9183C60.6081 36.9698 60.479 36.9967 60.3485 36.9975C60.0844 36.9923 59.8327 36.8839 59.6465 36.6954C59.4603 36.5068 59.3542 36.2529 59.3506 35.9871C59.3587 35.7315 59.4632 35.4886 59.6427 35.3077C59.8222 35.1267 60.0634 35.0212 60.3173 35.0126C60.4481 35.0055 60.5789 35.0255 60.7017 35.0714C60.8245 35.1172 60.9367 35.1879 61.0312 35.2791C61.1258 35.3703 61.2007 35.48 61.2515 35.6015C61.3022 35.723 61.3276 35.8537 61.3261 35.9855Z" fill="#001F86"/>
<path d="M44.432 35.0126C44.5628 35.0105 44.6927 35.0344 44.8142 35.0829C44.9358 35.1314 45.0467 35.2035 45.1406 35.2952C45.2344 35.3869 45.3094 35.4963 45.3611 35.6171C45.4129 35.738 45.4405 35.8679 45.4423 35.9995C45.4355 36.2653 45.3263 36.5179 45.1377 36.7042C44.9492 36.8904 44.6962 36.9955 44.432 36.9975C44.1783 36.9931 43.9361 36.8903 43.7559 36.7105C43.5758 36.5306 43.4716 36.2877 43.4652 36.0324C43.4582 35.9006 43.4781 35.7688 43.5236 35.6449C43.5691 35.5211 43.6393 35.408 43.7298 35.3125C43.8203 35.2169 43.9294 35.1411 44.0501 35.0895C44.1709 35.0379 44.3008 35.0117 44.432 35.0126Z" fill="#001F86"/>
<path d="M29.5181 36.0325C29.5159 36.1641 29.4876 36.294 29.4348 36.4145C29.382 36.535 29.3057 36.6436 29.2106 36.7339C29.1154 36.8243 29.0032 36.8946 28.8806 36.9407C28.7581 36.9868 28.6276 37.0077 28.4968 37.0022C28.2432 36.9867 28.0045 36.8761 27.8279 36.6922C27.6513 36.5084 27.5495 36.2646 27.5425 36.009C27.5462 35.7432 27.6545 35.4897 27.8436 35.3041C28.0327 35.1185 28.2872 35.0159 28.5513 35.0189C28.6822 35.0172 28.812 35.0426 28.9328 35.0934C29.0535 35.1443 29.1626 35.2196 29.2532 35.3146C29.3439 35.4097 29.4141 35.5224 29.4597 35.6459C29.5053 35.7694 29.5251 35.901 29.5181 36.0325Z" fill="#001F86"/>
<path d="M33.4941 40.0115C33.4935 40.1432 33.4669 40.2735 33.4161 40.3949C33.3652 40.5163 33.2909 40.6263 33.1976 40.7186C33.1042 40.8109 32.9936 40.8838 32.8722 40.9329C32.7507 40.982 32.6208 41.0064 32.4899 41.0048C32.2262 40.9902 31.9782 40.8738 31.7978 40.6796C31.6174 40.4855 31.5184 40.2288 31.5216 39.963C31.5348 39.7085 31.6449 39.4689 31.8289 39.2939C32.013 39.1188 32.2569 39.0218 32.5102 39.023C32.6404 39.0186 32.7702 39.0412 32.8914 39.0893C33.0126 39.1375 33.1227 39.2101 33.2149 39.3027C33.3072 39.3954 33.3795 39.5061 33.4275 39.628C33.4755 39.7499 33.4982 39.8805 33.4941 40.0115Z" fill="#001F86"/>
<path d="M40.4762 41.0049C40.3453 41.0051 40.2157 40.9792 40.0949 40.9286C39.974 40.878 39.8644 40.8038 39.7723 40.7102C39.6802 40.6167 39.6075 40.5056 39.5583 40.3836C39.5092 40.2615 39.4846 40.1308 39.4861 39.9991C39.4826 39.8727 39.504 39.7469 39.5492 39.6289C39.5944 39.5109 39.6624 39.403 39.7492 39.3117C39.8361 39.2203 39.9402 39.1472 40.0553 39.0966C40.1705 39.046 40.2945 39.0189 40.4202 39.0169C40.5508 39.011 40.6813 39.0312 40.8041 39.0762C40.927 39.1213 41.0398 39.1904 41.136 39.2795C41.2322 39.3686 41.31 39.476 41.3648 39.5955C41.4196 39.7149 41.4504 39.8441 41.4554 39.9756C41.4545 40.2408 41.3524 40.4956 41.1701 40.6871C40.9879 40.8787 40.7394 40.9925 40.4762 41.0049Z" fill="#001F86"/>
<path d="M16.5937 36.9976C16.4627 36.9948 16.3336 36.9657 16.2139 36.912C16.0943 36.8583 15.9865 36.7812 15.8969 36.685C15.8073 36.5888 15.7376 36.4756 15.6921 36.352C15.6465 36.2284 15.626 36.0969 15.6316 35.9652C15.6338 35.834 15.6625 35.7046 15.7159 35.5849C15.7693 35.4652 15.8463 35.3576 15.9422 35.2687C16.0381 35.1798 16.151 35.1114 16.2739 35.0676C16.3969 35.0239 16.5274 35.0057 16.6575 35.0142C16.9114 35.0259 17.1511 35.1354 17.327 35.32C17.5029 35.5046 17.6015 35.7502 17.6025 36.0059C17.5952 36.2707 17.4858 36.5222 17.2976 36.7073C17.1093 36.8924 16.8569 36.9965 16.5937 36.9976Z" fill="#001F86"/>
<path d="M13.6327 35.9713C13.6344 36.2373 13.5329 36.4934 13.3497 36.6851C13.1665 36.8768 12.9161 36.9889 12.6519 36.9975C12.3979 37.0002 12.1528 36.9038 11.9679 36.7286C11.783 36.5533 11.6727 36.3128 11.6602 36.0575C11.6491 35.9262 11.6649 35.7941 11.7066 35.6692C11.7482 35.5443 11.8149 35.4294 11.9024 35.3315C11.99 35.2335 12.0965 35.1547 12.2155 35.0998C12.3345 35.045 12.4634 35.0153 12.5943 35.0125C12.7252 35.0064 12.8559 35.0265 12.979 35.0714C13.1021 35.1164 13.2152 35.1854 13.3117 35.2745C13.4082 35.3636 13.4863 35.4711 13.5414 35.5907C13.5965 35.7102 13.6275 35.8396 13.6327 35.9713Z" fill="#001F86"/>
<path d="M32.5444 36.9975C32.2802 37.001 32.0251 36.9 31.8339 36.7164C31.6427 36.5328 31.5306 36.2811 31.5216 36.0152C31.5208 35.8837 31.5459 35.7533 31.5955 35.6315C31.6451 35.5098 31.7182 35.3992 31.8106 35.3061C31.903 35.213 32.0128 35.1392 32.1337 35.0891C32.2546 35.039 32.3841 35.0135 32.5149 35.0142C32.7685 35.0083 33.0142 35.104 33.1978 35.2802C33.3814 35.4565 33.4879 35.6989 33.4941 35.9541C33.5008 36.0856 33.4814 36.2171 33.4371 36.341C33.3929 36.4649 33.3246 36.5787 33.2362 36.6758C33.1478 36.7729 33.0412 36.8513 32.9224 36.9066C32.8037 36.9618 32.6752 36.9927 32.5444 36.9975Z" fill="#001F86"/>
<path d="M40.4762 35.0141C40.6069 35.0153 40.736 35.0425 40.8562 35.0942C40.9764 35.1459 41.0852 35.2211 41.1764 35.3153C41.2675 35.4095 41.3393 35.521 41.3874 35.6432C41.4356 35.7655 41.4592 35.8962 41.4569 36.0277C41.4436 36.2931 41.3281 36.5428 41.1348 36.7239C40.9415 36.9049 40.6857 37.003 40.4217 36.9974C40.1684 36.9845 39.9299 36.8737 39.7558 36.688C39.5818 36.5024 39.4857 36.2563 39.4876 36.001C39.4839 35.8697 39.507 35.7391 39.5555 35.6171C39.604 35.4952 39.6768 35.3845 39.7694 35.292C39.8621 35.1995 39.9726 35.1271 40.0942 35.0793C40.2157 35.0315 40.3458 35.0093 40.4762 35.0141Z" fill="#001F86"/>
<path d="M37.4763 40.018C37.4785 40.1521 37.4535 40.2853 37.4031 40.4094C37.3526 40.5336 37.2776 40.6462 37.1827 40.7403C37.0877 40.8345 36.9748 40.9083 36.8507 40.9572C36.7265 41.0062 36.5938 41.0293 36.4606 41.0252C36.3274 41.021 36.1963 40.9898 36.0755 40.9332C35.9546 40.8766 35.8464 40.796 35.7574 40.6961C35.6684 40.5962 35.6004 40.4792 35.5576 40.3521C35.5149 40.2251 35.4982 40.0906 35.5085 39.9569C35.5166 39.6943 35.628 39.4456 35.8182 39.2657C36.0084 39.0857 36.2618 38.9892 36.5228 38.9973C36.7837 39.0054 37.0308 39.1175 37.2096 39.3089C37.3884 39.5003 37.4844 39.7554 37.4763 40.018Z" fill="#001F86"/>
<path d="M37.4763 35.9869C37.4763 36.2495 37.3727 36.5014 37.1881 36.687C37.0036 36.8727 36.7534 36.977 36.4924 36.977C36.2315 36.977 35.9812 36.8727 35.7967 36.687C35.6122 36.5014 35.5085 36.2495 35.5085 35.9869C35.5085 35.7243 35.6122 35.4725 35.7967 35.2868C35.9812 35.1011 36.2315 34.9968 36.4924 34.9968C36.7534 34.9968 37.0036 35.1011 37.1881 35.2868C37.3727 35.4725 37.4763 35.7243 37.4763 35.9869Z" fill="#001F86"/>
</svg>
