<svg width="36" height="27" viewBox="0 0 36 27" fill="none" xmlns="http://www.w3.org/2000/svg">
<path d="M33.5 18V22H3V18C3 17.6 3.33333 15.8333 3.5 15L5.5 13L7.5 12H28.5L31 13L33 15L33.5 18Z" fill="#A4C2F7"/>
<path d="M23.5651 18.5159C23.2145 18.5217 22.9518 18.7472 22.9642 19.0315C22.9767 19.3157 23.2452 19.508 23.5875 19.5031C23.9298 19.4981 24.1959 19.2801 24.1992 19.0149C24.2025 18.7497 23.9066 18.5101 23.5651 18.5159ZM23.5651 18.5159C23.2145 18.5217 22.9518 18.7472 22.9642 19.0315C22.9767 19.3157 23.2452 19.508 23.5875 19.5031C23.9298 19.4981 24.1959 19.2801 24.1992 19.0149C24.2025 18.7497 23.9066 18.5101 23.5651 18.5159ZM34.1741 16.8417C34.1807 15.5156 33.5881 14.3793 32.5231 13.3938C32.2785 13.1675 32.1816 12.9471 32.1824 12.657C32.1918 10.1108 32.1932 7.56384 32.1866 5.01604C32.1866 3.14289 30.1775 1.53497 27.8452 1.53497C21.4174 1.53497 14.9898 1.53497 8.56256 1.53497C6.20953 1.53497 4.21786 3.13792 4.21703 5.03178C4.21703 7.61164 4.21869 10.192 4.22201 12.773C4.23032 12.9056 4.20683 13.0383 4.15348 13.16C4.10014 13.2816 4.01849 13.3888 3.91534 13.4725C3.60058 13.7556 3.32616 14.0804 3.09978 14.4381C2.68537 15.0523 2.43672 15.7012 2.38782 16.3991V23.5195C2.46158 23.6737 2.45495 23.842 2.54695 23.997C3.08569 24.9012 4.29329 25.372 5.51414 25.1457C6.68113 24.9294 7.49503 24.1006 7.50332 23.1192C7.50912 22.4819 7.42956 22.5498 8.22357 22.5498H28.3723C29.0727 22.5498 29.0171 22.5084 29.0204 23.0803V23.1797C29.0296 24.4188 30.572 25.5692 32.4609 25.086C33.3196 24.868 34.1882 24.1743 34.1757 23.1615C34.1475 21.0571 34.1583 18.9494 34.1708 16.8417H34.1741ZM5.53072 5.20086C5.53569 3.89547 6.54769 2.88761 8.0893 2.63565C8.31378 2.60313 8.54048 2.58844 8.76728 2.59172C15.0509 2.59172 21.3342 2.59172 27.6172 2.59172C29.2658 2.59172 30.5281 3.42718 30.8215 4.69694C30.8534 4.85175 30.8676 5.00969 30.8637 5.16771C30.8637 7.49947 30.8637 9.83123 30.8637 12.163C30.8637 12.2102 30.8571 12.2583 30.8521 12.3288C30.4717 12.1862 30.1302 12.0179 29.7523 11.9143C29.6172 11.8762 29.6694 11.7743 29.6694 11.698C29.6694 11.2422 29.6694 10.7863 29.6694 10.3296C29.6619 8.73829 28.2762 7.59451 26.2944 7.57213C24.5174 7.5539 22.7396 7.56467 20.9626 7.57213C19.9315 7.57213 19.0779 7.90366 18.4173 8.5344C18.2814 8.66452 18.2316 8.64795 18.1073 8.53025C17.4651 7.90945 16.6043 7.56644 15.7112 7.57545C13.8098 7.55887 11.9077 7.54395 10.0072 7.58208C8.26667 7.61772 6.91403 8.75569 6.85767 10.1572C6.83861 10.6711 6.84607 11.1858 6.85767 11.7005C6.85767 11.8398 6.80877 11.9085 6.64632 11.9541C6.26755 12.0602 5.92275 12.2268 5.52658 12.4083V11.9939C5.52906 9.73122 5.52409 7.46604 5.53072 5.20086ZM28.301 11.6035C27.086 11.4776 25.8651 11.5621 24.6476 11.5397C24.2754 11.5331 23.9016 11.5397 23.532 11.5397C22.0749 11.5397 20.6178 11.5339 19.1607 11.5439C18.9262 11.5439 18.8615 11.4991 18.8765 11.3134C18.9146 10.8344 18.8151 10.3495 18.9353 9.87378C19.1193 9.14607 19.8777 8.58661 20.8002 8.57418C22.6907 8.54932 24.5821 8.546 26.4726 8.57418C27.5426 8.58993 28.3673 9.28448 28.4179 10.144C28.4444 10.5824 28.4262 11.0234 28.4245 11.4626C28.4287 11.5289 28.4701 11.6243 28.301 11.6035ZM8.1382 9.93345C8.31143 9.16679 9.06897 8.59324 10.0379 8.57584C11.6599 8.54766 13.2827 8.56175 14.9047 8.56175C15.3059 8.56175 15.7103 8.53274 16.1057 8.62142C17.0008 8.82117 17.6191 9.45025 17.6382 10.1871C17.6481 10.5775 17.6299 10.9678 17.6456 11.3574C17.6523 11.5165 17.5868 11.5463 17.4028 11.5447C15.925 11.5397 14.4472 11.5447 12.6934 11.5447C11.5231 11.5646 10.0768 11.5124 8.63218 11.5704C8.09676 11.5919 8.0893 11.5961 8.09925 11.156C8.10671 10.7449 8.04786 10.3371 8.1382 9.93345ZM6.18135 22.6418C6.16726 22.815 6.18135 22.9891 6.17389 23.1632C6.14488 23.7044 5.6078 24.1221 4.93065 24.1337C4.2535 24.1453 3.68741 23.7433 3.6294 23.2096C3.60951 23.0123 3.6294 22.8126 3.62028 22.6145C3.61365 22.4993 3.67498 22.4769 3.80179 22.4794C4.17311 22.4843 4.54773 22.4794 4.9149 22.4794C5.2655 22.4794 5.61609 22.4852 5.96585 22.4794C6.12582 22.4744 6.19212 22.5059 6.18135 22.6418ZM32.8993 22.6418C32.8728 22.8963 32.9358 23.154 32.8413 23.4068C32.6557 23.8967 32.0879 24.1901 31.4323 24.1262C30.8372 24.0682 30.3731 23.6571 30.3441 23.1656C30.3043 22.4835 30.3043 22.4835 31.1389 22.4835H31.6362C31.9868 22.4835 32.3374 22.4885 32.6872 22.4835C32.8413 22.4752 32.9143 22.5009 32.8993 22.6393V22.6418ZM32.9035 19.7459C32.8819 20.2515 32.8844 20.7587 32.9035 21.2643C32.9101 21.4541 32.843 21.4922 32.6151 21.4922C27.8294 21.4856 23.0438 21.484 18.2582 21.4873C13.4935 21.4873 8.7286 21.4892 3.96341 21.4931C3.67581 21.4931 3.60868 21.4309 3.61862 21.2104C3.64017 20.7289 3.63851 20.2473 3.61862 19.7666C3.61033 19.5627 3.67084 19.5047 3.93523 19.5056C6.15731 19.5155 8.37939 19.5114 10.6015 19.5114H20.152C20.2556 19.5114 20.3592 19.5114 20.462 19.5114C20.8433 19.4906 21.1027 19.2843 21.0969 19.0099C21.0911 18.7356 20.8292 18.5375 20.4446 18.5201C20.3418 18.5151 20.2382 18.5201 20.1346 18.5201C14.739 18.5201 9.34359 18.522 3.94849 18.5259C3.66918 18.5259 3.60702 18.4687 3.61696 18.2549C3.65758 17.5686 3.55314 16.8782 3.72637 16.1952C4.27091 14.0502 6.49381 12.555 9.22645 12.5484C15.252 12.5351 21.2778 12.5351 27.3039 12.5484C30.4593 12.5583 32.8877 14.56 32.8944 17.0945C32.8944 17.484 32.8794 17.8753 32.9002 18.264C32.9109 18.4654 32.8546 18.5259 32.5877 18.5242C30.6657 18.5143 28.7428 18.5176 26.8207 18.5192C26.3334 18.5192 26.0615 18.7024 26.0615 19.0165C26.0615 19.2652 26.2663 19.4616 26.5746 19.4989C26.698 19.5111 26.8219 19.5158 26.9459 19.513C28.8265 19.513 30.7079 19.513 32.5894 19.513C32.8214 19.5047 32.9126 19.5346 32.9043 19.7434L32.9035 19.7459ZM23.5651 18.5159C23.2145 18.5217 22.9518 18.7472 22.9642 19.0315C22.9767 19.3157 23.2452 19.508 23.5875 19.5031C23.9298 19.4981 24.1959 19.2801 24.1992 19.0149C24.2025 18.7497 23.9066 18.5101 23.5651 18.5159ZM23.5651 18.5159C23.2145 18.5217 22.9518 18.7472 22.9642 19.0315C22.9767 19.3157 23.2452 19.508 23.5875 19.5031C23.9298 19.4981 24.1959 19.2801 24.1992 19.0149C24.2025 18.7497 23.9066 18.5101 23.5651 18.5159ZM23.5651 18.5159C23.2145 18.5217 22.9518 18.7472 22.9642 19.0315C22.9767 19.3157 23.2452 19.508 23.5875 19.5031C23.9298 19.4981 24.1959 19.2801 24.1992 19.0149C24.2025 18.7497 23.9066 18.5101 23.5651 18.5159Z" fill="#001F86"/>
<path d="M24.2017 19.0149C24.2017 19.2802 23.9249 19.499 23.59 19.5031C23.2552 19.5073 22.9783 19.3042 22.9667 19.0315C22.9551 18.7588 23.2154 18.5218 23.5676 18.516C23.9199 18.5102 24.2017 18.7422 24.2017 19.0149Z" fill="#FEFEFE"/>
<path d="M24.2017 19.0149C24.2017 19.2802 23.9249 19.499 23.59 19.5031C23.2552 19.5073 22.9783 19.3042 22.9667 19.0315C22.9551 18.7588 23.2154 18.5218 23.5676 18.516C23.9199 18.5102 24.2017 18.7422 24.2017 19.0149Z" fill="#001F86"/>
</svg>
