<svg width="63" height="50" viewBox="0 0 63 50" fill="none" xmlns="http://www.w3.org/2000/svg">
<path d="M57.3947 26.2422C56.7276 25.7901 55.9747 25.8947 55.2368 25.8947C49.4191 25.8947 43.6013 25.9209 37.7836 25.8947C34.5821 25.8723 32.1932 24.4003 30.613 21.5908C30.1258 20.6531 29.3382 19.907 28.3768 19.4724C27.9037 19.2492 27.3866 19.1355 26.8637 19.1399C26.6363 19.1399 26.4053 19.1399 26.1779 19.1399C25.9506 19.1399 25.6226 19.2221 25.5108 18.9718V18.9531C26.1668 18.9361 26.8232 18.9661 27.4749 19.0428C28.1652 19.1736 28.8158 19.463 29.3758 19.8882C29.9358 20.3134 30.3899 20.8629 30.7024 21.4936C31.2494 22.5455 32.0249 23.4608 32.9719 24.1721C33.9188 24.8834 35.0129 25.3725 36.1735 25.6033C36.7871 25.724 37.412 25.7766 38.037 25.7602C44.1293 25.7602 50.2241 25.7602 56.3213 25.7602C56.5272 25.7327 56.7367 25.7632 56.9263 25.8483C57.1159 25.9334 57.2781 26.0698 57.3947 26.2422Z" fill="#FEFEFE" stroke="#001F86" stroke-width="0.2"/>
<path d="M57 41.5H8.5H8V24.5H25.5L27.5 26L30.5 28L34 29.5H41.5H57V41.5Z" fill="#A4C2F7"/>
<path d="M27 13.5V10L26.5 8.5L25 7.5L22.5 7H19.5H15.5L13 7.5L10.5 9L9 10.5L8.5 12.5V17L12.5 21L18 21.5L22.5 20.5L25 18.5L27 13.5Z" fill="#E8EDFC"/>
<path d="M27.2923 16.0652C26.8347 17.0959 26.2364 18.0578 25.5145 18.9233C25.4288 18.6916 25.6748 18.4936 25.8164 18.3106C26.2784 17.7174 26.6687 17.0716 26.9792 16.3865C27.0509 16.1926 27.1863 16.029 27.3631 15.9224C27.5398 15.8158 27.7475 15.7726 27.9519 15.7999C28.7681 15.8186 29.5806 15.7999 30.3968 15.7999C30.5938 15.8169 30.7917 15.7813 30.9704 15.6966C31.1492 15.6119 31.3023 15.4813 31.4143 15.318C32.3245 14.0485 33.5944 13.0826 35.0592 12.5458C35.8372 12.2469 36.6634 12.0936 37.4966 12.0937C39.8408 12.0937 42.1925 12.1535 44.5368 12.0937C46.2588 12.0495 47.9714 12.3611 49.5681 13.0091C50.9471 13.5433 52.3447 14.0477 53.7572 14.5035C54.3156 14.682 54.8896 14.8071 55.4716 14.8771C56.1282 15.0237 56.8158 14.9142 57.3947 14.5707C57.3042 14.7536 57.1577 14.9027 56.9766 14.9961C56.7956 15.0896 56.5895 15.1225 56.3884 15.0901C55.1678 15.0391 53.964 14.7867 52.8255 14.3428C51.2378 13.76 49.6476 13.1871 48.055 12.6242C47.1766 12.3207 46.2522 12.1728 45.3232 12.1871C42.8447 12.1871 40.3663 12.1871 37.8917 12.1871C36.6313 12.1565 35.3834 12.4427 34.2618 13.0196C33.1401 13.5964 32.1804 14.4457 31.4702 15.4898C31.3694 15.647 31.2284 15.7743 31.0619 15.8584C30.8954 15.9425 30.7095 15.9804 30.5235 15.968C29.5769 15.9456 28.634 15.968 27.6873 15.968C27.542 15.968 27.3631 15.912 27.2923 16.0652Z" fill="#FEFEFE" stroke="#001F86" stroke-width="0.2"/>
<path d="M25.5146 18.9382C26.1706 18.9212 26.8269 18.9512 27.4787 19.0279C28.169 19.1587 28.8196 19.448 29.3796 19.8733C29.9396 20.2985 30.3936 20.848 30.7062 21.4787C31.2532 22.5306 32.0287 23.4459 32.9756 24.1572C33.9226 24.8685 35.0167 25.3576 36.1773 25.5884C36.7909 25.709 37.4158 25.7617 38.0408 25.7453C44.1331 25.7453 50.2278 25.7453 56.3251 25.7453C56.5329 25.7171 56.7445 25.748 56.9356 25.8346C57.1267 25.9211 57.2897 26.0598 57.4059 26.2348V26.7242C57.3101 26.8932 57.1678 27.031 56.9959 27.1211C56.8241 27.2112 56.63 27.2498 56.4369 27.2323C50.2427 27.2323 44.0486 27.2323 37.8544 27.2323C34.1275 27.2099 31.3398 25.5249 29.5024 22.2932C29.2096 21.7093 28.755 21.2224 28.1931 20.8911C27.6312 20.5597 26.9859 20.398 26.3345 20.4251C24.9183 20.4251 23.6325 20.5148 22.3877 21.3853C21.1429 22.2558 19.6186 22.5771 18.0831 22.6519C16.4544 22.7266 14.8257 22.8088 13.2381 22.338C12.097 21.9962 11.0427 21.4121 10.1467 20.6256C9.25077 19.8391 8.53415 18.8685 8.04555 17.7797C7.55695 16.6909 7.3078 15.5095 7.31503 14.3157C7.32226 13.1218 7.5857 11.9435 8.08746 10.8608C8.20672 10.6067 8.33343 10.3527 8.62786 10.2742C8.75891 10.2323 8.89933 10.2298 9.03179 10.267C9.16425 10.3042 9.28295 10.3794 9.37325 10.4834C9.47532 10.6005 9.53843 10.7465 9.5538 10.9012C9.56916 11.0559 9.53601 11.2116 9.45897 11.3465C9.04722 12.1833 8.81369 13.0968 8.77321 14.029C8.67754 15.8198 9.29306 17.5758 10.4852 18.913C11.6774 20.2502 13.3491 21.0598 15.1351 21.1649C17.0172 21.2919 18.9067 21.277 20.7255 20.5596C22.4495 19.8809 23.9352 18.7068 24.996 17.1847C26.0569 15.6626 26.6457 13.8603 26.6886 12.004C26.7464 11.3529 26.7163 10.6969 26.5991 10.0538C26.4313 9.34013 26.0293 8.70364 25.4576 8.24635C24.8859 7.78907 24.1775 7.53748 23.4461 7.53193C20.7851 7.51325 18.1315 7.50577 15.4742 7.53193C13.9626 7.53819 12.4991 8.0659 11.3299 9.02636C11.2703 9.07867 11.2069 9.13097 11.1398 9.17954C11.0682 9.25054 10.983 9.30627 10.8894 9.34336C10.7957 9.38045 10.6956 9.39813 10.5949 9.39534C10.4942 9.39254 10.3952 9.36933 10.3037 9.32711C10.2123 9.28488 10.1303 9.22451 10.0627 9.14965C9.99466 9.07246 9.94398 8.98147 9.91413 8.88288C9.88429 8.78429 9.87598 8.68041 9.88977 8.57831C9.90356 8.47621 9.93913 8.37829 9.99406 8.29121C10.049 8.20412 10.122 8.12993 10.2081 8.07366C11.2563 7.15786 12.5217 6.52748 13.8828 6.24298C14.5217 6.11212 15.1725 6.04826 15.8246 6.05244C18.2843 6.05244 20.7441 6.05244 23.2076 6.05244C26.1109 6.05244 28.1532 8.09608 28.1793 11.0027C28.2301 12.0815 28.1361 13.1622 27.8998 14.2158C27.8365 14.4474 27.8998 14.496 28.1272 14.4922C28.7943 14.4922 29.4651 14.4922 30.1322 14.4922C30.2185 14.492 30.3031 14.4695 30.3782 14.427C30.4532 14.3844 30.5161 14.3233 30.5608 14.2494C31.4229 13.1252 32.5366 12.2199 33.812 11.6066C35.0873 10.9933 36.4887 10.6892 37.9029 10.7188C40.4111 10.7188 42.9231 10.7412 45.4313 10.7188C47.1904 10.6964 48.7855 11.339 50.3844 11.9031C51.8751 12.4262 53.3212 13.0501 54.8567 13.4349C55.3428 13.5652 55.8444 13.6281 56.3475 13.6217C56.5471 13.6011 56.7487 13.633 56.9324 13.7142C57.116 13.7955 57.2753 13.9233 57.3947 14.085V14.5707C57.3042 14.7536 57.1578 14.9027 56.9767 14.9961C56.7956 15.0895 56.5895 15.1224 56.3885 15.09C55.1679 15.0391 53.9641 14.7866 52.8255 14.3428C51.2378 13.76 49.6477 13.1871 48.055 12.6242C47.1766 12.3207 46.2522 12.1728 45.3232 12.1871C42.8448 12.1871 40.3664 12.1871 37.8917 12.1871C36.6314 12.1564 35.3835 12.4426 34.2618 13.0195C33.1402 13.5964 32.1804 14.4457 31.4702 15.4898C31.3694 15.647 31.2285 15.7743 31.062 15.8584C30.8955 15.9425 30.7096 15.9803 30.5236 15.968C29.5769 15.9456 28.634 15.968 27.6874 15.968C27.5458 15.968 27.3669 15.912 27.3147 16.0801C26.8502 17.1121 26.2443 18.074 25.5146 18.9382Z" fill="#001F86" stroke="#001F86" stroke-width="0.2"/>
<path d="M57.3947 29.5748C57.2639 29.7416 57.092 29.8713 56.8959 29.9512C56.6999 30.0311 56.4864 30.0585 56.2766 30.0306C49.024 30.0306 41.7714 30.0306 34.5188 30.0306C33.4002 30.0599 32.2893 29.8363 31.2686 29.3765C30.248 28.9166 29.3437 28.2323 28.6228 27.3742C28.0481 26.6922 27.3275 26.1487 26.5146 25.7839C25.7016 25.4191 24.8172 25.2425 23.9269 25.2671H8.44151C8.29507 25.2765 8.14818 25.2765 8.00174 25.2671C7.91136 25.2661 7.82207 25.2472 7.739 25.2116C7.65592 25.1759 7.58071 25.1241 7.51767 25.0592C7.45463 24.9942 7.40502 24.9175 7.37169 24.8332C7.33835 24.749 7.32196 24.659 7.32343 24.5684C7.30984 24.3872 7.36724 24.2078 7.48345 24.0683C7.59965 23.9288 7.76551 23.8402 7.94583 23.8212C8.09213 23.8081 8.23931 23.8081 8.38561 23.8212C13.5511 23.8212 18.7179 23.8212 23.8859 23.8212C25.0052 23.7914 26.1168 24.0147 27.1381 24.4745C28.1595 24.9344 29.0644 25.619 29.7856 26.4776C30.367 27.1645 31.0956 27.7107 31.9172 28.0756C32.7387 28.4405 33.6319 28.6145 34.53 28.5847C41.7826 28.5847 49.0352 28.5847 56.2878 28.5847C56.496 28.5604 56.7069 28.5879 56.9019 28.6648C57.097 28.7417 57.2701 28.8656 57.4059 29.0256L57.3947 29.5748Z" fill="#001F86" stroke="#001F86" stroke-width="0.2"/>
<path d="M57.3947 41.4407C57.282 41.607 57.1266 41.7399 56.945 41.8254C56.7633 41.9108 56.5621 41.9457 56.3624 41.9264C52.5659 41.9264 48.7694 41.9264 44.9729 41.9264C44.8489 41.9382 44.7241 41.9382 44.6002 41.9264C44.416 41.9102 44.2451 41.8235 44.123 41.6844C44.0008 41.5453 43.9368 41.3643 43.9442 41.1791C43.9422 41.0847 43.9592 40.9908 43.9942 40.9031C44.0293 40.8154 44.0816 40.7357 44.148 40.6687C44.2145 40.6018 44.2937 40.5489 44.381 40.5134C44.4683 40.4778 44.5619 40.4603 44.6561 40.4618C45.2263 40.4394 45.7965 40.4357 46.3667 40.4618C46.6724 40.4618 46.7394 40.3796 46.7394 40.0882C46.7394 38.6498 46.7394 37.2114 46.7394 35.773C46.7394 35.1566 47.0003 34.8128 47.4587 34.8091C47.9171 34.8054 48.2041 35.1603 48.2041 35.7618C48.2041 37.1815 48.2041 38.605 48.2041 40.0247C48.2041 40.3423 48.2488 40.4768 48.6178 40.473C50.28 40.4506 51.9422 40.4543 53.6044 40.473C53.951 40.473 54.0368 40.3721 54.033 40.0359C54.033 38.6461 54.033 37.26 54.033 35.8702C54.0285 35.7074 54.041 35.5446 54.0703 35.3845C54.0979 35.2122 54.1909 35.0573 54.3299 34.9522C54.4688 34.847 54.6428 34.7998 54.8157 34.8203C54.9023 34.8193 54.9883 34.8355 55.0687 34.8678C55.1491 34.9001 55.2224 34.948 55.2843 35.0087C55.3463 35.0694 55.3957 35.1418 55.4298 35.2216C55.4638 35.3015 55.4818 35.3873 55.4828 35.4741C55.5052 35.9785 55.4828 36.4866 55.4828 36.9947C55.4828 38.0221 55.4828 39.0533 55.4828 40.0807C55.4828 40.3759 55.5499 40.5066 55.8555 40.4543C56.0493 40.4282 56.2506 40.4543 56.4444 40.4543C56.6379 40.424 56.836 40.4566 57.0097 40.5474C57.1835 40.6381 57.3236 40.7823 57.4096 40.9587L57.3947 41.4407Z" fill="#001F86" stroke="#001F86" stroke-width="0.2"/>
<path d="M24.8623 41.9189H8.46383C8.31733 41.9264 8.17055 41.9264 8.02405 41.9189C7.83026 41.913 7.64637 41.8318 7.51138 41.6923C7.37639 41.5528 7.30094 41.366 7.30103 41.1717C7.3039 41.0768 7.32553 40.9834 7.36465 40.897C7.40378 40.8106 7.45962 40.7328 7.52895 40.6682C7.59828 40.6035 7.67972 40.5533 7.76855 40.5205C7.85737 40.4876 7.95182 40.4728 8.04641 40.4768C8.56781 40.4487 9.09033 40.4487 9.61172 40.4768C10.0999 40.5178 10.2602 40.3946 10.2528 39.8603C10.2229 37.4431 10.2528 35.0258 10.2528 32.6086C10.2377 32.462 10.2377 32.3143 10.2528 32.1677C10.2957 32.0094 10.3893 31.8697 10.5193 31.77C10.6493 31.6704 10.8084 31.6164 10.9721 31.6164C11.1357 31.6164 11.2948 31.6704 11.4248 31.77C11.5548 31.8697 11.6484 32.0094 11.6913 32.1677C11.7082 32.3142 11.7082 32.4621 11.6913 32.6086C11.6913 35.0931 11.6913 37.5776 11.6913 40.0583C11.6913 40.402 11.7733 40.4954 12.1199 40.4917C13.7822 40.4718 15.4444 40.4718 17.1066 40.4917C17.4532 40.4917 17.5389 40.3946 17.5389 40.0546C17.5389 37.6037 17.5389 35.1528 17.5389 32.702C17.5319 32.5109 17.5419 32.3196 17.5687 32.1303C17.597 31.9703 17.6788 31.8246 17.8006 31.7171C17.9223 31.6097 18.0769 31.547 18.2389 31.5392C18.4009 31.5313 18.5607 31.5789 18.6922 31.6741C18.8237 31.7693 18.919 31.9065 18.9626 32.0631C19.0018 32.2547 19.0168 32.4505 19.0073 32.6459C19.0073 35.0968 19.0073 37.5477 19.0073 39.9985C19.0073 40.3721 19.1005 40.4618 19.4657 40.4581C21.0956 40.4357 22.7255 40.4357 24.3555 40.4581C24.7281 40.4581 24.8437 40.3796 24.8437 39.9836C24.8213 37.5178 24.8437 35.0482 24.8437 32.5824C24.8308 32.4199 24.8409 32.2564 24.8735 32.0967C24.9146 31.931 25.0125 31.7849 25.15 31.6842C25.2876 31.5834 25.4561 31.5343 25.6261 31.5454C25.7962 31.5565 25.9569 31.6272 26.0802 31.745C26.2036 31.8629 26.2817 32.0204 26.3009 32.1901C26.3102 32.3369 26.3102 32.4842 26.3009 32.631C26.3009 35.0818 26.3009 37.5327 26.3009 39.9836C26.3009 40.3236 26.3382 40.4655 26.737 40.4581C28.3992 40.4319 30.0614 40.4394 31.7236 40.4581C32.0739 40.4581 32.1596 40.3572 32.1522 40.0172C32.1522 38.5975 32.1522 37.1741 32.1522 35.7543C32.1522 35.1416 32.4168 34.7942 32.8752 34.7942C33.3336 34.7942 33.6206 35.1678 33.6206 35.7543C33.6206 37.1778 33.6206 38.5975 33.6206 40.021C33.6206 40.3572 33.6951 40.4618 34.0455 40.4581C35.6928 40.4394 37.3401 40.4357 38.9836 40.4581C39.3563 40.4581 39.4532 40.3871 39.4458 40.006C39.4234 38.6498 39.4458 37.2936 39.4458 35.9374C39.4458 35.8253 39.4458 35.7095 39.4458 35.5937C39.4418 35.492 39.458 35.3905 39.4934 35.2951C39.5288 35.1997 39.5827 35.1123 39.652 35.038C39.7214 34.9636 39.8047 34.9038 39.8972 34.8619C39.9898 34.8201 40.0897 34.7971 40.1912 34.7942C40.2932 34.7982 40.3932 34.8232 40.4852 34.8676C40.5771 34.912 40.659 34.9748 40.7258 35.0522C40.7925 35.1296 40.8427 35.2199 40.8732 35.3176C40.9037 35.4152 40.9138 35.5181 40.903 35.6198C40.903 37.0582 40.9254 38.4966 40.903 39.9313C40.903 40.3833 41.0297 40.5178 41.4471 40.4506C41.5598 40.4377 41.6736 40.4377 41.7863 40.4506C41.8766 40.4496 41.9663 40.4667 42.0499 40.5009C42.1336 40.5351 42.2095 40.5857 42.2734 40.6497C42.3373 40.7138 42.3878 40.7899 42.4219 40.8738C42.456 40.9576 42.4731 41.0475 42.4721 41.138C42.4869 41.3172 42.4318 41.4951 42.3186 41.6344C42.2053 41.7737 42.0426 41.8636 41.8646 41.8853C41.7023 41.9022 41.5386 41.9022 41.3763 41.8853L24.8623 41.9189Z" fill="#001F86" stroke="#001F86" stroke-width="0.2"/>
</svg>
