<svg width="40" height="19" viewBox="0 0 40 19" fill="none" xmlns="http://www.w3.org/2000/svg">
<path d="M2.5 15.5L3 13.5L6.5 13H34.5L38 13.5V15.5L36 16.5H31H19L9.5 17L4 16.5L2.5 15.5Z" fill="#A4C2F7"/>
<path d="M3 13L2.5 5L5.5 3.5H7.5L11.5 5L14.5 3.5L16.5 3L18.5 4.5H21.5L23 4L25 3L26.5 4L28.5 4.5H31L33 3.5H34.5L36.5 4L38 5V12.5L7.5 13H3Z" fill="#E7EEFF"/>
<path d="M38.9698 6.92809V4.63315C38.9698 4.29711 38.8199 4.14217 38.4858 4.1301C37.8012 4.10695 37.1484 3.83511 36.6497 3.36545C35.8609 2.64004 34.9624 2.25873 34.0509 2.25873C33.1393 2.25873 32.2258 2.6491 31.435 3.38759C31.1777 3.64375 30.8722 3.84641 30.5362 3.98385C30.2002 4.1213 29.8402 4.19082 29.4772 4.18838C29.1141 4.18595 28.7552 4.11162 28.421 3.96968C28.0868 3.82775 27.7841 3.62101 27.5303 3.36143C27.1939 3.02091 26.7933 2.75055 26.3517 2.56602C25.9101 2.3815 25.4363 2.28648 24.9576 2.28648C24.479 2.28648 24.0052 2.3815 23.5636 2.56602C23.1219 2.75055 22.7213 3.02091 22.385 3.36143C21.8603 3.87915 21.1561 4.17465 20.4191 4.18644C19.6795 4.17505 18.9733 3.87628 18.4501 3.35338C17.7674 2.67671 16.8477 2.29301 15.8865 2.28388C14.9189 2.29374 13.9929 2.679 13.3038 3.35841C12.7823 3.87737 12.0796 4.17353 11.3439 4.18443C10.601 4.17262 9.89167 3.87245 9.36592 3.34734C8.68468 2.67418 7.76808 2.29275 6.8104 2.28388C5.841 2.29377 4.91369 2.68144 4.22569 3.36444C3.67032 3.9007 3.10388 4.16934 2.49317 4.17437C2.16216 4.17437 1.97502 4.26693 1.83215 4.49733V14.9176C1.85309 14.9694 1.86925 15.0229 1.88045 15.0776C2.1692 16.5284 3.29605 17.4671 4.74988 17.4671C9.96892 17.4671 15.1876 17.4671 20.406 17.4671C25.6244 17.4671 30.8427 17.4651 36.0611 17.4611C37.7101 17.4611 38.9577 16.2135 38.9647 14.5605C38.9748 12.02 38.9718 9.4313 38.9698 6.92809ZM3.37352 11.021C3.37352 10.7949 3.37352 10.5682 3.37352 10.3408C3.38458 8.86184 3.37955 7.38286 3.37352 5.90287C3.37352 5.68454 3.42181 5.58091 3.64919 5.50847C4.25585 5.30596 4.80701 4.96494 5.25897 4.51242C6.18459 3.61698 7.34565 3.60189 8.27731 4.46714C10.1115 6.17049 12.5573 6.16546 14.3945 4.45507C15.2839 3.62704 16.4439 3.62402 17.3293 4.44803C19.1956 6.18357 21.6294 6.1725 23.5018 4.42187C24.3288 3.64716 25.5573 3.60591 26.3511 4.40778C26.7594 4.82526 27.2472 5.15678 27.7856 5.38281C28.3241 5.60884 28.9023 5.7248 29.4863 5.72386C30.0702 5.72292 30.6481 5.60511 31.1858 5.37735C31.7235 5.14959 32.2102 4.81651 32.6172 4.39772C33.407 3.59988 34.6073 3.60994 35.4343 4.37257C35.9575 4.8545 36.5189 5.25996 37.2071 5.4642C37.3711 5.5135 37.4083 5.60405 37.4033 5.76603C37.3982 7.2913 37.3932 8.81757 37.4033 10.3428C37.4033 10.6105 37.4033 10.8791 37.4093 11.1477V12.1287H3.37352V11.021ZM37.4153 14.0302C37.3861 14.2395 37.4153 14.4558 37.4053 14.6691C37.3841 14.991 37.2469 15.2944 37.0192 15.5228C36.7915 15.7513 36.4886 15.8895 36.1667 15.9117C36.0541 15.9197 35.9414 15.9117 35.8277 15.9117H4.96821C3.87657 15.9117 3.38257 15.4187 3.38157 14.3311C3.38157 13.6529 3.38157 13.6529 4.05969 13.6529H20.4311C25.9627 13.6529 31.4964 13.6506 37.032 13.6459C37.3268 13.6499 37.4596 13.7053 37.4153 14.0302Z" fill="#001F86"/>
<path d="M7.89797 7.9996C7.90036 8.22332 7.83622 8.44271 7.71369 8.62991C7.59116 8.8171 7.41576 8.96367 7.20977 9.051C7.00378 9.13832 6.77649 9.16246 6.55675 9.12036C6.33701 9.07826 6.13474 8.97181 5.97562 8.81453C5.81649 8.65724 5.70769 8.45623 5.66304 8.23699C5.61838 8.01776 5.63987 7.7902 5.72479 7.58321C5.80971 7.37621 5.95423 7.19912 6.13999 7.07442C6.32575 6.94972 6.54437 6.88302 6.76811 6.88281C7.06457 6.88588 7.34821 7.00412 7.55907 7.21253C7.76992 7.42094 7.89146 7.70319 7.89797 7.9996Z" fill="#001F86"/>
<path d="M17.0033 8.01567C17.0025 8.23969 16.935 8.4584 16.8095 8.64396C16.6839 8.82952 16.506 8.97353 16.2984 9.05766C16.0908 9.14179 15.8628 9.16224 15.6435 9.1164C15.4242 9.07057 15.2235 8.96052 15.067 8.80027C14.9104 8.64002 14.8051 8.43681 14.7644 8.21651C14.7237 7.99621 14.7495 7.76878 14.8384 7.56317C14.9274 7.35756 15.0755 7.18307 15.2639 7.06191C15.4524 6.94075 15.6726 6.87839 15.8966 6.88279C16.1915 6.89262 16.4712 7.01594 16.6774 7.22701C16.8836 7.43808 17.0004 7.72061 17.0033 8.01567Z" fill="#001F86"/>
<path d="M26.0412 8.0147C26.0406 8.23839 25.9736 8.45686 25.8486 8.64237C25.7236 8.82789 25.5463 8.97209 25.3392 9.05666C25.1321 9.14124 24.9046 9.16239 24.6854 9.11742C24.4663 9.07245 24.2655 8.9634 24.1084 8.80409C23.9514 8.64479 23.8452 8.44242 23.8034 8.22268C23.7616 8.00293 23.786 7.77571 23.8735 7.56986C23.9611 7.36401 24.1078 7.1888 24.2951 7.06648C24.4824 6.94416 24.7018 6.88024 24.9254 6.88283C25.2218 6.89036 25.5036 7.01253 25.7117 7.22363C25.9198 7.43472 26.0379 7.7183 26.0412 8.0147Z" fill="#001F86"/>
<path d="M35.1505 8.02879C35.1469 8.25243 35.0768 8.46995 34.9494 8.65373C34.8219 8.83752 34.6427 8.97929 34.4345 9.06106C34.2263 9.14282 33.9985 9.1609 33.78 9.11298C33.5615 9.06507 33.3622 8.95333 33.2073 8.79195C33.0524 8.63056 32.949 8.42681 32.9101 8.20654C32.8713 7.98627 32.8987 7.75942 32.989 7.55476C33.0792 7.35011 33.2282 7.17689 33.4171 7.05708C33.606 6.93727 33.8262 6.87627 34.0498 6.88182C34.3462 6.89303 34.6266 7.0189 34.8319 7.23288C35.0373 7.44686 35.1515 7.73222 35.1505 8.02879Z" fill="#001F86"/>
<path d="M32.8928 8.00965C32.893 7.78604 32.9596 7.56753 33.0842 7.38184C33.2088 7.19614 33.3857 7.05162 33.5925 6.9666C33.7993 6.88159 34.0267 6.85991 34.2459 6.90432C34.465 6.94873 34.6661 7.05723 34.8235 7.21605C34.9809 7.37487 35.0876 7.57686 35.13 7.7964C35.1725 8.01594 35.1487 8.24315 35.0619 8.4492C34.975 8.65524 34.8289 8.83085 34.6421 8.95376C34.4553 9.07666 34.2362 9.14131 34.0126 9.13952C33.7156 9.13403 33.4325 9.01292 33.2233 8.80192C33.0142 8.59093 32.8957 8.3067 32.8928 8.00965Z" fill="#001F86"/>
<path d="M38.9698 6.92809V4.63315C38.9698 4.29711 38.8199 4.14217 38.4858 4.1301C37.8012 4.10695 37.1484 3.83511 36.6497 3.36545C35.8609 2.64004 34.9624 2.25873 34.0509 2.25873C33.1393 2.25873 32.2258 2.6491 31.435 3.38759C31.1777 3.64375 30.8722 3.84641 30.5362 3.98385C30.2002 4.1213 29.8402 4.19082 29.4772 4.18838C29.1141 4.18595 28.7552 4.11162 28.421 3.96968C28.0868 3.82775 27.7841 3.62101 27.5303 3.36143C27.1939 3.02091 26.7933 2.75055 26.3517 2.56602C25.9101 2.3815 25.4363 2.28648 24.9576 2.28648C24.479 2.28648 24.0052 2.3815 23.5636 2.56602C23.1219 2.75055 22.7213 3.02091 22.385 3.36143C21.8603 3.87915 21.1561 4.17465 20.4191 4.18644C19.6795 4.17505 18.9733 3.87628 18.4501 3.35338C17.7674 2.67671 16.8477 2.29301 15.8865 2.28388C14.9189 2.29374 13.9929 2.679 13.3038 3.35841C12.7823 3.87737 12.0796 4.17353 11.3439 4.18443C10.601 4.17262 9.89167 3.87245 9.36592 3.34734C8.68468 2.67418 7.76808 2.29275 6.8104 2.28388C5.841 2.29377 4.91369 2.68144 4.22569 3.36444C3.67032 3.9007 3.10388 4.16934 2.49317 4.17437C2.16216 4.17437 1.97502 4.26693 1.83215 4.49733V14.9176C1.85309 14.9694 1.86925 15.0229 1.88045 15.0776C2.1692 16.5284 3.29605 17.4671 4.74988 17.4671C9.96892 17.4671 15.1876 17.4671 20.406 17.4671C25.6244 17.4671 30.8427 17.4651 36.0611 17.4611C37.7101 17.4611 38.9577 16.2135 38.9647 14.5605C38.9748 12.02 38.9718 9.4313 38.9698 6.92809ZM3.37352 11.021C3.37352 10.7949 3.37352 10.5682 3.37352 10.3408C3.38458 8.86184 3.37955 7.38286 3.37352 5.90287C3.37352 5.68454 3.42181 5.58091 3.64919 5.50847C4.25585 5.30596 4.80701 4.96494 5.25897 4.51242C6.18459 3.61698 7.34565 3.60189 8.27731 4.46714C10.1115 6.17049 12.5573 6.16546 14.3945 4.45507C15.2839 3.62704 16.4439 3.62402 17.3293 4.44803C19.1956 6.18357 21.6294 6.1725 23.5018 4.42187C24.3288 3.64716 25.5573 3.60591 26.3511 4.40778C26.7594 4.82526 27.2472 5.15678 27.7856 5.38281C28.3241 5.60884 28.9023 5.7248 29.4863 5.72386C30.0702 5.72292 30.6481 5.60511 31.1858 5.37735C31.7235 5.14959 32.2102 4.81651 32.6172 4.39772C33.407 3.59988 34.6073 3.60994 35.4343 4.37257C35.9575 4.8545 36.5189 5.25996 37.2071 5.4642C37.3711 5.5135 37.4083 5.60405 37.4033 5.76603C37.3982 7.2913 37.3932 8.81757 37.4033 10.3428C37.4033 10.6105 37.4033 10.8791 37.4093 11.1477V12.1287H3.37352V11.021ZM37.4153 14.0302C37.3861 14.2395 37.4153 14.4558 37.4053 14.6691C37.3841 14.991 37.2469 15.2944 37.0192 15.5228C36.7915 15.7513 36.4886 15.8895 36.1667 15.9117C36.0541 15.9197 35.9414 15.9117 35.8277 15.9117H4.96821C3.87657 15.9117 3.38257 15.4187 3.38157 14.3311C3.38157 13.6529 3.38157 13.6529 4.05969 13.6529H20.4311C25.9627 13.6529 31.4964 13.6506 37.032 13.6459C37.3268 13.6499 37.4596 13.7053 37.4153 14.0302Z" fill="#001F86"/>
</svg>
