<svg width="24" height="24" viewBox="0 0 24 24" fill="none" xmlns="http://www.w3.org/2000/svg">
<path d="M2.65465 15.575C2.51387 15.575 2.48954 15.6169 2.49006 15.7468C2.4942 17.7481 2.4942 19.7483 2.49006 21.7476C2.49006 21.9406 2.52681 22.0012 2.73539 22.0007C9.18784 21.9944 15.6391 21.9929 22.0891 21.996C22.1657 21.996 22.2444 22.0043 22.3194 22.0084V15.5801C15.7638 15.5798 9.20889 15.5781 2.65465 15.575ZM21.1554 20.7041C21.1554 20.7947 21.1326 20.8366 21.0369 20.8258C20.9919 20.8229 20.9468 20.8229 20.9018 20.8258H12.4063C9.5617 20.8258 6.7171 20.8271 3.8725 20.8299C3.69653 20.8299 3.64736 20.7869 3.65253 20.6099C3.66651 20.1586 3.66082 19.7068 3.65253 19.2554C3.65253 19.1421 3.67686 19.1162 3.79021 19.1379C4.14061 19.2047 4.46306 19.3595 4.8 19.4588C5.80772 19.7544 6.81544 19.7564 7.79573 19.3771C8.80811 18.9853 9.79357 18.9946 10.8054 19.3797C11.8326 19.7793 12.9721 19.7802 13.9999 19.3822C14.8166 19.0769 15.6334 18.9739 16.4781 19.2001C16.887 19.3098 17.27 19.5065 17.6923 19.5763C18.5856 19.7249 19.4624 19.6892 20.3159 19.3574C20.5478 19.2612 20.7881 19.1869 21.0338 19.1354C21.1285 19.1178 21.1544 19.1354 21.1539 19.2342C21.1507 19.7235 21.1513 20.2135 21.1554 20.7041ZM21.158 16.9564C21.1414 17.239 21.1513 17.5257 21.1549 17.8078C21.1549 17.8958 21.1456 17.9423 21.0374 17.9537C20.644 17.9946 20.2735 18.1256 19.9049 18.2643C19.0556 18.5784 18.2 18.594 17.3559 18.2643C16.4335 17.8988 15.4237 17.8139 14.4533 18.0205C14.1624 18.08 13.8892 18.1965 13.6097 18.2927C12.8219 18.5645 12.0228 18.595 11.2433 18.2979C10.3298 17.9496 9.40436 17.8207 8.43856 17.9791C8.10982 18.0414 7.78792 18.1355 7.47742 18.2601C6.63866 18.5831 5.70941 18.5805 4.87246 18.2529C4.51585 18.1183 4.15614 18.0003 3.77675 17.9542C3.69498 17.9439 3.65254 17.931 3.65461 17.8316C3.66185 17.5091 3.6603 17.1862 3.65461 16.8637C3.65461 16.7731 3.6779 16.7317 3.77313 16.7436C3.81811 16.7465 3.86323 16.7465 3.90822 16.7436H12.4037C15.2483 16.7436 18.0929 16.7423 20.9375 16.7395C21.1104 16.739 21.1689 16.7757 21.158 16.9564Z" fill="#040F47"/>
<path d="M21.9318 13.2474C20.6996 13.2653 19.4682 13.1766 18.2513 12.9824C17.6302 12.8789 17.0091 12.7614 16.388 12.6568C16.108 12.6097 15.8254 12.5787 15.5211 12.5373C15.6396 12.412 15.739 12.3111 15.8316 12.2065C17.5338 10.3087 19.2364 8.41286 20.9396 6.51888C21.0229 6.42675 21.026 6.38172 20.9303 6.29632C19.5635 5.07622 18.2006 3.85285 16.8414 2.62619C16.725 2.52268 16.6732 2.53562 16.5759 2.64482C14.9107 4.50603 13.2439 6.36516 11.5756 8.22222C10.6667 9.23564 9.757 10.248 8.84641 11.2594C8.75946 11.3556 8.76515 11.4043 8.86039 11.483C9.03429 11.6263 9.19785 11.7826 9.36606 11.9338L9.96955 12.4757C9.26306 12.5461 8.59901 12.6309 7.9448 12.7795C6.88739 13.0202 5.82273 13.1997 4.73583 13.2329C4.04538 13.2536 3.35545 13.2427 2.66552 13.2437C2.5382 13.2437 2.48437 13.2624 2.4911 13.4068C2.50352 13.6899 2.50145 13.9761 2.4911 14.2582C2.48644 14.3876 2.52785 14.4176 2.65206 14.4161C3.17482 14.4093 3.69705 14.4161 4.2198 14.4124C5.36879 14.4105 6.51416 14.2838 7.6358 14.0346C8.7253 13.7856 9.82411 13.6076 10.9441 13.5978C11.7764 13.5905 12.6087 13.5926 13.4409 13.5947C14.575 13.5967 15.7065 13.7028 16.8212 13.9114C17.8854 14.1112 18.9521 14.2903 20.0349 14.3612C20.7947 14.4129 21.556 14.4129 22.3168 14.4181V13.2562C22.189 13.2531 22.0606 13.2463 21.9318 13.2474ZM12.1056 11.1227C11.8665 11.3929 11.6227 11.6589 11.3856 11.9307C11.3251 12 11.2821 12.0171 11.1972 11.9617C10.926 11.7842 10.7004 11.5528 10.4556 11.3448C10.3572 11.2609 10.4556 11.2221 10.4928 11.1786C10.8644 10.7594 11.2397 10.3432 11.6139 9.92557C11.661 9.87381 11.7086 9.82205 11.7562 9.77029C11.9767 9.52289 11.9814 9.52289 12.177 9.79048C12.3142 9.9781 12.3849 10.2061 12.3778 10.4385C12.3777 10.6929 12.2803 10.9377 12.1056 11.1227ZM12.5326 12.396C12.6925 12.2174 12.8338 12.0616 12.973 11.9032C13.7794 10.9861 13.7365 9.66678 12.8638 8.81588C12.7458 8.70098 12.752 8.64198 12.8592 8.5307C13.1092 8.27191 13.3488 7.99915 13.5838 7.72483C13.6578 7.63891 13.6997 7.64305 13.7789 7.71603C14.1412 8.04728 14.5108 8.3687 14.87 8.70202C14.9605 8.78638 15.0025 8.77655 15.077 8.68856C15.2595 8.47187 15.4493 8.2607 15.6463 8.05505C15.7353 7.9624 15.7498 7.91116 15.6391 7.81696C15.2721 7.50176 14.9191 7.17051 14.5553 6.85168C14.4745 6.78129 14.4611 6.74144 14.5392 6.65863C14.7463 6.43883 14.949 6.21351 15.1474 5.98267C15.2147 5.904 15.2509 5.90348 15.328 5.97232C15.6945 6.30771 16.0692 6.6343 16.4341 6.97124C16.5148 7.04577 16.5547 7.04577 16.6251 6.96296C16.8176 6.7373 17.0148 6.51474 17.2198 6.29995C17.3015 6.21403 17.2995 6.17055 17.2089 6.09291C16.8388 5.7715 16.4796 5.43766 16.1101 5.11521C16.0262 5.04224 16.0247 5.00238 16.0997 4.92319C16.3068 4.70271 16.5086 4.47497 16.7074 4.2462C16.7705 4.17271 16.8109 4.16701 16.8849 4.23637C17.6833 4.96098 18.4854 5.68041 19.2911 6.39466C19.3858 6.47903 19.3729 6.52095 19.2978 6.60169C17.8346 8.22792 16.3782 9.86242 14.9114 11.4824C14.3053 12.1537 13.3887 12.4995 12.5326 12.396Z" fill="#040F47"/>
</svg>
