<svg width="53" height="50" viewBox="0 0 53 50" fill="none" xmlns="http://www.w3.org/2000/svg">
<path d="M48.9331 40.223C49.5742 40.4051 49.7024 40.5604 49.6908 41.2352C49.6665 42.2705 49.7947 43.3135 49.6165 44.3424C49.319 46.0692 48.0715 47.2995 46.333 47.6266C46.2984 47.6343 46.2715 47.6843 46.2407 47.7138H18.7099C18.3637 47.4893 17.956 47.5445 17.579 47.4675C11.5467 46.2411 7.46573 42.7208 5.27075 36.9887C4.42225 34.7594 4.00121 32.39 4.02967 30.0046C4.05403 26.3252 3.96043 22.6446 4.05275 18.9716C4.2425 11.4307 7.80678 5.98603 14.6686 2.94297C23.3691 -0.916011 33.7888 3.52926 37.3287 12.4006C38.1954 14.571 38.6406 16.887 38.6403 19.2243C38.6403 20.4239 38.6531 21.6234 38.6326 22.8229C38.6262 23.1564 38.7095 23.2463 39.048 23.2437C41.1738 23.227 43.2995 23.2334 45.4253 23.236C47.9561 23.236 49.6908 24.9795 49.6934 27.5183C49.6934 30.9732 49.6934 34.4281 49.6934 37.8842C49.6934 38.3345 49.5652 38.6655 49.1049 38.8041C48.5331 38.9247 48.178 38.6565 48.1305 38.0279C48.0831 37.3993 48.1203 36.7809 48.1126 36.1574C48.1272 35.9904 48.1194 35.8221 48.0895 35.6571C48.0369 35.625 48.0023 35.6109 47.9767 35.6276C47.0176 36.2318 45.9625 36.3447 44.8509 36.3422C37.03 36.3229 29.2193 36.3345 21.4036 36.3306C17.9996 36.3306 15.2994 33.6365 15.42 30.2381C15.5289 27.1591 17.3739 24.9782 20.5805 24.5356C23.6498 24.1148 26.359 26.2444 27.0244 28.8141C27.2103 29.5351 27.2359 29.5299 27.9603 29.5299H36.303C36.9736 29.5299 37.0479 29.4542 36.9697 28.7717C36.5979 25.5183 35.3684 22.6356 33.2272 20.1519C30.7912 17.3295 27.7283 15.6091 24.0858 14.9253C21.4933 14.4404 18.9342 14.6687 16.4213 15.4539C16.2238 15.5155 16.029 15.5937 15.8264 15.6373C15.3341 15.7451 15.0751 15.6284 14.7892 15.1781C14.6853 14.5135 14.8302 14.221 15.4482 13.9952C16.9961 13.4082 18.6299 13.0797 20.2843 13.0228C20.6356 13.0151 20.9766 12.9253 21.3267 12.9291C24.0537 13.0407 26.6795 13.5577 29.1347 14.8201C32.5192 16.5256 35.2588 19.2844 36.9415 22.6818C36.9832 22.7906 37.0347 22.8953 37.0954 22.9948C37.0877 21.9685 37.0825 20.9345 37.0954 19.8966C37.1261 17.2025 36.6697 14.6097 35.512 12.1645C34.4214 9.88158 32.8024 7.89188 30.7893 6.3606C28.7762 4.82931 26.4271 3.80062 23.937 3.35992C23.2267 3.23163 22.5075 3.21751 21.7921 3.16491C21.0895 3.02508 20.3817 3.16491 19.6971 3.23676C16.8942 3.50138 14.221 4.54424 11.9788 6.24774C8.57732 8.83151 6.5003 12.2222 5.8054 16.4468C5.66249 17.2821 5.59171 18.1281 5.59385 18.9755C5.6041 20.3276 5.6041 21.6798 5.59385 22.9704C5.7477 22.4688 6.06823 21.9877 6.36311 21.5002C7.77668 19.1454 9.71641 17.1505 12.0301 15.672C12.1506 15.5933 12.2751 15.5209 12.4032 15.4552C13.0032 15.1485 13.2763 15.2153 13.7135 15.772C13.8648 16.3378 13.7391 16.629 13.1519 16.9857C12.0013 17.6809 10.9484 18.5265 10.021 19.5002C7.53625 22.116 6.08618 25.2181 5.69513 28.8102C5.35794 31.8995 5.99387 34.8142 7.24649 37.6289C8.60681 40.6899 10.7954 42.9645 13.7263 44.5168C15.6806 45.5672 17.8633 46.1202 20.0817 46.1269C28.4898 46.1474 36.8979 46.1141 45.3047 46.1525C46.9497 46.159 48.2305 44.962 48.1254 43.3032C48.0876 42.5523 48.0876 41.8 48.1254 41.0491C48.1549 40.4629 48.4087 40.2178 48.9331 40.223Z" fill="#001F86"/>
<path d="M14.8725 15.1716C15.1815 15.6181 15.5777 15.6181 16.0521 15.4551C24.0845 12.6969 32.6106 16.4673 35.9492 24.2559C36.6346 25.859 37.0405 27.5677 37.1493 29.3079C37.1685 29.6005 37.1121 29.6928 36.8044 29.6928C33.6717 29.6808 30.5395 29.6808 27.4078 29.6928C27.0924 29.6928 27.0629 29.5543 27.009 29.3144C26.4116 26.6523 24.4884 24.8627 21.7959 24.6561C19.033 24.4444 16.2034 25.8454 15.6418 29.4093C15.0572 33.1066 17.7406 36.192 21.4908 36.1933C29.3527 36.1933 37.2159 36.1869 45.0817 36.2036C46.2176 36.2036 47.2677 36.0214 48.2549 35.2273C48.2549 36.1805 48.2549 37.0477 48.2549 37.9137C48.2549 38.5449 48.4716 38.7643 49.1088 38.804C48.8101 39.0349 48.9639 39.3621 48.9357 39.6482C48.9261 39.8396 48.9261 40.0315 48.9357 40.2229C48.4229 40.3589 48.2331 40.695 48.2511 41.2197C48.278 42.019 48.2665 42.8182 48.2511 43.6188C48.2318 45.1185 47.0972 46.2705 45.6099 46.2705C37.0762 46.277 28.5386 46.4168 20.0087 46.2231C13.8276 46.0832 9.42484 42.9106 6.92343 37.2222C5.69645 34.4357 5.19258 31.5068 5.59516 28.4728C6.17724 24.084 8.25811 20.5316 11.7352 17.8016C12.189 17.4488 12.6638 17.124 13.1571 16.8291C13.5879 16.5725 13.7776 16.2492 13.6122 15.7566C13.7461 15.5505 13.9354 15.3863 14.1583 15.2828C14.3812 15.1793 14.6288 15.1408 14.8725 15.1716Z" fill="#A4C2F7"/>
<path d="M14.8725 15.1717C14.4211 15.2947 13.9934 15.4924 13.6071 15.7567C13.1878 15.2961 12.9494 15.2589 12.407 15.5899C9.38417 17.4155 6.98885 20.1193 5.54004 23.3412C5.43362 23.2232 5.47465 23.0949 5.47722 22.9858C5.50799 21.1487 5.37465 19.3065 5.55543 17.4693C6.05673 12.3826 8.48762 8.43126 12.7058 5.58962C15.2879 3.84872 18.1817 3.05332 21.2831 3.01611C21.4569 3.02216 21.6302 3.03714 21.8024 3.06102C21.5459 3.32658 21.5459 3.65885 21.5459 3.99882C21.5459 6.76135 21.5459 9.52344 21.5459 12.2851C21.5459 12.5532 21.5857 12.8329 21.3934 13.0651C19.9446 13.1511 18.4971 13.2357 17.0906 13.6334C16.5701 13.7797 16.0521 13.9362 15.5392 14.1068C14.8995 14.3224 14.8084 14.4815 14.8725 15.1717Z" fill="#CAE1FE"/>
<path d="M21.3959 13.0652C21.3959 9.90027 21.3959 6.73534 21.3959 3.5717C21.3959 3.2561 21.4293 3.03031 21.8139 3.05853C24.0871 3.06215 26.3251 3.6196 28.3347 4.68269C33.1927 7.20874 36.0582 11.2178 37.0082 16.5996C37.1516 17.5001 37.2164 18.4115 37.2018 19.3232V23.3118C37.0057 23.2322 36.9993 23.0552 36.9326 22.9269C34.1683 17.5233 29.8079 14.2878 23.8191 13.2846C23.0217 13.146 22.2037 13.1345 21.3959 13.0652Z" fill="#DCE9FA"/>
<path d="M37.9877 31.1311C38.4788 31.0182 38.6442 30.6846 38.6429 30.2125C38.6429 28.5165 38.6429 26.8205 38.6339 25.1258C38.6339 24.7987 38.666 24.6588 39.0596 24.664C41.2161 24.6883 43.3752 24.6717 45.533 24.6768C47.1177 24.6768 48.2472 25.8083 48.2536 27.3953C48.26 28.9822 48.2677 30.5628 48.2536 32.142C48.2543 32.8306 47.982 33.4913 47.4965 33.9793C47.011 34.4673 46.3519 34.7427 45.6638 34.745C40.293 34.7579 34.9222 34.745 29.5514 34.745C29.5195 34.7428 29.4878 34.7381 29.4566 34.7309C29.304 34.5821 29.3066 34.3845 29.304 34.1947C29.304 33.38 29.2924 32.5667 29.304 31.7571C29.313 31.1939 29.3668 31.1529 29.954 31.1529H37.4659C37.64 31.1693 37.8156 31.1619 37.9877 31.1311Z" fill="#DCE9FA"/>
<path d="M37.9877 31.1311C37.8339 31.2594 37.6518 31.2017 37.4749 31.2017C34.9748 31.2017 32.4746 31.2145 29.9732 31.1953C29.554 31.1953 29.4232 31.2992 29.4373 31.7277C29.4694 32.7296 29.4476 33.7354 29.4476 34.7387C26.6526 34.7387 23.8563 34.8092 21.0651 34.7387C18.1162 34.6578 16.2264 31.5789 17.297 28.7308C17.965 26.9527 19.7625 25.8738 21.7062 26.0867C23.7319 26.3074 25.341 27.7994 25.6128 29.7097C25.6256 29.8046 25.6371 29.8995 25.6499 29.9945C25.7923 31.1067 25.8128 31.1234 26.9628 31.1247C30.6408 31.1238 34.3157 31.126 37.9877 31.1311Z" fill="#CAE1FE"/>
<path d="M20.6215 19.5604C20.6215 18.6624 20.6215 17.7644 20.6215 16.874C20.6215 16.3609 20.9087 16.035 21.3395 16.0389C21.7703 16.0427 22.0536 16.3673 22.0562 16.8843C22.0613 18.6752 22.0613 20.4666 22.0562 22.2584C22.0562 22.7715 21.7754 23.1051 21.3523 23.1192C20.9292 23.1333 20.6228 22.7972 20.6202 22.2468C20.6189 21.3514 20.6215 20.4559 20.6215 19.5604Z" fill="#001F86"/>
<path d="M11.0839 31.1181C10.1736 31.1181 9.26198 31.1181 8.35168 31.1181C7.83884 31.1181 7.51062 30.8231 7.51575 30.401C7.52087 29.9789 7.85038 29.6851 8.3645 29.6826C10.1526 29.6774 11.9416 29.6774 13.7314 29.6826C14.2584 29.6826 14.5738 29.9571 14.584 30.3882C14.5956 30.8423 14.2789 31.1156 13.7199 31.1194C12.8404 31.122 11.9621 31.1194 11.0839 31.1181Z" fill="#001F86"/>
<path d="M20.6215 41.3865C20.6215 40.4884 20.6215 39.5904 20.6215 38.7014C20.6215 38.1882 20.9074 37.8675 21.3421 37.8739C21.7767 37.8803 22.0549 38.201 22.0562 38.7193C22.0613 40.5094 22.0613 42.2995 22.0562 44.0896C22.0562 44.6207 21.7882 44.926 21.3485 44.9363C20.9087 44.9465 20.6228 44.6335 20.6202 44.0729C20.6189 43.1774 20.6215 42.2819 20.6215 41.3865Z" fill="#001F86"/>
<path d="M40.9699 41.4161C40.9699 42.3142 40.9699 43.2058 40.9699 44.1013C40.9699 44.6285 40.6981 44.9351 40.2584 44.9364C39.8186 44.9377 39.5365 44.6298 39.534 44.1089C39.5288 42.3043 39.5288 40.4984 39.534 38.6912C39.534 38.1781 39.8365 37.8638 40.2725 37.8753C40.7084 37.8869 40.9635 38.1896 40.9674 38.6823C40.9751 39.5931 40.9699 40.504 40.9699 41.4161Z" fill="#001F86"/>
<path d="M30.0745 41.3777C30.0745 40.4989 30.0745 39.6201 30.0745 38.7426C30.0745 38.1858 30.3643 37.8625 30.8105 37.8741C31.2361 37.8856 31.5054 38.1974 31.5067 38.7298C31.5144 40.519 31.5144 42.3087 31.5067 44.0987C31.5067 44.644 31.2426 44.9339 30.7977 44.9365C30.3528 44.939 30.0822 44.644 30.0745 44.1103C30.0656 43.1994 30.0745 42.2886 30.0745 41.3777Z" fill="#001F86"/>
<path d="M32.1605 20.8382C32.1559 20.9368 32.1306 21.0335 32.0865 21.1218C32.0423 21.2102 31.9802 21.2884 31.9041 21.3513C30.622 22.6342 29.3322 23.93 28.0398 25.2129C27.7001 25.5516 27.2705 25.5682 26.9744 25.286C26.6782 25.0038 26.6808 24.5496 27.0385 24.1891C28.3103 22.9062 29.5899 21.6348 30.8643 20.3558C31.1105 20.1095 31.3848 19.9812 31.7246 20.1262C31.8657 20.18 31.9849 20.279 32.0638 20.4078C32.1427 20.5367 32.1767 20.688 32.1605 20.8382Z" fill="#001F86"/>
<path d="M16.9085 36.101C16.9042 36.1998 16.8791 36.2965 16.8349 36.3849C16.7907 36.4733 16.7284 36.5514 16.6521 36.6142C15.3649 37.9022 14.0768 39.1894 12.7878 40.4757C12.4468 40.8157 12.0185 40.8324 11.7237 40.5489C11.4288 40.2653 11.4275 39.815 11.7878 39.452C13.0596 38.1691 14.3392 36.8977 15.6136 35.6186C15.8598 35.371 16.1354 35.2453 16.4739 35.389C16.7675 35.5083 16.9239 35.7405 16.9085 36.101Z" fill="#001F86"/>
<path d="M12.1801 20.0659C12.3018 20.066 12.4222 20.0925 12.5328 20.1434C12.6434 20.1943 12.7418 20.2685 12.8211 20.361C14.0836 21.6285 15.3473 22.8947 16.6123 24.1597C16.9777 24.5279 17.0149 24.9564 16.7264 25.2604C16.438 25.5645 15.9815 25.5516 15.5943 25.1655C14.3263 23.9031 13.066 22.633 11.798 21.3719C11.5416 21.123 11.4287 20.8459 11.5672 20.5098C11.6119 20.3821 11.6946 20.2711 11.8041 20.1918C11.9137 20.1124 12.0449 20.0685 12.1801 20.0659Z" fill="#001F86"/>
</svg>
