<svg width="64" height="61" viewBox="0 0 64 61" fill="none" xmlns="http://www.w3.org/2000/svg">
<path d="M18.1495 26.6927L8.14563 42.8118L11.6097 43.3291H58.4952L58.1253 41.6284L50.4346 28.1708L48.0321 26.3228L20.8822 26.0266L18.1495 26.6927Z" fill="#E8EDFC"/>
<path d="M6.38954 43.7089C8.02803 40.122 10.4518 37.0084 12.4644 33.6469C13.8223 31.3794 15.2992 29.1756 16.6854 26.9266C17.3331 25.8835 18.2247 25.3676 19.4535 25.4059C20.2118 25.4272 20.973 25.4059 21.7327 25.4059C22.3705 25.413 22.7688 25.7545 22.7872 26.2817C22.8056 26.8089 22.3932 27.2029 21.7327 27.2142C20.9375 27.2298 20.1424 27.2313 19.3472 27.2142C18.854 27.2043 18.5237 27.4056 18.2615 27.8222C15.2453 32.6189 12.2244 37.4095 9.19879 42.1939C9.12934 42.3045 8.96208 42.415 9.05705 42.5581C9.15201 42.7013 9.31926 42.6092 9.4525 42.6092C15.9403 42.6092 22.4272 42.6092 28.9131 42.6092H58.0034C58.1041 42.4107 57.9595 42.313 57.8929 42.2053C54.8824 37.4322 51.8714 32.661 48.8599 27.8917C48.5637 27.4212 48.2022 27.2029 47.6452 27.2213C46.8869 27.2483 46.1258 27.244 45.3661 27.2213C44.7141 27.2015 44.2945 26.7437 44.3611 26.1825C44.415 25.7304 44.7566 25.4286 45.2895 25.4201C46.191 25.4045 47.0924 25.3988 47.9939 25.4201C48.4475 25.4218 48.893 25.5412 49.2867 25.7665C49.6805 25.9918 50.0091 26.3153 50.2404 26.7055C53.5042 31.8603 56.7623 37.0198 60.0147 42.184C60.4665 42.9056 60.7012 43.7419 60.6908 44.5932C60.6908 47.8102 60.6908 51.0258 60.6908 54.2428C60.6908 55.9194 59.5427 57.0772 57.856 57.0772C41.6469 57.0772 25.4387 57.0772 9.23139 57.0772C7.94724 57.0772 7.05476 56.4839 6.55396 55.2972C6.5171 55.2108 6.52703 55.0776 6.38812 55.0549L6.38954 43.7089Z" fill="#001F86"/>
<path d="M24.4951 27.7528C24.5093 25.7305 25.1457 23.9179 26.5078 22.4299C29.3879 19.2837 31.1738 15.5778 32.2694 11.5005C32.397 11.0244 32.4934 10.5397 32.6039 10.0593C32.7457 9.43569 33.0377 9.14375 33.5224 9.13525C34.0298 9.12533 34.3516 9.42577 34.482 10.0734C35.0427 12.8408 36.02 15.5071 37.3805 17.9813C38.1785 19.4439 39.0814 20.8483 40.245 22.0345C44.2222 26.0763 43.2924 33.3451 36.7994 35.7132C32.7046 37.2069 27.8912 35.6225 25.6999 32.0781C24.8982 30.7789 24.4806 29.2794 24.4951 27.7528Z" fill="#001F86"/>
<path d="M18.1198 39.8868C17.8792 39.8746 17.6532 39.7681 17.4908 39.5903C17.3284 39.4125 17.2427 39.1778 17.2523 38.9372C17.259 38.8181 17.2892 38.7015 17.3412 38.5941C17.3933 38.4867 17.4661 38.3907 17.5554 38.3117C17.6448 38.2326 17.7489 38.172 17.8619 38.1334C17.9748 38.0949 18.0942 38.0791 18.2133 38.0869C18.4447 38.0998 18.6617 38.2029 18.8179 38.3741C18.974 38.5453 19.0567 38.7709 19.0481 39.0024C19.0461 39.1217 19.0204 39.2394 18.9725 39.3487C18.9246 39.4579 18.8554 39.5566 18.769 39.6389C18.6827 39.7211 18.5808 39.7854 18.4693 39.828C18.3578 39.8706 18.239 39.8905 18.1198 39.8868Z" fill="#001F86"/>
<path d="M39.878 38.9571C39.8782 39.198 39.7849 39.4296 39.6179 39.6032C39.4508 39.7769 39.223 39.879 38.9822 39.8881C38.751 39.891 38.5277 39.8039 38.3595 39.6452C38.1913 39.4866 38.0914 39.2688 38.0807 39.0378C38.0709 38.919 38.0853 38.7994 38.1233 38.6864C38.1613 38.5734 38.2219 38.4693 38.3016 38.3805C38.3812 38.2917 38.4781 38.2202 38.5864 38.1702C38.6946 38.1202 38.812 38.0928 38.9312 38.0897C39.1713 38.0809 39.4053 38.1669 39.5825 38.3292C39.7597 38.4915 39.8658 38.7171 39.878 38.9571Z" fill="#001F86"/>
<path d="M28.9996 39.0095C28.998 39.1287 28.9725 39.2464 28.9245 39.3556C28.8766 39.4647 28.8072 39.5631 28.7204 39.6449C28.6337 39.7268 28.5314 39.7903 28.4197 39.8319C28.3079 39.8734 28.1889 39.8921 28.0698 39.8867C27.8385 39.8713 27.6212 39.7703 27.4603 39.6034C27.2994 39.4365 27.2064 39.2157 27.1995 38.984C27.2033 38.7432 27.3023 38.5137 27.475 38.3458C27.6477 38.1779 27.88 38.0853 28.1208 38.0883C28.2401 38.0876 28.3582 38.1112 28.468 38.1578C28.5777 38.2044 28.6768 38.2729 28.7591 38.3592C28.8414 38.4455 28.9052 38.5477 28.9466 38.6595C28.9879 38.7713 29.006 38.8904 28.9996 39.0095Z" fill="#001F86"/>
<path d="M48.8996 38.0884C49.0188 38.0856 49.1373 38.1063 49.2485 38.1494C49.3596 38.1925 49.4612 38.2571 49.5473 38.3395C49.6334 38.4219 49.7024 38.5206 49.7504 38.6297C49.7983 38.7388 49.8242 38.8564 49.8266 38.9755C49.8251 39.2165 49.7288 39.4472 49.5585 39.6178C49.3882 39.7883 49.1576 39.8849 48.9166 39.8868C48.6851 39.8854 48.4632 39.7942 48.2977 39.6324C48.1322 39.4706 48.0359 39.2508 48.0293 39.0195C48.0226 38.9006 48.0401 38.7815 48.0807 38.6695C48.1212 38.5576 48.1841 38.455 48.2654 38.3679C48.3468 38.2809 48.4449 38.2113 48.5539 38.1632C48.6629 38.1152 48.7805 38.0897 48.8996 38.0884Z" fill="#001F86"/>
<path d="M22.6781 29.9452C22.6714 30.1854 22.571 30.4134 22.3982 30.5806C22.2255 30.7477 21.9943 30.8406 21.7539 30.8394C21.635 30.8352 21.518 30.8075 21.4098 30.758C21.3015 30.7084 21.2042 30.6379 21.1233 30.5506C21.0424 30.4633 20.9796 30.3608 20.9385 30.2491C20.8974 30.1374 20.8787 30.0187 20.8836 29.8998C20.8892 29.6694 20.9859 29.4505 21.1524 29.2912C21.319 29.1318 21.5419 29.0449 21.7723 29.0495C21.891 29.0476 22.0088 29.0694 22.1189 29.1136C22.229 29.1578 22.3291 29.2236 22.4135 29.307C22.4978 29.3904 22.5647 29.4898 22.6101 29.5994C22.6555 29.709 22.6786 29.8265 22.6781 29.9452Z" fill="#001F86"/>
<path d="M45.2994 30.8394C45.0588 30.8342 44.8298 30.7348 44.6618 30.5625C44.4937 30.3903 44.4 30.1589 44.4008 29.9183C44.4035 29.7993 44.43 29.682 44.4785 29.5734C44.5271 29.4647 44.5968 29.3668 44.6836 29.2854C44.7705 29.204 44.8727 29.1407 44.9842 29.0992C45.0958 29.0578 45.2145 29.0389 45.3335 29.0439C45.4481 29.045 45.5613 29.0687 45.6667 29.1136C45.7722 29.1585 45.8677 29.2238 45.9479 29.3056C46.028 29.3875 46.0913 29.4844 46.134 29.5907C46.1767 29.6971 46.198 29.8108 46.1966 29.9253C46.1983 30.0444 46.1764 30.1627 46.1321 30.2732C46.0878 30.3838 46.0221 30.4844 45.9387 30.5694C45.8552 30.6544 45.7558 30.7221 45.6461 30.7684C45.5364 30.8147 45.4185 30.8389 45.2994 30.8394Z" fill="#001F86"/>
<path d="M20.861 34.4518C20.8661 34.6894 20.7766 34.9192 20.6121 35.0907C20.4477 35.2623 20.2219 35.3615 19.9843 35.3666C19.7468 35.3717 19.5169 35.2822 19.3453 35.1178C19.1737 34.9534 19.0745 34.7276 19.0694 34.4901C19.0669 34.3725 19.0876 34.2555 19.1303 34.1459C19.173 34.0362 19.2369 33.9361 19.3183 33.8511C19.3997 33.7662 19.497 33.6981 19.6047 33.6508C19.7124 33.6034 19.8284 33.5778 19.9461 33.5753C20.0637 33.5728 20.1807 33.5934 20.2903 33.6361C20.4 33.6788 20.5001 33.7427 20.5851 33.8241C20.67 33.9055 20.7381 34.0028 20.7855 34.1105C20.8328 34.2182 20.8585 34.3342 20.861 34.4518Z" fill="#001F86"/>
<path d="M48.0109 34.4518C48.016 34.6894 47.9265 34.9192 47.762 35.0907C47.5976 35.2623 47.3718 35.3615 47.1342 35.3666C46.8967 35.3717 46.6668 35.2822 46.4952 35.1178C46.3236 34.9534 46.2244 34.7276 46.2193 34.4901C46.2168 34.3725 46.2375 34.2555 46.2802 34.1459C46.3229 34.0362 46.3868 33.9361 46.4682 33.8511C46.5496 33.7662 46.6469 33.6981 46.7546 33.6508C46.8623 33.6034 46.9783 33.5778 47.096 33.5753C47.2136 33.5728 47.3306 33.5934 47.4402 33.6361C47.5499 33.6788 47.65 33.7427 47.735 33.8241C47.8199 33.9055 47.888 34.0028 47.9354 34.1105C47.9827 34.2182 48.0084 34.3342 48.0109 34.4518Z" fill="#001F86"/>
<path d="M33.5366 44.4246C41.7895 44.4246 50.0429 44.4208 58.2968 44.4133C58.7816 44.4133 58.9091 44.5366 58.8949 45.0156C58.8595 46.2344 58.8836 46.2343 57.6505 46.2343H17.7257C17.55 46.2343 17.3728 46.2273 17.1971 46.2414C16.9827 46.2442 16.7774 46.3278 16.6221 46.4755C16.4668 46.6232 16.3729 46.824 16.3594 47.0379C16.3268 47.5268 16.5564 47.8584 17.0227 47.9888C17.2467 48.0363 17.4759 48.0539 17.7045 48.0413C31.2253 48.0413 44.7452 48.038 58.2642 48.0313C58.7645 48.0313 58.9077 48.1291 58.8978 48.6507C58.8595 50.4703 58.885 52.29 58.8822 54.1111C58.8822 54.9543 58.5732 55.2703 57.7384 55.2703H9.33201C8.52127 55.2703 8.19811 54.9515 8.19811 54.1564C8.19811 52.2645 8.20945 50.374 8.18677 48.4877C8.18677 48.0965 8.31292 48.0342 8.66443 48.0398C9.97125 48.0597 11.2795 48.0554 12.5877 48.0398C13.2851 48.0328 13.6947 47.5934 13.6083 46.9855C13.5431 46.5164 13.183 46.24 12.6161 46.2372C11.2908 46.2301 9.96558 46.2244 8.64033 46.2372C8.31434 46.2372 8.14709 46.1833 8.19102 45.812C8.24488 45.3614 7.99968 44.7576 8.29308 44.4955C8.54253 44.273 9.13216 44.4218 9.56872 44.4218L33.5366 44.4246Z" fill="#A4C2F7"/>
<path d="M33.572 13.7722C34.2743 15.9169 35.2212 17.9735 36.394 19.9016C37.1325 21.109 37.9333 22.281 38.9326 23.283C42.2138 26.5779 41.3067 32.8036 35.314 34.2548C32.2198 35.0031 28.9556 33.7333 27.3384 31.2674C25.8147 28.946 25.9352 25.7971 27.7891 23.7365C30.3394 20.8906 32.2701 17.5456 33.4586 13.9139C33.4629 13.8884 33.4941 13.8629 33.572 13.7722Z" fill="#A4C2F7"/>
<path d="M33.127 32.635C30.7415 32.5415 28.5559 30.7742 28.1662 28.6229C28.0244 27.8378 28.3079 27.3106 28.916 27.2454C29.4305 27.1902 29.9081 27.5033 29.9166 28.0291C29.9521 29.571 31.6543 30.6112 32.8478 30.7756C33.0221 30.7997 33.1979 30.8153 33.3708 30.8522C33.8782 30.957 34.1914 31.3638 34.1333 31.8272C34.1038 32.0663 33.9821 32.2845 33.7942 32.4354C33.6063 32.5862 33.3669 32.6578 33.127 32.635Z" fill="#001F86"/>
</svg>
