<svg width="50" height="40" viewBox="0 0 50 40" fill="none" xmlns="http://www.w3.org/2000/svg">
<path d="M45.1016 33.7317H47.0144C47.7015 33.7317 47.9145 33.4618 47.9145 32.7852V24.9562C47.9271 24.7465 47.8782 24.5377 47.7743 24.357C47.6704 24.1763 47.5162 24.0322 47.3318 23.9434C46.4156 23.4245 45.5236 22.8682 44.6074 22.3535C44.493 22.3021 44.398 22.2134 44.337 22.1009C44.2761 21.9885 44.2525 21.8585 44.2699 21.7308V16.571C44.2834 16.2199 44.2179 15.8703 44.0784 15.5497C43.939 15.2292 43.7294 14.9464 43.4662 14.7238C43.0459 14.3821 42.5219 14.2056 41.9874 14.2256H34.8188V7.70842C34.8188 6.97367 34.5777 6.72461 33.8624 6.72461H5.3323C4.609 6.72461 4.33575 6.96122 4.33575 7.6171V32.8599C4.33575 33.4701 4.60498 33.7441 5.19969 33.7483H7.29726C7.45831 34.4723 7.80764 35.1372 8.30758 35.6712C8.80752 36.2052 9.4391 36.5881 10.1342 36.7786H4.33977V38.219H47.8703V36.7371H42.2446C42.8334 36.4291 43.3873 36.0546 43.8961 35.6204C44.3596 35.0352 44.7635 34.4023 45.1016 33.7317ZM46.4116 28.4556H45.0052V27.011H46.3996L46.4116 28.4556ZM39.9381 15.7408C40.6895 15.7408 41.457 15.7117 42.2165 15.7408C42.3803 15.7525 42.5331 15.8306 42.6415 15.9581C42.7498 16.0857 42.8051 16.2522 42.7951 16.4216V21.7059H39.9381V15.7408ZM33.3521 8.26882V26.2182H5.79441V8.26882H33.3521ZM7.28119 32.2248H5.79039V27.7665H33.3521V32.2041H20.9676C20.5336 30.61 19.5531 29.5183 17.8976 29.2983C16.242 29.0783 15.0044 29.8172 14.1204 31.3365C13.2605 29.8338 12.0188 29.0575 10.3632 29.2941C8.70769 29.5308 7.73124 30.581 7.28119 32.2248ZM8.67554 33.0177C8.67243 32.5736 8.7966 32.1385 9.03242 31.7672C9.26823 31.3959 9.60514 31.105 10.0007 30.9311C10.3963 30.7572 10.8328 30.7082 11.2553 30.7901C11.6778 30.8721 12.0674 31.0813 12.375 31.3916C12.6825 31.7018 12.8944 32.0992 12.9837 32.5336C13.0731 32.9679 13.0361 33.4199 12.8773 33.8326C12.7184 34.2453 12.445 34.6002 12.0913 34.8526C11.7376 35.105 11.3195 35.2436 10.8896 35.251C10.6016 35.2559 10.3155 35.2018 10.0479 35.0917C9.78022 34.9816 9.53639 34.8178 9.33046 34.6097C9.12454 34.4016 8.96062 34.1534 8.8482 33.8794C8.73578 33.6054 8.6771 33.3111 8.67554 33.0135V33.0177ZM11.5687 36.7537C12.1133 36.6114 12.6221 36.3504 13.0608 35.9881C13.4995 35.6258 13.8581 35.1706 14.1123 34.6532C14.3736 35.17 14.7372 35.6241 15.1796 35.986C15.622 36.3479 16.1333 36.6094 16.68 36.7537H11.5687ZM15.2134 33.0177C15.2102 32.5734 15.3345 32.1382 15.5705 31.7667C15.8065 31.3953 16.1436 31.1044 16.5394 30.9307C16.9352 30.7569 17.3719 30.7081 17.7945 30.7903C18.2172 30.8726 18.6068 31.0823 18.9142 31.393C19.2216 31.7036 19.4331 32.1013 19.5221 32.536C19.611 32.9707 19.5734 33.4228 19.414 33.8354C19.2545 34.248 18.9804 34.6026 18.6262 34.8546C18.2719 35.1065 17.8534 35.2444 17.4234 35.251C17.1359 35.2548 16.8504 35.1999 16.5835 35.0894C16.3166 34.9788 16.0734 34.8149 15.868 34.607C15.6627 34.399 15.4991 34.1512 15.3867 33.8778C15.2744 33.6043 15.2155 33.3106 15.2134 33.0135V33.0177ZM17.978 36.708C18.6995 36.5696 19.3659 36.2159 19.895 35.6907C20.4242 35.1654 20.7929 34.4916 20.9555 33.7524H37.7722C37.9343 34.4905 38.3018 35.1635 38.8294 35.6887C39.357 36.2138 40.0217 36.5681 40.7418 36.708H17.978ZM43.5265 33.0467C43.5114 33.4898 43.3699 33.9183 43.1198 34.2786C42.8697 34.6389 42.5222 34.9148 42.1208 35.0717C41.7195 35.2287 41.2822 35.2596 40.8639 35.1607C40.4455 35.0617 40.0648 34.8373 39.7696 34.5157C39.4743 34.194 39.2775 33.7894 39.2041 33.3526C39.1306 32.9158 39.1837 32.4663 39.3567 32.0606C39.5297 31.6549 39.8148 31.311 40.1764 31.0722C40.5379 30.8333 40.9596 30.7101 41.3887 30.718C41.6763 30.7234 41.96 30.7874 42.2236 30.9065C42.4871 31.0256 42.7252 31.1973 42.9243 31.4118C43.1233 31.6263 43.2794 31.8793 43.3834 32.1564C43.4874 32.4334 43.5374 32.7289 43.5305 33.026L43.5265 33.0467ZM41.1155 29.2485C39.5564 29.3024 38.391 30.3817 37.8044 32.2165H34.8549V15.774H38.4714V22.2539C38.4714 22.9928 38.7125 23.2377 39.4197 23.2418H42.7791C43.0298 23.2481 43.2758 23.3134 43.4983 23.4328C44.4025 23.9392 45.2905 24.4706 46.1786 25.0102C46.3003 25.109 46.412 25.2203 46.5121 25.3423L46.4398 25.4834H44.4989C43.7836 25.4834 43.5385 25.7283 43.5385 26.4589V29.0368C43.5385 29.73 43.7917 29.9832 44.4788 29.9874H46.4116V32.2082H44.949C44.3623 30.278 43.1287 29.1738 41.0954 29.2443L41.1155 29.2485Z" fill="white"/>
<path d="M18.653 16.534C18.9491 16.1965 19.1361 15.7721 19.188 15.3198C19.2398 14.8674 19.154 14.4097 18.9424 14.0101C18.7417 13.6025 18.4261 13.2673 18.0373 13.0487C17.6485 12.8301 17.2047 12.7383 16.7644 12.7855H14.9039C14.8118 12.7746 14.7185 12.7825 14.6293 12.809C14.5402 12.8354 14.457 12.8798 14.3846 12.9396C14.3121 12.9994 14.2518 13.0735 14.2072 13.1574C14.1625 13.2414 14.1344 13.3337 14.1244 13.4289C14.1184 13.4772 14.1184 13.526 14.1244 13.5742V20.2658H15.5871V17.36C15.6199 17.3366 15.6567 17.3197 15.6955 17.3102H16.8327C17.5078 17.3102 17.7489 17.5717 17.7529 18.2774C17.7569 18.9831 17.7529 19.6099 17.7529 20.2741H19.2236C19.075 18.9914 19.5491 17.6631 18.6571 16.5381M17.0698 15.7743C16.5916 15.7992 16.1094 15.7743 15.583 15.7743V14.3007C16.1054 14.3007 16.6117 14.2675 17.114 14.3007C17.2914 14.3124 17.457 14.3964 17.5745 14.5341C17.6921 14.6719 17.7519 14.8521 17.7409 15.0354C17.7463 15.2252 17.6787 15.4095 17.553 15.5479C17.4272 15.6864 17.2535 15.7678 17.0698 15.7743Z" fill="white"/>
<path d="M21.3413 12.8018C21.2518 12.8007 21.1629 12.8179 21.0799 12.8524C20.9968 12.8869 20.9212 12.938 20.8573 13.0028C20.7935 13.0676 20.7426 13.1448 20.7078 13.23C20.6729 13.3152 20.6547 13.4067 20.6542 13.4991V19.5099C20.6465 19.6046 20.6571 19.7 20.6853 19.7904C20.7136 19.8808 20.7589 19.9646 20.8187 20.0368C20.8785 20.109 20.9516 20.1682 21.0337 20.211C21.1158 20.2538 21.2053 20.2794 21.2971 20.2862H24.9698V18.7669H22.1289V17.2808H24.2465V15.7739H22.1329V14.2671H24.9819V12.7935H21.3413" fill="white"/>
<path d="M27.9354 17.2726H30.0611V15.774H27.9394V14.2755H30.7924V12.7894H27.2201C27.0401 12.7744 26.8617 12.8337 26.7239 12.9543C26.5861 13.0749 26.5001 13.2469 26.4848 13.4328C26.4828 13.4577 26.4828 13.4827 26.4848 13.5075V19.5515C26.4726 19.7271 26.5284 19.9005 26.6399 20.0336C26.7515 20.1667 26.9096 20.2486 27.0795 20.2614H27.1277C28.3332 20.2904 29.5709 20.2614 30.8085 20.2614V18.7753H27.9354V17.2726Z" fill="white"/>
<path d="M9.24214 12.7896C8.5309 12.7896 8.2898 13.0386 8.2898 13.7734V19.8672C8.28541 19.9964 8.29348 20.1257 8.31391 20.2532H9.7605V17.2769H11.8902V15.7742H9.78863V14.2798H12.6416V12.7896H9.24214Z" fill="white"/>
<path d="M41.3606 24.7739H38.5116V26.2185H41.3606V24.7739Z" fill="white"/>
<path d="M20.2082 1.1748H11.2915V2.76883H20.2082V1.1748Z" fill="white"/>
<path d="M10.6767 1.1748H9.13367V2.76883H10.6767V1.1748Z" fill="white"/>
<path d="M22.6031 3.95166H13.6864V5.54568H22.6031V3.95166Z" fill="white"/>
<path d="M11.1549 32.6899H10.3392V33.5326H11.1549V32.6899Z" fill="white"/>
<path d="M17.7972 32.6899H16.9814V33.5326H17.7972V32.6899Z" fill="white"/>
<path d="M41.7544 32.6899H40.9387V33.5326H41.7544V32.6899Z" fill="white"/>
</svg>
