<svg width="22" height="25" viewBox="0 0 22 25" fill="none" xmlns="http://www.w3.org/2000/svg">
<path d="M16.4299 16.1218C16.2759 17.8977 15.4514 19.2663 13.9296 20.207C13.5062 20.4692 13.0674 20.3638 12.8241 19.9619C12.6069 19.6015 12.7223 19.1627 13.1322 18.9185C14.0855 18.3491 14.664 17.5202 14.8964 16.4435C14.928 16.2966 14.9442 16.1452 14.9613 15.993C15.0163 15.4974 15.3379 15.182 15.7506 15.2235C16.1371 15.2676 16.5002 15.5821 16.4299 16.1218Z" fill="#040F47"/>
<path d="M18.3005 13.1412C17.6824 11.5752 16.8471 10.1228 15.9723 8.69111C14.7271 6.65392 13.3449 4.70593 12.0348 2.71109C11.8844 2.48133 11.7141 2.28762 11.451 2.19031H11.1203C10.8401 2.30113 10.6572 2.51017 10.504 2.76245C10.3238 3.06249 10.1274 3.35441 9.93007 3.64454C8.64162 5.53666 7.34326 7.42879 6.18186 9.4002C5.34842 10.8175 4.57626 12.2618 4.03385 13.8224C3.44458 15.519 3.60406 17.1723 4.30415 18.7869C4.94159 20.2878 6.05766 21.5357 7.47841 22.336C8.87893 23.158 10.5092 23.5012 12.1222 23.3136C13.5061 23.17 14.8203 22.6349 15.911 21.7711C17.5995 20.4448 18.581 18.7161 18.8555 16.5849C19.0159 15.3784 18.7411 14.2476 18.3005 13.1412ZM17.1814 17.376C16.493 19.6519 15.0037 21.1134 12.6854 21.7008C12.5331 21.7396 12.3745 21.7576 12.2195 21.7909C11.9132 21.8477 11.6023 21.8441 11.3311 21.8684C10.0188 21.8764 8.73835 21.4643 7.6771 20.6922C6.61585 19.9202 5.82951 18.8288 5.43312 17.5778C5.05539 16.4225 5.084 15.1727 5.51421 14.0359C6.08995 12.4871 6.89906 11.0626 7.75052 9.65699C8.83804 7.86127 10.0337 6.13764 11.1987 4.39328C11.2519 4.31489 11.2816 4.25362 11.3636 4.37706C13.0593 6.93143 14.8289 9.43985 16.2353 12.1744C16.7129 13.1034 17.1436 14.0548 17.3391 15.0928C17.4736 15.8565 17.4195 16.6415 17.1814 17.3796V17.376Z" fill="#040F47"/>
<path d="M16.4299 16.1218C16.2759 17.8977 15.4514 19.2663 13.9296 20.207C13.5062 20.4692 13.0674 20.3638 12.8241 19.9619C12.6069 19.6015 12.7223 19.1627 13.1322 18.9185C14.0855 18.3491 14.664 17.5202 14.8964 16.4435C14.928 16.2966 14.9442 16.1452 14.9613 15.993C15.0163 15.4974 15.3379 15.182 15.7506 15.2235C16.1371 15.2676 16.5002 15.5821 16.4299 16.1218Z" fill="#FEFEFE"/>
<path d="M16.4299 16.1218C16.2759 17.8977 15.4514 19.2663 13.9296 20.207C13.5062 20.4692 13.0674 20.3638 12.8241 19.9619C12.6069 19.6015 12.7223 19.1627 13.1322 18.9185C14.0855 18.3491 14.664 17.5202 14.8964 16.4435C14.928 16.2966 14.9442 16.1452 14.9613 15.993C15.0163 15.4974 15.3379 15.182 15.7506 15.2235C16.1371 15.2676 16.5002 15.5821 16.4299 16.1218Z" fill="#040F47"/>
</svg>
